<svg width="38" height="38" viewBox="0 0 38 38" fill="none" xmlns="http://www.w3.org/2000/svg">
<rect width="38" height="38" />
<path d="M19 38C29.4934 38 38 29.4934 38 19C38 8.50659 29.4934 0 19 0C8.50659 0 0 8.50659 0 19C0 29.4934 8.50659 38 19 38Z" fill="#FFFFFF"/>
<path d="M37.8392 16.5218H21.4784H21.4783V0.160832C20.667 0.0552188 19.8399 0 19 0C18.1601 0 17.333 0.0552188 16.5218 0.160832V16.5216V16.5217H0.160832C0.0552188 17.333 0 18.1601 0 19C0 19.8401 0.0552188 20.667 0.160832 21.4782H16.5216H16.5217V37.8392C17.333 37.9448 18.1601 38 19 38C19.8399 38 20.667 37.9449 21.4782 37.8392V21.4784V21.4783H37.8392C37.9448 20.667 38 19.8401 38 19C38 18.1601 37.9448 17.333 37.8392 16.5218Z" fill="#D80027"/>
<path d="M11.5652 9.08695V6.60864H9.08695V9.08695H6.60864V11.5652H9.08695V14.0434H11.5652V11.5652H14.0434V9.08695H11.5652Z" fill="#D80027"/>
<path d="M28.913 9.08695V6.60864H26.4348V9.08695H23.9565V11.5652H26.4348V14.0434H28.913V11.5652H31.3913V9.08695H28.913Z" fill="#D80027"/>
<path d="M11.5652 26.4348V23.9565H9.08695V26.4348H6.60864V28.913H9.08695V31.3913H11.5652V28.913H14.0434V26.4348H11.5652Z" fill="#D80027"/>
<path d="M28.913 26.4348V23.9565H26.4348V26.4348H23.9565V28.913H26.4348V31.3913H28.913V28.913H31.3913V26.4348H28.913Z" fill="#D80027"/>
</svg>
