<svg width="38" height="38" viewBox="0 0 38 38" fill="none" xmlns="http://www.w3.org/2000/svg">
<g clip-path="url(#clip0)">
<path d="M37.9161 20.7769H0.0859375V20.7774H37.9161V20.7769Z" fill="#C42126"/>
<path d="M35.9441 10.4048H2.05615V10.4053H35.9441V10.4048Z" fill="#C42126"/>
<path d="M37.2904 13.8618H0.708496V13.8624H37.2904V13.8618Z" fill="#C42126"/>
<path d="M8.16673 34.6052H29.8347L29.8358 34.604H8.16553L8.16673 34.6052Z" fill="#C42126"/>
<path d="M18.9996 0C18.6264 0 18.2562 0.0134775 17.8887 0.0344961H20.1108C19.743 0.0134775 19.3728 0 18.9996 0Z" fill="#C42126"/>
<path d="M37.9208 17.3193H0.0786133V17.3199H37.9208V17.3193Z" fill="#C42126"/>
<path d="M24.6155 6.94805H33.6881C32.6104 5.63615 31.358 4.47484 29.9704 3.4917H23.1577C23.7214 4.4835 24.2062 5.6538 24.6155 6.94805Z" fill="#E7E7E7"/>
<path d="M23.1577 3.49141H29.9704C27.154 1.49553 23.7727 0.245649 20.1109 0.0341797H19.5259C21.2494 0.251104 22.041 1.52666 23.1577 3.49141Z" fill="#DC3027"/>
<path d="M37.2917 13.8621C36.9538 12.6573 36.5008 11.5014 35.9441 10.4058H25.5063C25.7178 11.5155 25.8847 12.6746 26.0082 13.8621H37.2917Z" fill="#E7E7E7"/>
<path d="M24.9194 10.4052H35.9439C35.3156 9.16947 34.5609 8.00992 33.6885 6.94824H24.0581C24.3977 8.02316 24.686 9.18271 24.9194 10.4052Z" fill="#DC3027"/>
<path d="M26.4077 20.7764H37.9142C37.9689 20.1917 37.9998 19.5992 37.9998 19.0004C37.9998 18.4337 37.9701 17.8742 37.9215 17.3198H26.4104C26.4479 18.4694 26.4473 19.6275 26.4077 20.7764Z" fill="#E7E7E7"/>
<path d="M37.9219 17.3191C37.8178 16.132 37.6039 14.977 37.2916 13.8628H25.5234C25.6416 14.9947 25.7197 16.1527 25.7578 17.3191H37.9219Z" fill="#DC3027"/>
<path d="M25.3076 27.6903H35.8941C36.4587 26.5959 36.9188 25.4391 37.2639 24.2334H25.8194C25.6934 25.4226 25.5224 26.5815 25.3076 27.6903Z" fill="#E7E7E7"/>
<path d="M37.2641 24.2337C37.583 23.1198 37.8044 21.9648 37.9145 20.7773H26.0491C26.0086 21.9447 25.9282 23.1024 25.8076 24.2337H37.2641Z" fill="#DC3027"/>
<path d="M29.8353 34.6043C31.243 33.6251 32.5131 32.4626 33.6079 31.1479H24.6933C24.2767 32.4476 23.7819 33.616 23.208 34.6043H29.8353Z" fill="#E7E7E7"/>
<path d="M24.3579 31.1473H33.6078C34.4905 30.0869 35.2567 28.9273 35.8941 27.6904H25.23C24.9934 28.9138 24.7021 30.0739 24.3579 31.1473Z" fill="#DC3027"/>
<path d="M18.3115 37.9866C18.2731 37.9854 18.2347 37.9836 18.1963 37.9824C18.2347 37.9835 18.2731 37.9854 18.3115 37.9866Z" fill="#DC3027"/>
<path d="M19 38.0003C23.0281 38.0003 26.7604 36.7429 29.8343 34.6055H22.9579C21.7375 36.7081 20.9323 38.0003 19 38.0003Z" fill="#DC3027"/>
<path d="M19 38.0003C18.7693 38.0003 18.5401 37.9949 18.3115 37.9868C18.5425 37.9946 18.7719 38.0003 19 38.0003Z" fill="#C42126"/>
<path d="M23.7867 3.4917H8.02948C6.64169 4.47484 5.38949 5.63607 4.31152 6.94805H25.2441C24.8349 5.6538 24.3505 4.4835 23.7867 3.4917Z" fill="#F3F4F5"/>
<path d="M8.02979 3.49141H23.787C22.6702 1.52666 21.2496 0.251104 19.5261 0.0341797H17.889C14.2272 0.245649 10.8459 1.49553 8.02979 3.49141Z" fill="#E73625"/>
<path d="M0.708984 13.8621H26.6075C26.4839 12.6744 26.3171 11.5155 26.1056 10.4058H2.05658C1.49975 11.5015 1.04681 12.6573 0.708984 13.8621Z" fill="#F3F4F5"/>
<path d="M4.31172 6.94824C3.43993 8.00992 2.68455 9.16938 2.05664 10.4051H26.1054C25.8723 9.18294 25.584 8.02347 25.2443 6.94824C25.2443 6.94824 4.31172 6.94824 4.31172 6.94824Z" fill="#E73625"/>
<path d="M0 19.0002C0 19.599 0.0312069 20.1915 0.0855182 20.7762H26.8393C26.8789 19.6271 26.8795 18.4694 26.842 17.3198H0.0782981C0.0296827 17.874 0 18.4335 0 19.0002Z" fill="#F3F4F5"/>
<path d="M0.0786133 17.3191H26.842C26.8039 16.1524 26.7256 14.9947 26.6077 13.8628H0.708608C0.396298 14.9773 0.182422 16.132 0.0786133 17.3191Z" fill="#E73625"/>
<path d="M26.5983 24.2334H0.736328C1.08137 25.4394 1.54185 26.5959 2.10614 27.6903H26.0865C26.3013 26.5818 26.4719 25.4229 26.5983 24.2334Z" fill="#F3F4F5"/>
<path d="M0.736309 24.2337H26.5983C26.7186 23.1024 26.7992 21.9444 26.8397 20.7773H0.0859375C0.196004 21.9651 0.417742 23.1198 0.736309 24.2337Z" fill="#E73625"/>
<path d="M8.16509 34.6043H23.7292C24.3031 33.6158 24.7981 32.4476 25.2145 31.1479H4.39258C5.48731 32.4626 6.75716 33.6251 8.16509 34.6043Z" fill="#F3F4F5"/>
<path d="M2.10645 27.6904C2.74398 28.9273 3.51011 30.0869 4.39273 31.1473H25.2146C25.5585 30.0739 25.8498 28.9138 26.0864 27.6904H2.10645Z" fill="#E73625"/>
<path d="M18.1964 37.9826C18.2349 37.9838 18.2732 37.9856 18.3116 37.9868C18.5403 37.9949 18.7695 38.0003 19.0001 38.0003C20.9325 38.0003 22.508 36.7082 23.7287 34.6055H8.1665C11.0343 36.6 14.4765 37.8276 18.1964 37.9826Z" fill="#E73625"/>
<path d="M18.6073 0.00976562C8.87082 0.207837 0.935113 7.7255 0.0810547 17.288H18.6076V0.00976562H18.6073Z" fill="#283991"/>
<path d="M3.80156 10.7646L4.09101 11.6559H5.02882L4.27014 12.2071L4.55991 13.099L3.80156 12.5475L3.04345 13.099L3.33265 12.2071L2.57422 11.6559H3.51203L3.80156 10.7646Z" fill="#EFEFEF"/>
<path d="M3.80156 13.9136L4.09101 14.8054H5.02882L4.27014 15.3566L4.55991 16.2485L3.80156 15.697L3.04345 16.2485L3.33265 15.3566L2.57422 14.8054H3.51203L3.80156 13.9136Z" fill="#EFEFEF"/>
<path d="M6.9508 6.04053L7.24033 6.93213H8.17782L7.41939 7.48359L7.70892 8.37487L6.9508 7.82405L6.19237 8.37487L6.4819 7.48359L5.72314 6.93213H6.66096L6.9508 6.04053Z" fill="#EFEFEF"/>
<path d="M6.9508 9.18945L7.24033 10.0811H8.17782L7.41939 10.6319L7.70892 11.5238L6.9508 10.973L6.19237 11.5238L6.4819 10.6319L5.72314 10.0811H6.66096L6.9508 9.18945Z" fill="#EFEFEF"/>
<path d="M6.9508 12.3389L7.24033 13.2308H8.17782L7.41939 13.7813L7.70892 14.6732L6.9508 14.1218L6.19237 14.6732L6.4819 13.7813L5.72314 13.2308H6.66096L6.9508 12.3389Z" fill="#EFEFEF"/>
<path d="M1.41043 14.6733L1.12066 13.7814L1.87909 13.2306H0.941843L0.920825 13.1655C0.817898 13.4839 0.724919 13.806 0.63916 14.1318L0.652397 14.122L1.41043 14.6733Z" fill="#EFEFEF"/>
<path d="M3.04348 9.94933L3.80159 9.39795L4.56002 9.94933L4.27026 9.0574L5.02869 8.50603H4.09088L3.80135 7.61475L3.51183 8.50603H3.16622C3.10205 8.60326 3.03995 8.70105 2.97754 8.79973L3.33277 9.0574L3.04348 9.94933Z" fill="#EFEFEF"/>
<path d="M6.95097 4.67407L7.70908 5.22488L7.41955 4.3336L8.17767 3.78223H7.63616C7.17624 4.12606 6.73252 4.48996 6.30621 4.87391L6.19189 5.22488L6.95097 4.67407Z" fill="#EFEFEF"/>
<path d="M9.3418 3.65064L10.1002 3.09927L10.8583 3.65064L10.5688 2.75872L11.3269 2.2079H10.3894L10.3501 2.08789C10.0324 2.25018 9.71804 2.41905 9.41079 2.59875L9.631 2.75864L9.3418 3.65064Z" fill="#EFEFEF"/>
<path d="M10.1006 4.46582L10.3902 5.35686H11.3277L10.5692 5.90824L10.8587 6.80016L10.1006 6.24871L9.3422 6.80016L9.63172 5.90824L8.87305 5.35686H9.81078L10.1006 4.46582Z" fill="#EFEFEF"/>
<path d="M10.1006 7.61523L10.3902 8.50628H11.3277L10.5692 9.05765L10.8587 9.94958L10.1006 9.39812L9.3422 9.94958L9.63172 9.05765L8.87305 8.50628H9.81078L10.1006 7.61523Z" fill="#EFEFEF"/>
<path d="M10.1006 10.7646L10.3902 11.6559H11.3277L10.5692 12.2071L10.8587 13.099L10.1006 12.5475L9.3422 13.099L9.63172 12.2071L8.87305 11.6559H9.81078L10.1006 10.7646Z" fill="#EFEFEF"/>
<path d="M10.1006 13.9136L10.3902 14.8054H11.3277L10.5692 15.3566L10.8587 16.2485L10.1006 15.697L9.3422 16.2485L9.63172 15.3566L8.87305 14.8054H9.81078L10.1006 13.9136Z" fill="#EFEFEF"/>
<path d="M13.2496 2.89062L13.5391 3.78223H14.4766L13.7185 4.33369L14.0077 5.22497L13.2496 4.67416L12.4909 5.22497L12.7806 4.33369L12.022 3.78223H12.9597L13.2496 2.89062Z" fill="#EFEFEF"/>
<path d="M13.2496 6.04053L13.5391 6.93213H14.4766L13.7185 7.48359L14.0077 8.37487L13.2496 7.82405L12.4909 8.37487L12.7806 7.48359L12.022 6.93213H12.9597L13.2496 6.04053Z" fill="#EFEFEF"/>
<path d="M13.2496 9.18945L13.5391 10.0811H14.4766L13.7185 10.6319L14.0077 11.5238L13.2496 10.973L12.4909 11.5238L12.7806 10.6319L12.022 10.0811H12.9597L13.2496 9.18945Z" fill="#EFEFEF"/>
<path d="M13.2496 12.3389L13.5391 13.2308H14.4766L13.7185 13.7813L14.0077 14.6732L13.2496 14.1218L12.4909 14.6732L12.7806 13.7813L12.022 13.2308H12.9597L13.2496 12.3389Z" fill="#EFEFEF"/>
<path d="M16.399 1.31641L16.6885 2.20801H17.626L16.8676 2.75883L17.1571 3.65075L16.399 3.09929L15.6403 3.65075L15.9301 2.75883L15.1714 2.20801H16.1089L16.399 1.31641Z" fill="#EFEFEF"/>
<path d="M16.399 4.46582L16.6885 5.35686H17.626L16.8676 5.90824L17.1571 6.80016L16.399 6.24871L15.6403 6.80016L15.9301 5.90824L15.1714 5.35686H16.1089L16.399 4.46582Z" fill="#EFEFEF"/>
<path d="M16.399 7.61523L16.6885 8.50628H17.626L16.8676 9.05765L17.1571 9.94958L16.399 9.39812L15.6403 9.94958L15.9301 9.05765L15.1714 8.50628H16.1089L16.399 7.61523Z" fill="#EFEFEF"/>
<path d="M16.399 10.7646L16.6885 11.6559H17.626L16.8676 12.2071L17.1571 13.099L16.399 12.5475L15.6403 13.099L15.9301 12.2071L15.1714 11.6559H16.1089L16.399 10.7646Z" fill="#EFEFEF"/>
<path d="M16.399 13.9136L16.6885 14.8054H17.626L16.8676 15.3566L17.1571 16.2485L16.399 15.697L15.6403 16.2485L15.9301 15.3566L15.1714 14.8054H16.1089L16.399 13.9136Z" fill="#EFEFEF"/>
</g>
<defs>
<clipPath id="clip0">
<rect width="38" height="38" fill="white"/>
</clipPath>
</defs>
</svg>
