<svg xmlns="http://www.w3.org/2000/svg" width="629.502" height="419.776" viewBox="0 0 629.502 419.776">
  <g id="login_img" transform="translate(-88.013 -74.839)">
    <path id="Path_2138" data-name="Path 2138" d="M717.5,311.931a414.656,414.656,0,0,1-4.433,65.482c-.211,1.463-.445,2.926-.7,4.345-1.57,9.479-3.478,18.323-5.642,26.485q-.574,2.1-1.145,4.137c-8.313,29.05-20.122,48.685-32.718,55.938H143.738s-45.1-39.1-54.157-94.956c-.232-1.421-.445-2.841-.615-4.283-3.52-27.8,2.142-59.46,26.506-92.391,11.112-14.991,25.722-25.423,42.5-32.611,1.315-.552,2.606-1.083,3.944-1.591,24.873-9.734,54.092-12.788,83.441-13.254,1.484-.021,2.968-.042,4.452-.042,17.474-.127,34.9.594,51.423,1.25,1.568.086,3.116.148,4.665.213,26.675,1.125,50.721,1.95,68.172-1.252h.023c1.612-.3,3.137-.635,4.621-1.018h.021c19.318-4.728,28.839-15.691,21.991-39.271-13.275-45.74.318-79.265,29.9-97.776,1.5-.955,3.075-1.867,4.665-2.736,16.73-9.076,37.872-13.827,61.791-13.762,1.676,0,3.371.042,5.09.086C522.5,75.54,544.7,79.546,567.753,87.2a208.182,208.182,0,0,1,34.67,15.079c1.315.719,2.63,1.463,3.9,2.226a201.877,201.877,0,0,1,53.288,44.741c1,1.145,1.95,2.312,2.905,3.5C700.539,199.61,717.121,260.107,717.5,311.931Z" fill="#8ebe39" opacity="0.1"/>
    <path id="Path_2139" data-name="Path 2139" d="M385.8,249.014Z" transform="translate(324.644 189.886)" fill="#fff" stroke="#133b90" stroke-miterlimit="10" stroke-width="1.61"/>
    <path id="Path_2140" data-name="Path 2140" d="M173.2,253.619v32.315a13.786,13.786,0,0,1-13.774,13.774h-9.887a12.643,12.643,0,0,1-3.47-.46,13.731,13.731,0,0,1-10.326-13.315V253.619Z" transform="translate(52.036 194.907)" fill="#8ebe39"/>
    <path id="Path_2141" data-name="Path 2141" d="M156.373,253.619v32.315a13.712,13.712,0,0,1-5.058,10.66,13.414,13.414,0,0,1-5.246,2.655,13.731,13.731,0,0,1-10.326-13.315V253.619Z" transform="translate(52.036 194.907)" fill="#99c241"/>
    <path id="Path_2142" data-name="Path 2142" d="M152.138,291.656v-10a2.971,2.971,0,0,1,2.972-2.97h3.781a2.973,2.973,0,0,0,2.972-2.972v-3.781a2.973,2.973,0,0,0-2.972-2.972H146.737a15.126,15.126,0,0,1-15.127-15.127h0a15.127,15.127,0,0,1,15.127-15.127h16.118a2.97,2.97,0,0,0,2.97-2.97v-1.35a15.668,15.668,0,0,1,15.668-15.668h0a15.666,15.666,0,0,1,15.666,15.668h0a16.928,16.928,0,0,1-16.926,16.926H151.868a2.971,2.971,0,0,0-2.97,2.972h0a2.97,2.97,0,0,0,2.97,2.97h15.488a10.355,10.355,0,0,1,10.355,10.355V274.1a10.355,10.355,0,0,1-10.355,10.355h0a2.97,2.97,0,0,0-2.972,2.97v4.233Z" transform="translate(47.53 156.863)" fill="#cbd9ab"/>
    <g id="Group_1793" data-name="Group 1793" transform="translate(272.75 99.284)">
      <rect id="Rectangle_126" data-name="Rectangle 126" width="153.967" height="319.433" rx="7.757" fill="#fff" stroke="#cbd9ab" stroke-miterlimit="10" stroke-width="1"/>
    </g>
    <path id="Path_2143" data-name="Path 2143" d="M193.18,215.529a1.984,1.984,0,0,1-.012-3.967l91.07-.512h.01a1.983,1.983,0,0,1,.012,3.965l-91.07.514Z" transform="translate(112.491 148.498)" fill="#8ebe39" opacity="0.47"/>
    <path id="Path_2144" data-name="Path 2144" d="M202.01,221.973a1.984,1.984,0,0,1-.01-3.967l54.149-.305h.013a1.984,1.984,0,0,1,.01,3.967l-54.149.305Z" transform="translate(122.119 155.749)" fill="#8ebe39" opacity="0.47"/>
    <g id="Group_1797" data-name="Group 1797" transform="translate(290.019 134.02)">
      <rect id="Rectangle_127" data-name="Rectangle 127" width="55.332" height="11.823" rx="0.727" transform="translate(0)" fill="#8ebe39" opacity="0.47"/>
      <rect id="Rectangle_128" data-name="Rectangle 128" width="84.062" height="5.911" rx="0.727" transform="translate(0.007 18.438)" fill="#8ebe39" opacity="0.47"/>
      <rect id="Rectangle_129" data-name="Rectangle 129" width="33.903" height="33.903" rx="2.346" transform="translate(0.978 55.362)" fill="#ffaf00" opacity="0.47"/>
      <path id="Path_2145" data-name="Path 2145" d="M204.368,141.642a7.317,7.317,0,1,1-7.32-7.314A7.314,7.314,0,0,1,204.368,141.642Z" transform="translate(-179.122 -69.164)" fill="#ffaf00"/>
      <g id="Group_1794" data-name="Group 1794" transform="translate(39.71 60.633)" opacity="0.47">
        <rect id="Rectangle_130" data-name="Rectangle 130" width="21.517" height="6.081" rx="0.586" transform="translate(1.072)" fill="#8ebe39"/>
        <path id="Path_2146" data-name="Path 2146" d="M204.731,140.675a1.078,1.078,0,0,1,0-2.155l36.719-.015h0a1.076,1.076,0,0,1,0,2.153l-36.719.017Z" transform="translate(-203.655 -125.243)" fill="#8ebe39"/>
        <path id="Path_2147" data-name="Path 2147" d="M204.733,144.356a1.077,1.077,0,0,1,0-2.155l59.872-.025h0a1.076,1.076,0,1,1,0,2.153l-59.872.027Z" transform="translate(-203.653 -121.241)" fill="#8ebe39"/>
        <path id="Path_2148" data-name="Path 2148" d="M226.215,140.665a1.076,1.076,0,1,1,0-2.153l36.717-.017h0a1.078,1.078,0,1,1,0,2.155l-36.717.015Z" transform="translate(-180.233 -125.254)" fill="#8ebe39"/>
      </g>
      <rect id="Rectangle_131" data-name="Rectangle 131" width="33.903" height="33.903" rx="2.346" transform="translate(1.021 153.994)" fill="#8ebe39" opacity="0.47"/>
      <path id="Path_2149" data-name="Path 2149" d="M204.389,188.83a7.317,7.317,0,1,1-7.32-7.314A7.314,7.314,0,0,1,204.389,188.83Z" transform="translate(-179.099 -17.72)" fill="#8ebe39"/>
      <g id="Group_1795" data-name="Group 1795" transform="translate(39.754 159.265)" opacity="0.47">
        <rect id="Rectangle_132" data-name="Rectangle 132" width="21.517" height="6.081" rx="0.586" transform="translate(1.072)" fill="#8ebe39"/>
        <path id="Path_2150" data-name="Path 2150" d="M204.752,187.861a1.076,1.076,0,0,1,0-2.153l36.719-.015h0a1.076,1.076,0,0,1,0,2.153l-36.719.015Z" transform="translate(-203.676 -172.431)" fill="#8ebe39"/>
        <path id="Path_2151" data-name="Path 2151" d="M204.754,191.544a1.077,1.077,0,0,1,0-2.155l59.874-.025h0a1.076,1.076,0,1,1,0,2.153l-59.872.027Z" transform="translate(-203.674 -168.429)" fill="#8ebe39"/>
        <path id="Path_2152" data-name="Path 2152" d="M226.235,187.853a1.076,1.076,0,0,1,0-2.153l36.721-.017h0a1.076,1.076,0,1,1,0,2.153l-36.721.017Z" transform="translate(-180.255 -172.442)" fill="#8ebe39"/>
      </g>
      <rect id="Rectangle_133" data-name="Rectangle 133" width="33.903" height="33.903" rx="2.346" transform="translate(0.999 104.564)" fill="#f67d0f" opacity="0.47"/>
      <circle id="Ellipse_9" data-name="Ellipse 9" cx="7.316" cy="7.316" r="7.316" transform="translate(10.635 114.366)" fill="#f67d0f"/>
      <g id="Group_1796" data-name="Group 1796" transform="translate(39.733 109.835)" opacity="0.47">
        <rect id="Rectangle_134" data-name="Rectangle 134" width="21.517" height="6.081" rx="0.586" transform="translate(1.071)" fill="#8ebe39"/>
        <path id="Path_2153" data-name="Path 2153" d="M204.742,164.209a1.076,1.076,0,0,1,0-2.153l16.983-.008h0a1.076,1.076,0,0,1,0,2.153l-16.983.008Z" transform="translate(-203.666 -148.779)" fill="#8ebe39"/>
        <path id="Path_2154" data-name="Path 2154" d="M204.743,167.89a1.076,1.076,0,1,1,0-2.153l34.848-.017h0a1.078,1.078,0,0,1,0,2.155l-34.846.015Z" transform="translate(-203.665 -144.776)" fill="#8ebe39"/>
        <path id="Path_2155" data-name="Path 2155" d="M216.269,164.208a1.076,1.076,0,1,1,0-2.153l33.914-.015h0a1.076,1.076,0,1,1,0,2.153l-33.911.015Z" transform="translate(-191.103 -148.788)" fill="#8ebe39"/>
        <path id="Path_2156" data-name="Path 2156" d="M235.512,164.194a1.076,1.076,0,1,1,0-2.153l16.985-.006h0a1.076,1.076,0,1,1,0,2.153l-16.985.006Z" transform="translate(-170.12 -148.793)" fill="#8ebe39"/>
      </g>
    </g>
    <path id="Rectangle_135" data-name="Rectangle 135" d="M0,0H51.643a0,0,0,0,1,0,0V7.037A4.168,4.168,0,0,1,47.474,11.2H4.168A4.168,4.168,0,0,1,0,7.037V0A0,0,0,0,1,0,0Z" transform="translate(323.912 99.284)" fill="#cbd9ab"/>
    <g id="Group_1799" data-name="Group 1799" transform="translate(383.344 172.078)">
      <path id="Path_2157" data-name="Path 2157" d="M317.385,175.078" transform="translate(-133.281 -62.797)" fill="#fff" stroke="#133b90" stroke-miterlimit="10" stroke-width="1.61"/>
      <g id="Group_1798" data-name="Group 1798" transform="translate(0 120.428)">
        <path id="Path_2158" data-name="Path 2158" d="M485.534,327.629v.025a32.8,32.8,0,0,1-3.01,7.9c-11.816,21.6-63,18.055-63,18.055H302.7c-48.344,0-67.721-1.2-72.346-16.3a19.974,19.974,0,0,1-.635-2.569c-3.277-17.541,13.041-74.62,43.207-113.766,15.438-20.012,31.389-30.557,45.6-36.062a91.724,91.724,0,0,1,33.983-5.945c14.826,0,26.79,1.1,36.944,3.474,27.254,6.386,41.518,21.8,62.9,49.128C478.511,264.973,491.38,304.192,485.534,327.629Z" transform="translate(-229.306 -178.976)" fill="#0c1631"/>
        <path id="Path_2159" data-name="Path 2159" d="M253.592,282.933c12.677-19.938,16.663-47.6,20.185-75.67l11.011,57.086H380.2l17.533-57.086c-.414,26.681,3.248,52.849,15.9,77.883C413.641,285.146,351.251,355.747,253.592,282.933Z" transform="translate(-202.829 -148.137)" fill="#0c1631" opacity="0.22" style="mix-blend-mode: multiply;isolation: isolate"/>
        <path id="Path_2160" data-name="Path 2160" d="M308.9,286.155h-6.337c-48.344,0-67.721-1.2-72.346-16.3C227.7,258,230.9,245.517,245.361,241.8c22.656-5.823,62.094,17.125,62.094,17.125Z" transform="translate(-229.165 -111.518)" fill="#0c1631"/>
        <path id="Path_2161" data-name="Path 2161" d="M404.4,262.96s.025,0,0,.025a32.8,32.8,0,0,1-3.01,7.9c-11.816,21.6-63,18.055-63,18.055H303.725l4.4-29.359s61.458-28.454,83.477-19.573C402.37,244.343,405.673,253.345,404.4,262.96Z" transform="translate(-148.173 -114.307)" fill="#0c1631"/>
        <path id="Path_2162" data-name="Path 2162" d="M342.92,182.45c-1.028,13.726-6.705,38.729-34.35,38.729-29.14,0-35.3-24.637-36.576-36.259a91.724,91.724,0,0,1,33.983-5.945C320.8,178.976,332.766,180.078,342.92,182.45Z" transform="translate(-182.768 -178.976)" fill="#0c1631"/>
      </g>
      <path id="Path_2163" data-name="Path 2163" d="M378.9,267.624H266.972a4.893,4.893,0,0,1-4.893-4.893h0a4.893,4.893,0,0,1,4.893-4.893H378.9a4.893,4.893,0,0,1,4.893,4.893h0A4.893,4.893,0,0,1,378.9,267.624Z" transform="translate(-193.576 27.428)" fill="#fff"/>
      <path id="Path_2164" data-name="Path 2164" d="M396.244,225.911l-.414,2.544v.025l-11.6,71.807H270.148l-11.473-74.426a6.037,6.037,0,0,1,5.945-6.948H390.3A6.028,6.028,0,0,1,396.244,225.911Z" transform="translate(-197.365 -15.008)" fill="#8ebe39"/>
      <path id="Path_2165" data-name="Path 2165" d="M389.49,223.49l-11.6,71.807H264.42l38.46-4.013A103.44,103.44,0,0,0,389.49,223.49Z" transform="translate(-191.024 -10.018)" fill="#4d6a28"/>
      <path id="Path_2166" data-name="Path 2166" d="M326.281,157.317c-4.118-.771-8.231,2.349-9.874,7.172-.3-.2-.629-.433-.993-.719a14.283,14.283,0,0,1-4.686-6.139,13.4,13.4,0,0,1-.859-4.015c-.09-1.524-.159-3.073-.228-5.031l-.042.021a12.639,12.639,0,0,0-4.669,3.257c-.4.406-1.022-1.02-1.417-.625-5.625,5.671-11.007,6.356-19.673,6.956-1.085.075-2.094-.546-3.142-.819-.729-.592-1.413-1.16-2.05-1.754a35.524,35.524,0,0,0-.909,8.039,32.841,32.841,0,0,0,5.309,18.3l.159.228a20.536,20.536,0,0,0,11.991,8.729,6.066,6.066,0,0,1,1.014,4.787c-.127,1.072.021,2.186-.167,3.244-1.131,6.321-3.223,11.918-10.5,13.482-.8.171-.909,1.051-1.25,1.668.32,1.775.585,3.562.97,5.322,1.478,6.766,4.306,12.616,10.608,16.314,7.33,4.3,15.491,3.035,21.061-3.321,4.753-5.422,6.133-12.173,7.736-18.858-8.8-5.744-13.758-13.724-14.272-24.34-.033-.709-.184-1.428-.184-2.117a26.6,26.6,0,0,0,7.742-11.285,7.255,7.255,0,0,0,4.346,2.77c4.636.867,9.285-3.188,10.386-9.059S330.917,158.184,326.281,157.317Z" transform="translate(-176.504 -91.681)" fill="#a87362"/>
      <path id="Path_2167" data-name="Path 2167" d="M337.1,128.463c-5.148-4.532-11.523-5.146-17.9-2.05-6.354,3.1-9.45,8.2-9.519,15.281a42.694,42.694,0,0,0,1,8.572,35.417,35.417,0,0,0-12.284-4.212c-6.917-.943-14.33.673-19.665,5.173s-8.215,12.046-6.367,18.778c2.025,7.389,8.948,11.76,15.873,13.914,10.37,3.225,19.456-2.713,27.9-8.06.059,1.495.117,2.772.19,4.022a13.519,13.519,0,0,0,5.535,10.158c2.391,1.867,3.326,1.89,4.713-.228.113-.2.251-.41.387-.638.66-1.07,1.162-2.255,1.733-3.371a53.681,53.681,0,0,0,1.25-12.729c10.909-1.093,16.487-8.426,17.788-16.851C349.511,144.928,345.345,135.7,337.1,128.463Z" transform="translate(-182.967 -117.948)" fill="#0d1733"/>
      <ellipse id="Ellipse_10" data-name="Ellipse 10" cx="24.758" cy="28.451" rx="24.758" ry="28.451" transform="translate(119.262)" fill="#0d1733"/>
      <path id="Path_2168" data-name="Path 2168" d="M297.8,160.2a7.552,7.552,0,0,1-15.033-.75Z" transform="translate(-171.022 -79.832)" fill="#fff"/>
    </g>
  </g>
</svg>
