<svg width="55" height="35" viewBox="0 0 55 35" fill="none" xmlns="http://www.w3.org/2000/svg">
<path d="M34.8134 3.6593H19.9655V30.354H34.8134V3.6593Z" fill="#FF5F00"/>
<path d="M20.9513 16.9823C20.9581 14.4229 21.5442 11.8984 22.6658 9.5982C23.7874 7.29801 25.4153 5.28193 27.4272 3.70135C25.2985 2.03569 22.803 0.902699 20.1483 0.396638C17.4937 -0.109423 14.7567 0.0260753 12.1649 0.79186C9.57319 1.55765 7.20169 2.93158 5.24773 4.79935C3.29377 6.66712 1.81384 8.97473 0.931066 11.5302C0.0482917 14.0857 -0.211803 16.8151 0.172419 19.4914C0.556641 22.1677 1.57407 24.7136 3.14007 26.9171C4.70606 29.1207 6.77534 30.9182 9.17575 32.1602C11.5762 33.4022 14.2383 34.0527 16.9407 34.0577C20.7538 34.0465 24.4505 32.7423 27.4272 30.358C25.4032 28.7671 23.7681 26.7357 22.6461 24.418C21.524 22.1004 20.9444 19.5575 20.9513 16.9823Z" fill="#EB001B"/>
<path d="M53.2648 27.5343V26.9842H53.4923V26.8798H52.9235V26.9842H53.151V27.5343H53.2648ZM54.355 27.5343V26.8704H54.1843L53.9758 27.3257L53.7767 26.8704H53.606V27.5343H53.7293V27.0411L53.9189 27.4679H54.0421L54.2223 27.0316V27.5343H54.355Z" fill="#F79E1B"/>
<path d="M37.9143 0.0284596C34.1051 0.0345134 30.4097 1.32824 27.4277 3.69972C29.4418 5.2881 31.0697 7.31273 32.1889 9.62132C33.3082 11.9299 33.8896 14.4624 33.8896 17.0282C33.8896 19.5941 33.3082 22.1265 32.1889 24.4351C31.0697 26.7437 29.4418 28.7683 27.4277 30.3567C29.5565 32.0224 32.0519 33.1554 34.7066 33.6614C37.3613 34.1675 40.0983 34.032 42.6901 33.2662C45.2818 32.5004 47.6533 31.1265 49.6073 29.2587C51.5613 27.3909 53.0412 25.0833 53.924 22.5278C54.8068 19.9723 55.0669 17.2428 54.6827 14.5664C54.2984 11.8901 53.281 9.34422 51.715 7.14065C50.149 4.93708 48.0797 3.13952 45.6793 1.89751C43.2788 0.655498 40.6167 0.00495441 37.9143 0" fill="#F79E1B"/>
</svg>
