<svg width="68" height="42" viewBox="0 0 68 42" fill="none" xmlns="http://www.w3.org/2000/svg">
<path d="M43.0078 4.50391H24.7402V37.3467H43.0078V4.50391Z" fill="#FF5F00"/>
<path d="M25.9533 20.8928C25.9616 17.744 26.6827 14.6381 28.0626 11.8081C29.4425 8.97818 31.4453 6.49778 33.9205 4.55317C31.3016 2.5039 28.2314 1.10997 24.9653 0.487356C21.6993 -0.135256 18.3319 0.031449 15.1433 0.973602C11.9546 1.91575 9.03695 3.60611 6.63297 5.90405C4.22899 8.20199 2.40822 11.0411 1.32214 14.1851C0.23605 17.3291 -0.0839481 20.6871 0.388764 23.9798C0.861476 27.2726 2.11323 30.4047 4.03989 33.1158C5.96655 35.8268 8.5124 38.0383 11.4656 39.5664C14.4189 41.0944 17.6942 41.8948 21.0189 41.9009C25.7102 41.8872 30.2583 40.2826 33.9205 37.3491C31.4304 35.3918 29.4188 32.8925 28.0383 30.0411C26.6578 27.1897 25.9447 24.0611 25.9533 20.8928Z" fill="#EB001B"/>
<path d="M65.7082 33.8696V33.1928H65.9882V33.0644H65.2883V33.1928H65.5683V33.8696H65.7082ZM67.0496 33.8696V33.0527H66.8396L66.583 33.6129L66.3381 33.0527H66.1281V33.8696H66.2798V33.2628L66.513 33.7879H66.6647L66.8863 33.2511V33.8696H67.0496Z" fill="#F79E1B"/>
<path d="M46.8222 0.0350141C42.1357 0.0424622 37.5893 1.63415 33.9205 4.55181C36.3984 6.50601 38.4012 8.99692 39.7782 11.8372C41.1553 14.6775 41.8707 17.7932 41.8707 20.95C41.8707 24.1068 41.1553 27.2225 39.7782 30.0628C38.4012 32.903 36.3984 35.3939 33.9205 37.3481C36.5395 39.3974 39.6097 40.7914 42.8758 41.414C46.1418 42.0366 49.5093 41.8699 52.6979 40.9278C55.8866 39.9856 58.8043 38.2952 61.2083 35.9972C63.6123 33.6993 65.4331 30.8602 66.5192 27.7161C67.6053 24.5721 67.9253 21.214 67.4525 17.9212C66.9798 14.6285 65.7281 11.4963 63.8014 8.78522C61.8747 6.07414 59.3288 3.86258 56.3756 2.33452C53.4223 0.806465 50.147 0.00609546 46.8222 0" fill="#F79E1B"/>
</svg>
