<svg width="80" height="80" viewBox="0 0 80 80" fill="none" xmlns="http://www.w3.org/2000/svg">
<circle cx="40" cy="40" r="40" fill="#94DD34"/>
<path fill-rule="evenodd" clip-rule="evenodd" d="M54.6401 22C53.8278 22 52.6336 23.064 52.1488 23.5229L50.9812 24.6484C50.7805 24.838 50.5158 24.9431 50.2281 24.9431C49.9392 24.9431 49.6733 24.838 49.4738 24.6496L48.288 23.5205C47.4914 22.7657 46.1714 22 45.1887 22C44.2072 22 42.8872 22.7657 42.0906 23.5205L40.9011 24.6484C40.7017 24.838 40.4321 24.9431 40.1432 24.9431C39.8531 24.9431 39.5836 24.838 39.3841 24.6484L38.1947 23.5205C37.4187 22.7838 36.0672 22 35.0942 22C34.1223 22 32.7721 22.7838 31.9949 23.5205L30.8066 24.6484C30.606 24.838 30.3364 24.9431 30.0475 24.9431C29.7574 24.9431 29.4879 24.838 29.2872 24.6484L28.099 23.5205C28.0325 23.4589 26.4562 22 25.5037 22C24.4146 22 24 23.4492 24 24.6883V56.1117C24 57.352 24.4146 58.8 25.5037 58.8C26.42 58.8 27.8983 57.4353 28.0603 57.282L29.2703 56.1516C29.4697 55.9632 29.7441 55.8581 30.0354 55.8581C30.3267 55.8581 30.5987 55.9632 30.7994 56.1528L31.9912 57.2795C32.7685 58.0162 34.1187 58.8 35.093 58.8C36.066 58.8 37.4174 58.0162 38.1935 57.2795L39.3829 56.1516C39.5836 55.9632 39.8531 55.8581 40.1432 55.8581C40.4321 55.8581 40.7017 55.9632 40.9024 56.1516L42.0906 57.2795C42.8678 58.0162 44.218 58.8 45.1911 58.8C46.1642 58.8 47.5144 58.0162 48.2904 57.2795L49.4799 56.1516C49.6793 55.9632 49.9489 55.8581 50.239 55.8581C50.5291 55.8581 50.7986 55.9632 50.9981 56.1516L52.1875 57.2795C52.7859 57.8484 53.875 58.8 54.6401 58.8C55.5358 58.8 56 57.8447 56 56.1117V24.6883C56 22.9553 55.5358 22 54.6401 22Z" stroke="white" stroke-width="3" stroke-linecap="round" stroke-linejoin="round"/>
<path fill-rule="evenodd" clip-rule="evenodd" d="M46.3536 41.5704H33.3805C32.618 41.5704 32 40.9423 32 40.1686C32 39.3938 32.618 38.7657 33.3805 38.7657H46.3536C47.1161 38.7657 47.7341 39.3938 47.7341 40.1686C47.7341 40.9423 47.1161 41.5704 46.3536 41.5704ZM46.2775 34.5604H33.4566C32.6527 34.5604 32 33.8976 32 33.0802C32 32.2629 32.6527 31.6001 33.4566 31.6001H46.2775C47.0825 31.6001 47.7341 32.2629 47.7341 33.0802C47.7341 33.8976 47.0825 34.5604 46.2775 34.5604ZM42.2323 45.7768H46.2775C47.0825 45.7768 47.7341 46.4396 47.7341 47.257C47.7341 48.0743 47.0825 48.7371 46.2775 48.7371H42.2323C41.4273 48.7371 40.7745 48.0743 40.7745 47.257C40.7745 46.4396 41.4273 45.7768 42.2323 45.7768Z" fill="white"/>
</svg>
