<svg width="80" height="80" viewBox="0 0 80 80" fill="none" xmlns="http://www.w3.org/2000/svg">
<circle cx="40" cy="40" r="40" fill="#94DD34"/>
<path fill-rule="evenodd" clip-rule="evenodd" d="M52.16 30.56H27.84C27.1331 30.56 26.56 31.1331 26.56 31.84V48.48C26.56 49.1869 27.1331 49.76 27.84 49.76H52.16C52.8669 49.76 53.44 49.1869 53.44 48.48V31.84C53.44 31.1331 52.8669 30.56 52.16 30.56ZM27.84 28C25.7192 28 24 29.7192 24 31.84V48.48C24 50.6008 25.7192 52.32 27.84 52.32H52.16C54.2808 52.32 56 50.6008 56 48.48V31.84C56 29.7192 54.2808 28 52.16 28H27.84Z" fill="white"/>
<path fill-rule="evenodd" clip-rule="evenodd" d="M55.72 36.9584H25V34.3984H55.72V36.9584Z" fill="white"/>
</svg>
