<svg width="80" height="80" viewBox="0 0 80 80" fill="none" xmlns="http://www.w3.org/2000/svg">
<circle cx="40" cy="40" r="40" fill="#94DD34"/>
<path d="M49.0962 24.1241C48.5056 24.3745 48.1267 24.9576 48.1267 25.6152V30.7541H36.5727C35.7796 30.7541 35.1351 31.4174 35.1351 32.2338C35.1351 33.0501 35.7796 33.7116 36.5727 33.7116H49.1148C50.1548 33.7116 51.0018 32.8398 51.0018 31.7692V28.8595L58.0501 36.1147L51.0018 43.3698V40.462C51.0018 39.3914 50.1548 38.5197 49.1148 38.5197H42.6069H36.5727H31.051V33.3827C31.051 32.7251 30.6703 32.142 30.0834 31.8935C29.4983 31.6411 28.8279 31.7769 28.3747 32.2414L18.6278 42.2763C17.7901 43.1327 17.792 44.6373 18.6259 45.4919L28.3747 55.5267C28.8241 55.9894 29.4946 56.127 30.0834 55.8766C30.6721 55.6261 31.051 55.0411 31.051 54.3854V49.2485H42.6069C43.4 49.2485 44.0444 48.5851 44.0444 47.7688C44.0444 46.9525 43.4 46.2891 42.6069 46.2891H30.0629C29.0229 46.2891 28.176 47.1589 28.176 48.2314V51.1411L21.1276 43.886L28.176 36.6289V39.5386C28.176 40.6092 29.021 41.481 30.0629 41.481H36.5727H42.6069H48.1267V46.6179C48.1267 47.2736 48.5056 47.8586 49.0962 48.1091C49.685 48.3595 50.3536 48.2219 50.803 47.7592L60.5518 37.7244C60.9697 37.2942 61.2 36.7245 61.2 36.1147C61.2 35.5048 60.9697 34.9351 60.5518 34.5069L50.8012 24.4682C50.3499 24.0093 49.6794 23.8736 49.0962 24.1241Z" fill="white"/>
</svg>
