<svg width="80" height="80" viewBox="0 0 80 80" fill="none" xmlns="http://www.w3.org/2000/svg">
<circle cx="40" cy="40" r="40" fill="#94DD34"/>
<path fill-rule="evenodd" clip-rule="evenodd" d="M52.9303 36.6404C52.5465 36.4585 52.2508 36.1322 52.1078 35.7331L55.1348 34.6651C55.2753 35.065 55.2511 35.5042 55.0675 35.8864C54.8838 36.2686 54.5558 36.5625 54.1552 36.7039C53.7545 36.8452 53.3141 36.8224 52.9303 36.6404ZM29.7973 29.8309L30.9228 30.953C32.4561 29.4233 34.3531 28.3059 36.4365 27.7049C38.52 27.104 40.7222 27.0392 42.8376 27.5166C44.9528 27.9936 46.9124 28.9972 48.5334 30.4338C50.1545 31.8704 51.3842 33.6932 52.1078 35.7319L55.1348 34.6651C54.2299 32.1164 52.6925 29.8379 50.666 28.042C48.6394 26.246 46.1898 24.9913 43.5455 24.3947C40.9015 23.798 38.149 23.879 35.5448 24.6301C32.9446 25.3801 30.5769 26.7739 28.6621 28.6815L23.3504 33.6578V27.2941C23.3504 26.3675 22.6004 25.6164 21.6752 25.6164C20.75 25.6164 20 26.3675 20 27.2941V37.647C20 38.5736 20.75 39.3248 21.6752 39.3248H31.0725C31.9977 39.3248 32.7477 38.5736 32.7477 37.647C32.7477 36.7205 31.9977 35.9693 31.0725 35.9693H25.5713L30.8872 30.9879L30.8874 30.988C30.8918 30.9836 30.8965 30.9791 30.9013 30.9745C30.9086 30.9675 30.916 30.9604 30.9228 30.9533L29.8017 29.8355L29.7973 29.8309ZM29.8017 29.8355L29.7881 29.8219L30.8872 30.9879L30.8874 30.9878L29.8017 29.8355ZM29.7973 29.8309L28.6533 28.6903C28.6562 28.6874 28.6591 28.6844 28.6621 28.6815L28.6899 28.6555L29.7973 29.8309ZM56.6496 46.3363V52.7062C56.6496 53.6328 57.3996 54.3839 58.3248 54.3839C59.25 54.3839 60 53.6328 60 52.7062V42.3532C60 41.4266 59.25 40.6755 58.3248 40.6755H48.9275C48.0023 40.6755 47.2523 41.4266 47.2523 42.3532C47.2523 43.2798 48.0023 44.031 48.9275 44.031H54.4219L49.1054 49.0125L50.2355 50.2115L50.1492 50.1255L49.1003 49.0128C49.0891 49.024 49.0764 49.0358 49.0649 49.0479L49.0662 49.0491C47.5329 50.5778 45.6366 51.6945 43.5539 52.2952C41.4703 52.8961 39.2681 52.961 37.1526 52.4837C35.0375 52.0066 33.0781 51.0028 31.4571 49.5663C29.8361 48.1297 28.6064 46.307 27.8827 44.2684L24.8557 45.3364C25.7605 47.885 27.2979 50.1635 29.3245 51.9594C31.351 53.7553 33.8007 55.01 36.445 55.6064L36.4452 55.6054C39.0891 56.202 41.8415 56.121 44.4456 55.3699C47.0342 54.6232 49.3924 53.2384 51.3027 51.3437L51.304 51.3451L56.6496 46.3363ZM36.4452 55.6053L36.4623 55.53L37.1526 52.4837L36.5931 54.952L36.445 55.6053C36.445 55.6053 36.4451 55.6054 36.4452 55.6054L36.4452 55.6053ZM49.0662 49.0491L50.1999 50.1792L50.1492 50.1255L49.068 49.0473C49.0674 49.0479 49.0668 49.0485 49.0662 49.0491ZM51.3027 51.3437L50.2355 50.2115L51.3369 51.3098C51.3255 51.3211 51.3142 51.3324 51.3027 51.3437ZM27.0605 43.3599C27.4442 43.5418 27.74 43.8681 27.8829 44.2672L24.856 45.3352C24.7155 44.9353 24.7397 44.4961 24.9233 44.1139C25.1069 43.7317 25.435 43.4378 25.8356 43.2964C26.2362 43.1551 26.6767 43.1779 27.0605 43.3599Z" fill="white"/>
</svg>
