<svg width="80" height="80" viewBox="0 0 80 80" fill="none" xmlns="http://www.w3.org/2000/svg">
<circle cx="40" cy="40" r="40" fill="#94DD34"/>
<path fill-rule="evenodd" clip-rule="evenodd" d="M39.4436 25.1911C39.773 24.9363 40.227 24.9363 40.5564 25.1911L53.6321 35.307C53.8638 35.4862 54 35.7666 54 36.0643V51.9608C54 54.1081 52.2587 55.8 50.1698 55.8H29.8302C27.7424 55.8 26 54.1083 26 51.9608V36.0643C26 35.7666 26.1362 35.4862 26.3679 35.307L39.4436 25.1911ZM27.8486 36.537V51.9608C27.8486 53.0057 28.7089 53.9032 29.8302 53.9032H50.1698C51.2918 53.9032 52.1514 53.0059 52.1514 51.9608V36.537L40 27.1362L27.8486 36.537Z" fill="white" stroke="white" stroke-width="0.5" stroke-linecap="round" stroke-linejoin="round"/>
<path fill-rule="evenodd" clip-rule="evenodd" d="M34.4004 41.2933C34.4004 40.7999 34.839 40.3999 35.3801 40.3999H44.6207C45.1618 40.3999 45.6004 40.7999 45.6004 41.2933V54.9065C45.6004 55.3999 45.1618 55.7999 44.6207 55.7999C44.0796 55.7999 43.641 55.3999 43.641 54.9065V42.1867H36.3598V54.9065C36.3598 55.3999 35.9212 55.7999 35.3801 55.7999C34.839 55.7999 34.4004 55.3999 34.4004 54.9065V41.2933Z" fill="white" stroke="white" stroke-width="0.5" stroke-linecap="round" stroke-linejoin="round"/>
</svg>
