<svg width="100" height="56" viewBox="0 0 100 56" fill="none" xmlns="http://www.w3.org/2000/svg">
<path fill-rule="evenodd" clip-rule="evenodd" d="M18.9409 47.1171C18.0779 47.0452 17.1069 47.225 16.3877 47.7195V46.8654C16.3877 46.0833 17.035 45.4539 17.7992 45.4539H21.0806C21.5481 45.4539 21.9347 45.0674 21.9347 44.5999C21.9347 44.1234 21.5481 43.7368 21.0806 43.7368H17.7992C16.082 43.7368 14.6796 45.1483 14.6796 46.8744V51.9449C14.6796 54.0665 16.5945 55.1364 18.5004 55.1364C20.3973 55.1364 22.3122 54.0665 22.3122 51.9449V50.2997C22.3122 48.3308 20.73 47.279 18.9409 47.1171ZM20.6041 51.9359C20.6041 53.0327 19.3994 53.4282 18.5004 53.4282C17.5834 53.4282 16.3877 53.0327 16.3877 51.9359L16.3967 50.1019C16.5405 49.041 17.907 48.7354 18.7881 48.8073C19.6332 48.8882 20.5951 49.3107 20.5951 50.2817V51.9359H20.6041Z" fill="#94DD34"/>
<path fill-rule="evenodd" clip-rule="evenodd" d="M29.6932 53.5635C30.3765 54.4536 29.019 55.4874 28.3357 54.5974C27.9222 54.058 27.6884 53.3837 27.6884 52.7005V46.722C27.6884 44.6003 29.6033 43.5215 31.5092 43.5215C33.4062 43.5215 35.3301 44.6003 35.3301 46.722V52.7005C35.3301 53.4017 35.0873 54.0939 34.6468 54.6424C33.9456 55.5234 32.615 54.4536 33.3073 53.5815C33.5141 53.3298 33.613 53.0331 33.613 52.7005V46.722C33.613 45.6342 32.4083 45.2386 31.5092 45.2386C30.6012 45.2386 29.4055 45.6342 29.4055 46.722V52.7005C29.4055 53.0151 29.5044 53.3118 29.6932 53.5635Z" fill="#94DD34"/>
<path fill-rule="evenodd" clip-rule="evenodd" d="M46.4779 48.3941C46.4779 47.4411 45.6778 46.9646 44.8147 46.9557C44.0415 46.9557 43.2324 47.3512 43.2324 48.2323V48.5199C43.2324 48.9874 42.8458 49.374 42.3784 49.374C41.9109 49.374 41.5243 48.9874 41.5243 48.5199V48.2323C41.5243 46.3443 43.0796 45.2475 44.8327 45.2565C45.4081 45.2565 46.0104 45.4273 46.4869 45.8409V44.3575C46.4869 43.881 46.8734 43.5034 47.3409 43.5034C47.8174 43.5034 48.195 43.89 48.195 44.3575V51.9362C48.195 54.0579 46.2801 55.1277 44.3742 55.1277C42.4772 55.1277 40.5533 54.0489 40.5533 51.9362V51.217C40.5533 50.7405 40.9399 50.3629 41.4074 50.3629C41.8749 50.3629 42.2615 50.7495 42.2615 51.217V51.9362C42.2615 53.024 43.4662 53.4196 44.3652 53.4196C45.2732 53.4196 46.4689 53.024 46.4689 51.9362V48.3941H46.4779Z" fill="#94DD34"/>
<path fill-rule="evenodd" clip-rule="evenodd" d="M54.6949 44.4027C54.6949 43.9352 55.0815 43.5576 55.558 43.5576C56.0255 43.5666 56.4031 43.9532 56.4031 44.4207C56.3851 45.4096 57.1043 45.6703 57.8685 45.8771C59.4148 46.2906 61.06 46.7312 61.06 49.7519V51.9365C61.06 54.0492 59.1361 55.128 57.2392 55.128C55.3692 55.128 53.4183 54.0672 53.4183 51.9365V50.4531C53.4183 49.9766 53.8049 49.599 54.2724 49.599C54.7489 49.599 55.1265 49.9856 55.1265 50.4531V51.9365C55.1265 53.0243 56.3222 53.4199 57.2302 53.4199C58.1292 53.4199 59.3339 53.0333 59.3339 51.9365V49.7519C59.3339 48.0347 58.345 47.774 57.419 47.5223C55.9985 47.1537 54.659 46.7222 54.6949 44.4027Z" fill="#94DD34"/>
<path fill-rule="evenodd" clip-rule="evenodd" d="M66.2833 46.8654C66.2833 45.1393 67.6857 43.7368 69.4118 43.7368H72.6843C73.1608 43.7368 73.5383 44.1234 73.5383 44.5909C73.5383 45.0674 73.1518 45.445 72.6843 45.445H69.4118C68.6297 45.445 67.9914 46.0833 67.9914 46.8654V47.9712C68.5128 47.4408 69.3759 47.279 70.0951 47.279C71.992 47.279 73.9159 48.3578 73.9159 50.4705V52.736C73.9159 53.4372 73.6732 54.1295 73.2327 54.6779C72.5314 55.5589 71.2009 54.4981 71.8931 53.617C72.0999 53.3653 72.1988 53.0686 72.1988 52.736V50.4705C72.1988 49.3827 70.9941 48.9871 70.0951 48.9871C69.1871 48.9871 67.9914 49.3827 67.9914 50.4705V54.0216C67.9914 54.4981 67.6048 54.8757 67.1373 54.8757C66.6698 54.8757 66.2833 54.4981 66.2833 54.0216V46.8654Z" fill="#94DD34"/>
<path fill-rule="evenodd" clip-rule="evenodd" d="M82.9421 43.5396C80.9373 43.5396 79.1392 44.5914 79.1392 46.785V52.1252C79.1392 52.9882 79.4898 53.4647 80.0562 54.0401C80.6316 54.6065 81.4137 54.9571 82.2768 54.9571H85.0638C86.1875 54.9571 86.1875 53.249 85.0638 53.249H82.2768C81.0182 53.249 80.8294 52.3679 80.8653 51.5858V51.0643C81.4048 51.6487 82.142 51.7836 82.8881 51.7836C84.9199 51.7836 86.7629 50.7946 86.7629 48.5381V46.785C86.7539 44.5824 84.9469 43.5396 82.9421 43.5396ZM85.0728 48.5021C85.0728 49.6978 83.94 50.1294 82.9151 50.1294C81.9172 50.1294 80.8114 49.6529 80.8114 48.5021V46.8659C80.8114 45.6972 81.9262 45.2387 82.9331 45.2387C83.94 45.2387 85.0638 45.6882 85.0638 46.8659V48.5021H85.0728Z" fill="#94DD34"/>
<path fill-rule="evenodd" clip-rule="evenodd" d="M94.009 53.5995C94.6923 54.4895 93.3348 55.5234 92.6515 54.6334C92.238 54.085 92.0042 53.4197 92.0042 52.7364V46.722C92.0042 44.6003 93.9191 43.5215 95.825 43.5215C97.722 43.5215 99.6459 44.6003 99.6459 46.722V52.7364C99.6459 53.4377 99.4031 54.1299 98.9626 54.6783C98.2614 55.5594 96.9308 54.4985 97.6231 53.6175C97.8299 53.3657 97.9287 53.0691 97.9287 52.7364V46.722C97.9287 45.6342 96.7241 45.2386 95.825 45.2386C94.917 45.2386 93.7213 45.6342 93.7213 46.722V52.7364C93.7213 53.0511 93.8202 53.3478 94.009 53.5995Z" fill="#94DD34"/>
<path fill-rule="evenodd" clip-rule="evenodd" d="M7.43347 46.7938C7.46044 46.7938 7.50539 45.3104 6.3007 45.3104C5.71634 45.3284 5.32077 45.67 5.32077 46.2813L5.31178 47.8096C5.23986 48.2142 4.92521 48.5199 4.50267 48.5199C4.02619 48.5199 3.6486 48.1333 3.6486 47.6658V45.9037C3.53173 45.5261 2.95635 45.4542 2.63271 45.4542H1.49994C1.03245 45.4452 0.645874 45.0676 0.645874 44.5912C0.645874 44.1147 1.03245 43.7371 1.49994 43.7371C1.87753 43.7371 2.25512 43.7461 2.62372 43.7371C3.31596 43.7371 3.90032 43.8899 4.4757 44.2675C5.05107 43.8 5.73432 43.5663 6.48051 43.6022C7.54135 43.6562 8.54825 44.2855 8.9618 45.4452C9.14161 45.9756 9.11463 46.4072 9.14161 46.9556V51.4147C9.14161 53.7612 7.50539 54.9209 5.32077 54.9209C3.42384 54.9209 1.49994 53.8421 1.49994 51.7294V50.1111C1.49994 49.6347 1.88652 49.2571 2.35401 49.2571C2.8215 49.2571 3.20808 49.6437 3.20808 50.1111V51.7294C3.20808 52.8172 4.41276 53.2128 5.31178 53.2128C6.36364 53.2128 7.38852 52.8172 7.41549 51.6035V46.7938H7.43347Z" fill="#94DD34"/>
<path fill-rule="evenodd" clip-rule="evenodd" d="M77.8537 36.4822H41.3715V0H59.6126C69.6456 0 77.8537 8.20805 77.8537 18.2411V36.4822Z" fill="#94DD34"/>
<path fill-rule="evenodd" clip-rule="evenodd" d="M1.10437 0H37.5866V36.4822H19.3455C9.31241 36.4822 1.10437 28.2742 1.10437 18.2411V0V0Z" fill="#94DD34"/>
<path fill-rule="evenodd" clip-rule="evenodd" d="M81.3508 0C91.4738 0 99.6369 8.35189 99.6369 18.2411V36.3743H81.3508V0Z" fill="#94DD34"/>
</svg>
