<svg width="99" height="56" viewBox="0 0 99 56" fill="none" xmlns="http://www.w3.org/2000/svg">
<path fill-rule="evenodd" clip-rule="evenodd" d="M81.8587 53.4567C80.8924 53.2648 79.8899 52.1502 78.9958 51.1452L78.6436 50.7614H79.5558C81.0098 50.7614 81.931 49.8387 82.3193 48.6601C82.4638 48.2398 82.5361 47.783 82.5361 47.3353C82.5361 46.8876 82.4638 46.4399 82.3193 46.0105C81.931 44.832 81.0098 43.9092 79.5558 43.9092H74.7151C74.6428 43.9092 74.5706 43.9183 74.4983 43.9366C74.4351 43.9183 74.3628 43.9092 74.2816 43.9092C73.83 43.9092 73.4597 44.2838 73.4597 44.7406V54.2241C73.4597 54.6809 73.83 55.0555 74.2816 55.0555C74.7422 55.0555 75.1034 54.6809 75.1034 54.2241V50.7523H76.1239C76.422 50.7523 77.0632 51.4649 77.7676 52.2598C78.8333 53.4475 80.0254 54.7997 81.5607 55.0921C82.0032 55.1743 82.4367 54.8728 82.518 54.4251C82.6083 53.9774 82.3193 53.5389 81.8587 53.4567ZM75.1034 49.0895V45.5811H79.5558C80.1789 45.5811 80.5763 46.0105 80.766 46.5404C80.8472 46.7871 80.8924 47.0612 80.8924 47.3353C80.8924 47.6185 80.8472 47.8926 80.766 48.1302C80.5763 48.6692 80.1789 49.0895 79.5558 49.0895H75.1034V49.0895Z" fill="#94DD34"/>
<path fill-rule="evenodd" clip-rule="evenodd" d="M48.1092 51.5283C48.3079 51.1172 48.8046 50.9436 49.211 51.1537C49.6174 51.3547 49.789 51.8572 49.5813 52.2684C49.1658 53.1181 48.5698 53.8216 47.8473 54.3149C47.1338 54.8083 46.3029 55.0915 45.4179 55.0915C44.0722 55.0915 42.853 54.4428 41.977 53.3921C41.1371 52.3872 40.6133 50.9984 40.6133 49.4818C40.6133 47.9652 41.1371 46.5764 41.977 45.5714C42.853 44.5208 44.0632 43.8721 45.4179 43.8721C46.2217 43.8721 46.9893 44.1096 47.6576 44.5208C48.335 44.941 48.913 45.5349 49.3464 46.2658C49.5813 46.6587 49.4548 47.1703 49.0665 47.4078C48.6781 47.6454 48.1724 47.5175 47.9376 47.1246C47.6396 46.6312 47.2422 46.2201 46.7906 45.9369C46.3752 45.6811 45.9056 45.5349 45.4088 45.5349C44.5689 45.5349 43.7923 45.9552 43.2323 46.6312C42.6363 47.353 42.266 48.3489 42.266 49.4727C42.266 50.5873 42.6363 51.5923 43.2323 52.3141C43.7923 52.9901 44.5689 53.4104 45.4088 53.4104C45.9597 53.4104 46.4745 53.2368 46.9171 52.9262C47.4138 52.6064 47.8202 52.1222 48.1092 51.5283Z" fill="#94DD34"/>
<path fill-rule="evenodd" clip-rule="evenodd" d="M7.22496 44.7865C7.22496 44.3205 7.59524 43.9551 8.0468 43.9551C8.49836 43.9551 8.86864 44.3297 8.86864 44.7865V50.515C8.86864 51.7484 8.37192 52.8722 7.56815 53.6853C6.76437 54.4984 5.65353 55.0009 4.43432 55.0009C3.21511 55.0009 2.10427 54.4984 1.30049 53.6853C0.496716 52.8722 0 51.7484 0 50.515V44.7865C0 44.3205 0.370279 43.9551 0.821839 43.9551C1.28243 43.9551 1.64368 44.3297 1.64368 44.7865V50.515C1.64368 51.2916 1.95977 51.9951 2.46552 52.5067C2.97126 53.0183 3.66667 53.3381 4.43432 53.3381C5.20197 53.3381 5.89737 53.0183 6.40312 52.5067C6.90887 51.9859 7.22496 51.2824 7.22496 50.515V44.7865Z" fill="#94DD34"/>
<path fill-rule="evenodd" clip-rule="evenodd" d="M97.6362 45.4622C96.7963 44.6126 95.6403 44.0918 94.3669 44.0918H90.5648C90.1132 44.0918 89.7429 44.4664 89.7429 44.9232V54.1601C89.7429 54.6169 90.1132 54.9915 90.5648 54.9915H94.3669C95.6403 54.9915 96.7963 54.4707 97.6362 53.6119C98.4761 52.7622 98.9999 51.5927 98.9999 50.3137V48.7696C98.9909 47.4905 98.4671 46.3211 97.6362 45.4622ZM97.3472 50.3228C97.3472 51.1451 97.004 51.9034 96.4712 52.4424C95.9383 52.9997 95.1887 53.3286 94.3669 53.3286H91.3956V45.7637H94.3669C95.1887 45.7637 95.9383 46.1018 96.4712 46.6408C97.004 47.1982 97.3472 47.9473 97.3472 48.7696V50.3228Z" fill="#94DD34"/>
<path fill-rule="evenodd" clip-rule="evenodd" d="M66.2076 53.9774L62.261 44.43C62.1797 44.2198 62.0171 44.0554 61.8094 43.9731C61.385 43.8087 60.8973 44.0188 60.7347 44.43L56.9235 53.9866C56.761 54.416 56.9687 54.9093 57.3841 55.0738C57.8086 55.2383 58.2782 55.0464 58.4498 54.617L59.3981 52.2415H63.706L64.6904 54.6261C64.862 55.0464 65.3406 55.2565 65.7651 55.0738C66.1805 54.8911 66.3792 54.4068 66.2076 53.9774ZM60.0574 50.5696L61.5024 46.9333L63.0106 50.5696H60.0574Z" fill="#94DD34"/>
<path fill-rule="evenodd" clip-rule="evenodd" d="M33.4337 54.2241C33.4337 54.6809 33.0634 55.0555 32.6119 55.0555C32.1603 55.0555 31.79 54.6809 31.79 54.2241V44.7406C31.79 44.2838 32.1603 43.9092 32.6119 43.9092C33.0725 43.9092 33.4337 44.2838 33.4337 44.7406V54.2241Z" fill="#94DD34"/>
<path fill-rule="evenodd" clip-rule="evenodd" d="M17.7194 54.2239C17.7194 54.6807 17.3491 55.0553 16.8975 55.0553C16.4369 55.0553 16.0757 54.6807 16.0757 54.2239V44.7404C16.0757 44.2836 16.446 43.909 16.8975 43.909C17.1956 43.909 17.4484 44.0643 17.5929 44.3018L22.9484 51.6292V44.6947C22.9484 44.2379 23.3187 43.8633 23.7703 43.8633C24.2218 43.8633 24.5921 44.2379 24.5921 44.6947V54.1508C24.5921 54.4066 24.4747 54.6533 24.258 54.8178C23.8967 55.0919 23.3729 55.0188 23.102 54.6442L17.7103 47.2711V54.2239H17.7194Z" fill="#94DD34"/>
<path fill-rule="evenodd" clip-rule="evenodd" d="M76.72 36.5454H40.5229V0H58.6215C68.5739 0 76.72 8.22454 76.72 18.2727V36.5454V36.5454Z" fill="#94DD34"/>
<path fill-rule="evenodd" clip-rule="evenodd" d="M0.578125 0H36.7752V36.5454H18.6766C8.72427 36.5454 0.578125 28.3209 0.578125 18.2727V0V0Z" fill="#94DD34"/>
<path fill-rule="evenodd" clip-rule="evenodd" d="M80.188 0C90.2307 0 98.3317 8.36131 98.3317 18.2727V36.436H80.188V0Z" fill="#94DD34"/>
</svg>
