<svg id="Layer_1" data-name="Layer 1" xmlns="http://www.w3.org/2000/svg" viewBox="0 0 200 105.95"><defs><style>.cls-1,.cls-2{fill:#93dc34;}.cls-1{fill-rule:evenodd;}</style></defs><title>ლოგო ინგლისური</title><path class="cls-1" d="M155.75,74h-74V0h37a37.09,37.09,0,0,1,37,37Z"/><path class="cls-1" d="M.17,0h74V74h-37a37.09,37.09,0,0,1-37-37Z"/><path class="cls-1" d="M162.84,0a37.24,37.24,0,0,1,37.08,37V74H162.84Z"/><polygon class="cls-1" points="51.56 89.84 46.39 99.61 46.39 105.95 44.14 105.95 44.14 99.63 38.97 89.84 41.36 89.84 45.34 97.49 49.32 89.84 51.56 89.84"/><path class="cls-2" d="M22.7,100.11l2.53-8.42,2.5,8.42ZM29.48,106h2.34L26.68,89.84H23.87L18.71,106H21l1.22-4h6.1Z"/><path class="cls-2" d="M5.13,89.86l-.63,0H.17V106H2.39V99.2H4.93a9,9,0,0,0,2.21-.29,4.3,4.3,0,0,0,3.46-4.5C10.6,90.91,7.75,90,5.13,89.86ZM2.39,91.57h2c2.63,0,3.78.82,3.78,2.83,0,2.18-1.29,3-3.53,3H2.39Z"/><path class="cls-2" d="M96.46,89.84H94.38v8.79c0,2,.26,4.54.31,4.91l-6.62-13.7h-2.9V106h2.08V98.56c0-3-.18-5-.3-6.29L93.5,106h3Z"/><rect class="cls-2" x="109.31" y="89.84" width="2.22" height="16.11"/><path class="cls-2" d="M129.27,89.84c-3.52,0-6.46,2.78-6.46,8s2.73,8.06,6.51,8.06a6.13,6.13,0,0,0,4.45-1.74l-1.07-1.35a5.29,5.29,0,0,1-3.32,1.28c-2.41,0-4.29-1.76-4.29-6.25,0-4.7,2-6.28,4.32-6.28a4.57,4.57,0,0,1,3,1.15l1.18-1.38a6.17,6.17,0,0,0-4.32-1.54"/><path class="cls-2" d="M147.43,100.11,150,91.69l2.5,8.42Zm6.78,5.84h2.33L151.4,89.84h-2.8L143.43,106h2.24l1.22-4H153Z"/><path class="cls-2" d="M168.4,97.42V91.57h2c2.64,0,3.79.82,3.79,2.83,0,2.18-1.29,3-3.53,3Zm6.35,8.53h2.65l-4.35-7.22c2.31-.7,3.48-2.06,3.48-4.33,0-3-2.1-4.56-6.12-4.56h-4.23V106h2.22V99.12h2.5Z"/><path class="cls-2" d="M192.34,91.62c2.57,0,5.22.75,5.22,6.19s-2.53,6.39-5.05,6.39h-1.8V91.62Zm-.49-1.78h-3.36V106h3.85c3.49,0,7.58-1.57,7.58-8.14S196,89.84,191.85,89.84Z"/><path class="cls-2" d="M72.51,89.84H70.3v10.59c0,2.46-1.08,3.68-3.35,3.68s-3.33-1.22-3.33-3.68V89.84H61.43v10.75c0,3.15,1.91,5.36,5.52,5.36s5.56-2.21,5.56-5.36Z"/></svg>