<svg id="Layer_1" data-name="Layer 1" xmlns="http://www.w3.org/2000/svg" viewBox="0 0 200 105.95"><defs><style>.cls-1,.cls-2{fill:#93dc34;}.cls-1{fill-rule:evenodd;}</style></defs><title>ლოგო ქართული</title><path class="cls-1" d="M155.78,74.05h-74V0h37a37.13,37.13,0,0,1,37,37Z"/><path class="cls-1" d="M0,0H74.05V74.05H37A37.13,37.13,0,0,1,0,37Z"/><path class="cls-1" d="M162.89,0A37.28,37.28,0,0,1,200,37v37H162.89Z"/><path class="cls-1" d="M78,94.22v7.6c0,3,2.7,4.44,5.37,4.44s5.36-1.49,5.36-4.44V99.33c0-2.73-2.22-4.16-4.72-4.4a5.57,5.57,0,0,0-3.6.84l-.55.39v-2a2.49,2.49,0,0,1,2.49-2.5h4.9a.93.93,0,0,0,.84-1,.92.92,0,0,0-.84-.83h-4.9A4.34,4.34,0,0,0,78,94.17m1.85,7.6V99c.24-1.81,2.45-2.37,4-2.23s3,.89,3,2.56v2.5c0,1.85-1.95,2.58-3.52,2.58s-3.52-.7-3.51-2.56Z"/><path class="cls-1" d="M98.87,104.84a2.53,2.53,0,0,1-.51-1.52V94.26c0-1.85,2-2.58,3.52-2.58s3.51.73,3.51,2.58v9a2.37,2.37,0,0,1-.53,1.53.94.94,0,0,0,.25,1.29.93.93,0,0,0,1.19-.14,4.29,4.29,0,0,0,.94-2.68v-9c0-2.94-2.69-4.42-5.36-4.42s-5.36,1.47-5.36,4.42v9.06a4.32,4.32,0,0,0,.89,2.63.92.92,0,0,0,1.46-1.11"/><path class="cls-1" d="M124,96.8v5c0,1.85-2,2.58-3.52,2.58s-3.52-.73-3.52-2.58v-1a.92.92,0,1,0-1.84,0v1.07c0,3,2.7,4.43,5.36,4.43s5.37-1.48,5.37-4.43V90.75a.93.93,0,0,0-1.85,0v3l-.6-.51a3.36,3.36,0,0,0-2.24-.83c-2.46,0-4.59,1.5-4.59,4.11V97a.92.92,0,0,0,1.84,0h0v-.43c0-1.53,1.37-2.28,2.74-2.27A2.59,2.59,0,0,1,124,96.75"/><path class="cls-1" d="M135.54,90.69c0,2.93,1.31,3.66,3.83,4.33,2.08.56,3.13,1.3,3.13,3.68v3.13c0,1.86-1.95,2.58-3.51,2.58s-3.52-.72-3.52-2.58V99.61a.92.92,0,0,0-1.84,0v2.22c0,2.94,2.7,4.43,5.36,4.43s5.36-1.49,5.36-4.43V98.7c0-3.66-1.38-4.62-4.52-5.46-1.38-.37-2.49-.9-2.49-2.5a.92.92,0,0,0-.92-.91.85.85,0,0,0-.88.86Z"/><path class="cls-1" d="M152.18,94.16v11.17a.92.92,0,1,0,1.84,0h0v-5.4c0-1.86,2-2.59,3.52-2.59s3.52.73,3.52,2.59v3.35a2.47,2.47,0,0,1-.54,1.54.91.91,0,0,0,.25,1.28A.93.93,0,0,0,162,106a4.36,4.36,0,0,0,.95-2.68V99.93c0-3-2.71-4.44-5.37-4.44a4.18,4.18,0,0,0-2.9.94l-.62.63V94.19a2.5,2.5,0,0,1,2.5-2.5h4.9a.93.93,0,0,0,0-1.85h-4.91a4.33,4.33,0,0,0-4.33,4.33"/><path class="cls-1" d="M170.73,94.35v8A3.34,3.34,0,0,0,172,105a4.3,4.3,0,0,0,3.06,1.28h4.16a.93.93,0,0,0,0-1.85h-4.16c-1.87,0-2.56-1.18-2.5-2.87V99.85l.62.66a3.64,3.64,0,0,0,2.78.95c2.86,0,5.44-1.34,5.44-4.51v-2.6c0-3.1-2.49-4.51-5.35-4.51s-5.33,1.43-5.33,4.51M176,99.68c-1.7,0-3.51-.83-3.51-2.8V94.45c0-2,1.83-2.79,3.55-2.79s3.56.83,3.56,2.79v2.43c0,2-1.85,2.8-3.59,2.8Z"/><path class="cls-1" d="M191.63,104.81a2.36,2.36,0,0,1-.51-1.51l0-9c0-1.86,2-2.59,3.52-2.59s3.51.74,3.51,2.59l0,9a2.36,2.36,0,0,1-.54,1.54.92.92,0,0,0,1.44,1.14,4.3,4.3,0,0,0,.95-2.68l0-9c0-3-2.7-4.43-5.36-4.43s-5.37,1.48-5.37,4.43l0,9a4.28,4.28,0,0,0,.9,2.62.92.92,0,0,0,1.46-1.12"/><path class="cls-1" d="M64.39,95.71V93.45a1.74,1.74,0,0,1,1.66-1.82h.16A2.22,2.22,0,0,1,68.27,94a1.52,1.52,0,0,1,0,.21v7.45c0,2-1.73,2.76-3.51,2.76-1.57,0-3.52-.73-3.52-2.58V99.4a.93.93,0,0,0-1.85,0v2.43c0,3,2.7,4.43,5.37,4.43,3.12,0,5.36-1.61,5.36-4.9V94.49a7.52,7.52,0,0,0-.26-2.16,3.69,3.69,0,0,0-3.39-2.49,3.92,3.92,0,0,0-2.76.92l-.21.16-.22-.14A4.45,4.45,0,0,0,60.67,90H59a.93.93,0,0,0,0,1.85h1.66c.69,0,1.67.19,1.87.93v2.76a.91.91,0,0,0,.93.91h.07a.88.88,0,0,0,.83-.73"/><path class="cls-2" d="M51.51,94.17v9.15a4.43,4.43,0,0,1-.9,2.62.94.94,0,0,1-.66.31h-.06a.94.94,0,0,1-.77-1.46,2.39,2.39,0,0,0,.51-1.47V94.17c0-2-2.2-2.46-3.36-2.46s-3.34.51-3.34,2.46v9.16a2.45,2.45,0,0,0,.47,1.43.89.89,0,0,1,.19.69.93.93,0,0,1-.93.81.91.91,0,0,1-.74-.37,4.3,4.3,0,0,1-.87-2.56V94.17c0-2.85,2.63-4.34,5.22-4.34S51.51,91.32,51.51,94.17Z"/><path class="cls-2" d="M12.79,96.63a.31.31,0,0,0-.12,0l-.78-.25.66-.49a2.39,2.39,0,0,0,1-1.77V91.89a1.8,1.8,0,0,0-.54-1,4.68,4.68,0,0,0-3.22-1.07,4.28,4.28,0,0,0-2.87,1l-.29.28-.28-.27a3.69,3.69,0,0,0-2.51-1H3.48C2.89,89.83,0,90,0,92.75v1.72c0,2.65,2.71,2.9,3.54,2.91h.13a3.67,3.67,0,0,0,2.63-.94,2.64,2.64,0,0,0,.77-2v-.58l.07-.66a2.22,2.22,0,0,1,2.2-2h.29a2,2,0,0,1,2,2c0,.17,0,.31,0,.45a2,2,0,0,1-.51,1.73l-.07.07-.1,0a5,5,0,0,1-1.58.25,4.16,4.16,0,0,1-.61,0c-.53,0-.59.68-.59.76,0,.34.11.87.54.94h1.7a1.42,1.42,0,0,1,1.2,1.1v0a28.61,28.61,0,0,1,0,3.34c0,1.93-2.18,2.45-3.33,2.45s-3.32-.52-3.32-2.47v-.45a.95.95,0,1,0-1.89,0v.45c0,2.9,2.61,4.41,5.19,4.41s5.2-1.5,5.2-4.37V98.61C13.63,98.18,13.68,96.93,12.79,96.63Zm-7-2.49c0,1.11-.74,1.68-2.23,1.7H3.16v0a1.69,1.69,0,0,1-1.85-1.75v-1c0-.7.29-1.87,2.17-1.87h.11a2,2,0,0,1,2.22,2Z"/><path class="cls-2" d="M32.58,98.69c0,.63,0,1.6,0,3.2,0,2.86-2.6,4.36-5.18,4.36s-5.19-1.5-5.19-4.36v-.45a.95.95,0,1,1,1.89,0v.45c0,2,2.18,2.47,3.33,2.47s3.33-.52,3.33-2.47v-7.7c0-2-2.17-2.46-3.32-2.46s-3.33.51-3.33,2.46v.46a.95.95,0,1,1-1.89,0v-.46c0-2.86,2.61-4.36,5.19-4.36s5.18,1.5,5.18,4.35C32.57,96.83,32.58,97.66,32.58,98.69Z"/></svg>