<svg width="111" height="59" viewBox="0 0 111 59" fill="none" xmlns="http://www.w3.org/2000/svg">
<path fill-rule="evenodd" clip-rule="evenodd" d="M86.4559 41.116H45.3762V0H65.9076C77.2439 0.0324125 86.425 9.21749 86.4574 20.5588V41.116H86.4559Z" fill="#94DD34"/>
<path fill-rule="evenodd" clip-rule="evenodd" d="M0 0H41.0981V41.116H20.5498C9.21503 41.0821 0.0339412 31.8985 0 20.5588V0Z" fill="#94DD34"/>
<path fill-rule="evenodd" clip-rule="evenodd" d="M90.4009 0C101.737 0.0509339 110.921 9.21749 111 20.5588V41.1176H90.4009V0Z" fill="#94DD34"/>
<path fill-rule="evenodd" clip-rule="evenodd" d="M43.2673 52.3149V56.5362C43.2673 58.1754 44.7685 58.998 46.2449 58.998C47.7229 58.998 49.2225 58.1754 49.2225 56.5362V55.1502C49.2225 53.6345 47.9898 52.8412 46.5997 52.7115C45.9024 52.6344 45.1989 52.7964 44.6049 53.173L44.2964 53.3907V52.2964C44.2964 51.5308 44.9166 50.9103 45.6818 50.9103H48.4017C48.6856 50.8841 48.8939 50.631 48.8676 50.347C48.8445 50.1 48.6486 49.904 48.4017 49.8809H45.6818C44.355 49.8855 43.2812 50.9597 43.2766 52.2871L43.2673 52.3149ZM44.3072 56.5084V54.9526C44.4414 53.9509 45.6648 53.6361 46.518 53.7148C47.3727 53.7935 48.2027 54.2087 48.2027 55.1379V56.5239C48.2027 57.5534 47.1181 57.9608 46.2495 57.9608C45.3809 57.9608 44.2917 57.5688 44.2964 56.5378L44.3072 56.5084Z" fill="#94DD34"/>
<path fill-rule="evenodd" clip-rule="evenodd" d="M54.8737 58.2089C54.6901 57.9666 54.5914 57.6718 54.5914 57.3677V52.3361C54.5914 51.3112 55.6713 50.9038 56.5445 50.9038C57.4178 50.9038 58.4931 51.3097 58.4931 52.3361V57.3415C58.4962 57.6517 58.3912 57.9527 58.1969 58.1966C58.038 58.4312 58.0997 58.7507 58.3342 58.9081C58.5424 59.0486 58.8232 59.0177 58.9945 58.834C59.3308 58.4096 59.5144 57.8832 59.5159 57.3415V52.3361C59.5159 50.7016 58.0194 49.8789 56.543 49.8789C55.065 49.8789 53.5654 50.6969 53.5654 52.3361V57.3677C53.567 57.8956 53.7398 58.408 54.0591 58.8278C54.2489 59.0377 54.5729 59.0547 54.7827 58.8633C54.9709 58.6966 55.0079 58.4204 54.8737 58.2089Z" fill="#94DD34"/>
<path fill-rule="evenodd" clip-rule="evenodd" d="M68.7928 53.7485V56.5175C68.7928 57.5423 67.7082 57.9498 66.8396 57.9498C65.971 57.9498 64.8865 57.5439 64.8865 56.5175V55.9448C64.8865 55.6624 64.6566 55.4324 64.3743 55.4324C64.0919 55.4324 63.8621 55.6624 63.8621 55.9448V56.5406C63.8621 58.1798 65.3632 58.9978 66.8396 58.9978C68.3176 58.9978 69.8172 58.1798 69.8172 56.5406V50.3884C69.8172 50.106 69.5873 49.876 69.305 49.876C69.0227 49.876 68.7928 50.106 68.7928 50.3884V52.0615L68.4611 51.7744C68.1155 51.475 67.6727 51.3114 67.2145 51.3129C65.8522 51.3129 64.6658 52.1495 64.6658 53.5942V53.8349C64.6658 54.1174 64.8957 54.3474 65.1781 54.3474C65.4604 54.3474 65.6903 54.1174 65.6903 53.8349V53.5942C65.6903 52.7483 66.4478 52.3285 67.2084 52.3332C68.0445 52.3332 68.7912 52.8271 68.7912 53.7192" fill="#94DD34"/>
<path fill-rule="evenodd" clip-rule="evenodd" d="M75.2245 50.3575C75.2245 51.9828 75.9496 52.3856 77.3489 52.7591C78.5029 53.0678 79.0892 53.4846 79.0892 54.8058V56.5421C79.0892 57.5716 78.0092 57.9745 77.1407 57.9745C76.2721 57.9745 75.1875 57.5732 75.1875 56.5421V55.3089C75.1875 55.0265 74.9576 54.7965 74.6753 54.7965C74.393 54.7965 74.1631 55.0265 74.1631 55.3089V56.5421C74.1631 58.1767 75.6642 58.9993 77.1407 58.9993C78.6186 58.9993 80.1136 58.1767 80.1136 56.5421V54.8058C80.1136 52.773 79.3468 52.2375 77.6066 51.7713C76.8398 51.5676 76.2212 51.2728 76.2212 50.3853C76.2212 50.1044 75.9944 49.8775 75.7136 49.876C75.4343 49.876 75.2245 50.0766 75.2245 50.3575Z" fill="#94DD34"/>
<path fill-rule="evenodd" clip-rule="evenodd" d="M84.4565 52.2821V58.4852C84.4565 58.7676 84.6864 58.9976 84.9687 58.9976C85.2511 58.9976 85.4809 58.7676 85.4809 58.4852V55.4847C85.4809 54.4552 86.5655 54.0478 87.4341 54.0478C88.3027 54.0478 89.3873 54.4537 89.3873 55.4847V57.343C89.3888 57.6533 89.2824 57.9558 89.0864 58.1981C88.9275 58.4327 88.9892 58.7522 89.2237 58.9096C89.432 59.0501 89.7128 59.0192 89.884 58.8356C90.2219 58.4111 90.4086 57.8863 90.4101 57.343V55.4847C90.4101 53.8456 88.909 53.0229 87.4326 53.0229C86.8494 52.9874 86.2755 53.1726 85.8219 53.54L85.4809 53.8903V52.2944C85.4809 51.5289 86.1011 50.9084 86.8664 50.9084H89.5863C89.8702 50.8821 90.0784 50.629 90.0522 50.345C90.0291 50.0981 89.8331 49.9021 89.5863 49.8789H86.8617C85.5349 49.8835 84.4612 50.9578 84.4565 52.2851" fill="#94DD34"/>
<path fill-rule="evenodd" clip-rule="evenodd" d="M94.7562 52.3884V56.8459C94.7577 57.4108 95.0184 57.9433 95.4628 58.2921C95.9117 58.7443 96.5242 58.999 97.1614 58.999H99.4694C99.7517 58.999 99.9816 58.769 99.9816 58.4866C99.9816 58.2041 99.7517 57.9742 99.4694 57.9742H97.1614C96.1231 57.9742 95.7436 57.3182 95.776 56.3813C95.776 56.2424 95.776 56.0989 95.776 55.9615V55.446L96.1169 55.8102C96.5335 56.1946 97.0935 56.3859 97.6581 56.3366C99.2457 56.3366 100.682 55.5926 100.682 53.8331V52.3899C100.682 50.6675 99.2966 49.8818 97.7091 49.8818C96.1215 49.8818 94.75 50.6767 94.75 52.3899L94.7562 52.3884ZM97.6936 55.3457C96.7479 55.3457 95.7451 54.8842 95.7451 53.7945V52.444C95.7451 51.3543 96.7556 50.8928 97.7121 50.8928C98.6687 50.8928 99.6884 51.3543 99.6884 52.444V53.7945C99.6931 54.9119 98.664 55.3457 97.6983 55.3457H97.6936Z" fill="#94DD34"/>
<path fill-rule="evenodd" clip-rule="evenodd" d="M106.355 58.1954C106.166 57.9577 106.066 57.6629 106.068 57.3589L106.057 52.3427C106.057 51.3132 107.142 50.9057 108.01 50.9057C108.879 50.9057 109.963 51.3163 109.963 52.3427L109.974 57.345C109.977 57.6568 109.871 57.9577 109.673 58.2001C109.514 58.4347 109.576 58.7542 109.811 58.9116C110.019 59.052 110.3 59.0212 110.471 58.8375C110.809 58.4131 110.995 57.8883 110.997 57.345L110.986 52.3427C110.986 50.7035 109.485 49.8809 108.009 49.8809C106.532 49.8809 105.031 50.7035 105.031 52.3427L105.042 57.3543C105.045 57.8821 105.219 58.3945 105.54 58.8144C105.722 59.032 106.045 59.0613 106.262 58.8792C106.467 58.7079 106.506 58.4084 106.353 58.1908" fill="#94DD34"/>
<path fill-rule="evenodd" clip-rule="evenodd" d="M35.7386 53.1416V51.8852C35.7155 51.3527 36.1274 50.9021 36.6596 50.8789C36.689 50.8774 36.7198 50.8774 36.7491 50.8789C37.4264 50.9252 37.9355 51.5133 37.8892 52.1893C37.8862 52.2279 37.8815 52.268 37.8754 52.3066V56.44C37.8476 57.5667 36.9111 57.9726 35.9222 57.9726C35.0536 57.9726 33.969 57.5667 33.969 56.5403V55.1913C33.969 54.9088 33.7392 54.6789 33.4568 54.6789C33.1745 54.6789 32.9446 54.9088 32.9446 55.1913V56.5403C32.9446 58.1794 34.4458 58.9975 35.9222 58.9975C37.6532 58.9975 38.8998 58.1053 38.8998 56.281V52.4656C38.9106 52.0612 38.8627 51.6553 38.7563 51.2648C38.4755 50.4575 37.7273 49.9065 36.8726 49.8787C36.3156 49.851 35.7679 50.0331 35.3406 50.3912L35.2249 50.4838L35.1045 50.4051C34.6818 50.1211 34.1819 49.976 33.6728 49.9899H32.7502C32.4679 49.9899 32.238 50.2198 32.238 50.5023C32.238 50.7847 32.4679 51.0147 32.7502 51.0147H33.6728C34.0508 51.0147 34.5954 51.1212 34.7065 51.5318V51.5596V53.0613C34.708 53.3438 34.9394 53.5722 35.2218 53.5707C35.2341 53.5707 35.248 53.5707 35.2603 53.5691C35.4902 53.5599 35.6831 53.3901 35.7216 53.1632" fill="#94DD34"/>
<path d="M28.5862 52.2847V57.3704C28.5815 57.8967 28.401 58.4184 28.0879 58.8213C27.9907 58.9278 27.8657 58.9926 27.7238 58.9972L27.6914 59.0018C27.5664 59.0018 27.4414 58.9509 27.3504 58.8676C27.1514 58.6916 27.1144 58.3922 27.2625 58.1884C27.4476 57.9569 27.5448 57.6668 27.5448 57.375V52.2847C27.5448 51.2043 26.326 50.9219 25.6842 50.9219C25.0424 50.9219 23.8282 51.2043 23.8282 52.2847V57.375C23.8282 57.6575 23.9208 57.9384 24.0921 58.1699C24.18 58.2764 24.2124 58.4153 24.1939 58.5527C24.1754 58.687 24.1059 58.812 23.9949 58.8938C23.9023 58.9633 23.7958 59.0003 23.6817 59.0003C23.5197 59.0003 23.3685 58.9262 23.2713 58.7966C22.9612 58.3906 22.7869 57.8813 22.7869 57.3735V52.2832C22.7869 50.7042 24.2463 49.877 25.6858 49.877C27.1267 49.8785 28.5862 50.7042 28.5862 52.2847Z" fill="#94DD34"/>
<path d="M7.09988 53.6524C7.06285 53.6385 7.04434 53.6339 7.03045 53.6292L6.59693 53.4903L6.96566 53.2218C7.27884 52.9903 7.47786 52.6306 7.50563 52.2386V51.0239C7.4686 50.8109 7.36215 50.618 7.20942 50.4744C6.84532 50.1055 6.16187 49.8787 5.41825 49.8787C4.75794 49.8879 4.18094 50.087 3.83073 50.4281L3.66873 50.5809L3.51137 50.4328C3.12413 50.0731 2.6289 49.874 2.1167 49.874C2.07967 49.874 2.04264 49.874 2.00562 49.8787H1.93002C1.60604 49.8787 0 49.9574 0 51.4993V52.4547C0 53.924 1.50575 54.0614 1.96705 54.0707H2.03647C2.63661 54.0707 3.15807 53.8855 3.49594 53.549C3.7829 53.2712 3.92483 52.9023 3.92483 52.45V52.1275L3.96186 51.7586C3.98963 51.436 4.147 51.1397 4.39538 50.9313C4.61754 50.7414 4.88907 50.6442 5.18529 50.6442H5.34728C5.95668 50.6442 6.455 51.1196 6.48277 51.7293C6.48277 51.8265 6.48739 51.9052 6.49202 51.9839C6.51054 52.3065 6.52905 52.6121 6.20969 52.9393L6.17267 52.981L6.11713 52.9995C5.8348 53.0921 5.54013 53.1384 5.23928 53.1384C5.1282 53.1384 5.0125 53.1338 4.90296 53.1199C4.60674 53.1292 4.57589 53.498 4.57589 53.5397C4.562 53.7296 4.63606 54.0244 4.87673 54.0614L5.78543 54.0568H5.80394L5.81783 54.0614C6.14952 54.1123 6.40871 54.3485 6.48277 54.6711L6.48739 54.685V54.7035C6.53368 55.253 6.53831 56.0015 6.51054 56.5556C6.51054 57.6268 5.301 57.9139 4.66383 57.9139C4.02666 57.9139 2.82175 57.6268 2.82175 56.5464V56.2917C2.82175 56 2.5857 55.7654 2.29566 55.7654C2.00562 55.7654 1.76957 56.0015 1.76957 56.2917V56.5464C1.76957 58.1531 3.21978 58.9943 4.64994 58.9943C6.08627 58.9943 7.53957 58.1577 7.53957 56.5649V54.7498C7.56271 54.5152 7.58894 53.8175 7.09988 53.6524ZM3.2275 52.271C3.2275 52.8899 2.81249 53.2033 1.98556 53.2125H1.75414V53.1894C1.38079 53.1708 0.729735 53.0458 0.729735 52.2201V51.6891C0.729735 51.3017 0.887099 50.6504 1.93002 50.6504H1.99482C2.59033 50.6504 3.2275 50.9375 3.2275 51.7401V52.271Z" fill="#94DD34"/>
<path d="M18.083 54.7994C18.0877 55.1452 18.0877 55.6838 18.0877 56.5759C18.0877 58.1642 16.6421 58.9961 15.2119 58.9961C13.7802 58.9961 12.3315 58.1642 12.3315 56.5759V56.3213C12.3315 56.0296 12.5676 55.795 12.8576 55.795C13.1477 55.795 13.3837 56.0311 13.3837 56.3213V56.5759C13.3837 57.6564 14.5933 57.9434 15.2304 57.9434C15.8722 57.9434 17.0771 57.6564 17.0771 56.5759V52.299C17.0771 51.2186 15.8722 50.9315 15.2351 50.9315C14.5979 50.9315 13.3883 51.2186 13.3883 52.299V52.5537C13.3883 52.8454 13.1523 53.08 12.8623 53.08C12.5722 53.08 12.3362 52.8439 12.3362 52.5537V52.299C12.3362 50.7108 13.7864 49.8789 15.2165 49.8789C16.6482 49.8789 18.0923 50.7108 18.0923 52.2944C18.0784 53.7622 18.083 54.2268 18.083 54.7994Z" fill="#94DD34"/>
</svg>
