<svg width="112" height="60" viewBox="0 0 112 60" fill="none" xmlns="http://www.w3.org/2000/svg">
<path fill-rule="evenodd" clip-rule="evenodd" d="M86.6362 41.1824H45.4539V0H66.0451C77.3697 0 86.6347 9.2665 86.6347 20.5912V41.1824H86.6362Z" fill="#94DD34"/>
<path fill-rule="evenodd" clip-rule="evenodd" d="M0 0H41.1839V41.1824H20.5912C9.2665 41.1824 0 31.9159 0 20.5912V0Z" fill="#94DD34"/>
<path fill-rule="evenodd" clip-rule="evenodd" d="M90.5874 0C102.014 0 111.231 9.42875 111.231 20.5912V41.1824H90.5874V0Z" fill="#94DD34"/>
<path fill-rule="evenodd" clip-rule="evenodd" d="M28.6185 50.0303L25.7383 55.4663V59.0001H24.4882V55.4802L21.6064 50.0303H22.9369L25.1527 54.2904L27.3685 50.0303H28.6185Z" fill="#94DD34"/>
<path d="M12.5499 55.7458L13.956 51.0592L15.3482 55.7458H12.5499ZM16.3248 59.0015H17.6258L14.7626 50.0332H13.2004L10.3232 59.0015H11.5733L12.2501 56.7501H15.648L16.3248 59.0015Z" fill="#94DD34"/>
<path d="M2.76125 50.0366C2.64846 50.032 2.52948 50.0273 2.41204 50.0273H0V58.9972H1.23461V55.2362H2.52948C2.56965 55.2362 2.61137 55.2362 2.65155 55.2315C3.02394 55.2269 3.45504 55.1867 3.88306 55.0724C4.86889 54.8051 5.80837 54.1329 5.80837 52.5661C5.80837 50.6238 4.22455 50.1015 2.76125 50.0366ZM1.23461 50.9915H2.34251C3.80889 50.9915 4.45015 51.4505 4.45015 52.5676C4.45015 53.7806 3.73318 54.2488 2.48312 54.2488H1.23461V50.9915Z" fill="#94DD34"/>
<path d="M53.6236 50.0289H52.4647V54.9225C52.4647 56.0165 52.6069 57.4473 52.6332 57.6559L48.9494 50.0273H47.3347V58.9956H48.4936V54.8823C48.4936 53.2166 48.3901 52.1226 48.3236 51.3809L51.9687 58.9956H53.6221V50.0289H53.6236Z" fill="#94DD34"/>
<path d="M62.0106 50.0283H60.7744V58.9966H62.0106V50.0283Z" fill="#94DD34"/>
<path d="M71.8921 50.0283C69.9297 50.0283 68.2949 51.5751 68.2949 54.5063C68.2949 57.4251 69.8169 58.9966 71.9168 58.9966C73.0866 58.9966 73.9163 58.5191 74.3953 58.0278L73.8035 57.2737C73.3137 57.6384 72.7729 57.9907 71.9539 57.9907C70.6081 57.9907 69.5635 57.0095 69.5635 54.5063C69.5635 51.8903 70.6575 51.0095 71.9663 51.0095C72.5705 51.0095 73.0989 51.2104 73.6397 51.6508L74.2949 50.8828C73.6026 50.3296 72.9861 50.0283 71.8921 50.0283Z" fill="#94DD34"/>
<path d="M82.001 55.7424L83.4072 51.0559L84.7994 55.7424H82.001ZM85.7759 58.9966H87.077L84.2137 50.0283H82.6516L79.7744 58.9966H81.0245L81.7013 56.7453H85.0991L85.7759 58.9966Z" fill="#94DD34"/>
<path d="M93.6776 54.2467V50.9925H94.7839C96.2549 50.9925 96.8931 51.4484 96.8931 52.5671C96.8931 53.7785 96.1777 54.2467 94.9276 54.2467H93.6776ZM97.2191 58.9966H98.6902L96.2688 54.9745C97.5575 54.5835 98.2081 53.8279 98.2081 52.5655C98.2081 50.8859 97.0368 50.0283 94.7978 50.0283H92.4414V58.9966H93.6776V55.1954H95.0698L97.2191 58.9966Z" fill="#94DD34"/>
<path d="M107.013 51.0188C108.445 51.0188 109.916 51.4344 109.916 54.4677C109.916 57.4221 108.51 58.0216 107.104 58.0216H106.101V51.0188H107.013ZM106.739 50.0283H104.865V58.9966H107.013C108.952 58.9966 111.23 58.1251 111.23 54.4661C111.23 50.7453 109.031 50.0283 106.739 50.0283Z" fill="#94DD34"/>
<path d="M40.2851 50.0273H39.0567V55.9253C39.0567 57.2944 38.4556 57.9727 37.1885 57.9727C35.9354 57.9727 35.3328 57.2944 35.3328 55.9253V50.0273H34.1167V56.015C34.1167 57.7672 35.1782 58.9956 37.187 58.9956C39.1695 58.9956 40.2836 57.7672 40.2836 56.015V50.0273H40.2851Z" fill="#94DD34"/>
</svg>
