<svg width="194" height="42" viewBox="0 0 194 42" fill="none" xmlns="http://www.w3.org/2000/svg">
<path d="M168.931 4.50488H150.663V37.3478H168.931V4.50488Z" fill="#FF5F00"/>
<path d="M151.877 20.8934C151.885 17.7447 152.606 14.6387 153.986 11.8087C155.366 8.97873 157.369 6.49831 159.844 4.55369C157.225 2.5044 154.155 1.11046 150.889 0.487847C147.623 -0.13477 144.255 0.0319366 141.066 0.974096C137.878 1.91626 134.96 3.60663 132.556 5.90458C130.152 8.20253 128.331 11.0416 127.245 14.1857C126.159 17.3297 125.839 20.6878 126.312 23.9805C126.785 27.2732 128.036 30.4054 129.963 33.1165C131.89 35.8275 134.436 38.0391 137.389 39.5672C140.342 41.0952 143.617 41.8956 146.942 41.9017C151.633 41.8879 156.182 40.2833 159.844 37.3499C157.354 35.3925 155.342 32.8932 153.962 30.0418C152.581 27.1904 151.868 24.0618 151.877 20.8934Z" fill="#EB001B"/>
<path d="M191.632 33.8697V33.1928H191.912V33.0644H191.212V33.1928H191.492V33.8697H191.632ZM192.974 33.8697V33.0527H192.764L192.507 33.613L192.262 33.0527H192.052V33.8697H192.204V33.2628L192.437 33.788H192.589L192.811 33.2511V33.8697H192.974Z" fill="#F79E1B"/>
<path d="M172.745 0.035014C168.059 0.042462 163.513 1.63414 159.844 4.55178C162.322 6.50598 164.325 8.99688 165.702 11.8371C167.079 14.6774 167.794 17.7931 167.794 20.9499C167.794 24.1067 167.079 27.2223 165.702 30.0626C164.325 32.9029 162.322 35.3938 159.844 37.348C162.463 39.3973 165.533 40.7912 168.799 41.4138C172.065 42.0364 175.432 41.8697 178.621 40.9276C181.81 39.9854 184.727 38.295 187.131 35.9971C189.535 33.6991 191.356 30.86 192.442 27.716C193.528 24.572 193.848 21.2139 193.376 17.9212C192.903 14.6284 191.651 11.4962 189.724 8.78518C187.798 6.07411 185.252 3.86256 182.299 2.33451C179.345 0.806462 176.07 0.00609543 172.745 0" fill="#F79E1B"/>
<path d="M42.1221 3.6172L27.5969 37.4731H18.1205L10.9761 10.4566C10.5395 8.79068 10.1646 8.18351 8.84455 7.481C6.68734 6.33692 3.12795 5.2681 0 4.60072L0.210585 3.6172H15.4651C17.4118 3.6172 19.1581 4.88172 19.5998 7.06953L23.3749 26.6595L32.7074 3.6172H42.1221ZM79.2517 26.4186C79.2877 17.4817 66.6064 16.99 66.6937 13.0007C66.7194 11.7864 67.9058 10.4968 70.4945 10.1656C71.7785 10 75.3174 9.87455 79.3339 11.681L80.9107 4.50036C78.7484 3.73763 75.9748 3 72.5233 3C63.6633 3 57.428 7.60143 57.3715 14.19C57.315 19.0624 61.8246 21.7821 65.2196 23.4029C68.7122 25.0638 69.8833 26.1276 69.873 27.6129C69.8473 29.886 67.084 30.8846 64.5057 30.9247C60.0012 30.99 57.3869 29.7355 55.3016 28.7871L53.6785 36.2036C55.7741 37.1419 59.6417 37.9599 63.6479 38C73.0626 38.005 79.226 33.4588 79.2517 26.4186ZM102.652 37.4731H110.942L103.705 3.6172H96.0523C94.3316 3.6172 92.8781 4.5957 92.2361 6.10107L78.7843 37.4731H88.199L90.0686 32.4151H101.569L102.652 37.4731ZM92.647 25.4803L97.3671 12.7699L100.084 25.4803H92.647ZM54.9318 3.6172L47.5202 37.4731H38.5524L45.9691 3.6172H54.9318Z" fill="url(#paint0_linear)"/>
<defs>
<linearGradient id="paint0_linear" x1="11.4717" y1="37.0737" x2="102.717" y2="1.25165" gradientUnits="userSpaceOnUse">
<stop stop-color="#1A1E5A"/>
<stop offset="1" stop-color="#122D98"/>
</linearGradient>
</defs>
</svg>
