<svg width="87" height="28" viewBox="0 0 87 28" fill="none" xmlns="http://www.w3.org/2000/svg">
<path d="M32.8699 0.481632L21.5352 26.9009H14.1404L8.56518 5.81874C8.22449 4.51873 7.9319 4.04493 6.90184 3.49673C5.21846 2.60395 2.44089 1.7699 0 1.24911L0.164329 0.481632H12.0682C13.5872 0.481632 14.95 1.46839 15.2947 3.17564L18.2406 18.4626L25.5232 0.481632H32.8699ZM61.844 18.2746C61.8721 11.3007 51.9762 10.917 52.0444 7.80401C52.0644 6.8564 52.9903 5.85007 55.0103 5.59163C56.0123 5.46241 58.7738 5.36452 61.9081 6.77417L63.1386 1.1708C61.4512 0.575609 59.2869 0 56.5935 0C49.6796 0 44.8139 3.5907 44.7698 8.73203C44.7257 12.5342 48.2447 14.6565 50.8941 15.9213C53.6195 17.2174 54.5333 18.0475 54.5253 19.2065C54.5053 20.9804 52.349 21.7596 50.3369 21.7909C46.8219 21.8418 44.7818 20.8629 43.1545 20.1228L41.888 25.9102C43.5233 26.6425 46.5413 27.2807 49.6676 27.3121C57.0143 27.316 61.824 23.7683 61.844 18.2746ZM80.1046 26.9009H86.5736L80.9263 0.481632H74.9543C73.6116 0.481632 72.4773 1.2452 71.9763 2.41991L61.4793 26.9009H68.826L70.2849 22.9539H79.2589L80.1046 26.9009ZM72.297 17.5424L75.9804 7.62388L78.1006 17.5424H72.297ZM42.866 0.481632L37.0824 26.9009H30.0843L35.8719 0.481632H42.866Z" fill="url(#paint0_linear)"/>
<defs>
<linearGradient id="paint0_linear" x1="8.95195" y1="26.5892" x2="80.1552" y2="-1.36459" gradientUnits="userSpaceOnUse">
<stop stop-color="#1A1E5A"/>
<stop offset="1" stop-color="#122D98"/>
</linearGradient>
</defs>
</svg>
