<svg width="45" height="14" viewBox="0 0 45 14" fill="none" xmlns="http://www.w3.org/2000/svg">
<path d="M17.6226 0.246882L11.8648 13.7892H8.10846L5.27642 2.98265C5.10336 2.31627 4.95473 2.0734 4.43149 1.7924C3.57638 1.33477 2.16545 0.90724 0.925537 0.640287L1.00901 0.246882H7.05586C7.8275 0.246882 8.51973 0.752688 8.69482 1.62781L10.1913 9.4638L13.8906 0.246882H17.6226ZM32.3406 9.36745C32.3549 5.79269 27.3281 5.59598 27.3627 4.00029C27.3729 3.51455 27.8432 2.99871 28.8693 2.86624C29.3783 2.8 30.7811 2.74982 32.3732 3.4724L32.9983 0.600143C32.1411 0.295054 31.0417 0 29.6735 0C26.1615 0 23.6898 1.84057 23.6674 4.47599C23.645 6.42495 25.4326 7.51283 26.7784 8.16115C28.1628 8.82552 28.627 9.25104 28.623 9.84516C28.6128 10.7544 27.5174 11.1538 26.4954 11.1699C24.7098 11.196 23.6735 10.6942 22.8469 10.3148L22.2035 13.2814C23.0342 13.6568 24.5673 13.9839 26.1554 14C29.8873 14.002 32.3305 12.1835 32.3406 9.36745ZM41.6166 13.7892H44.9026L42.0339 0.246882H39.0003C38.3183 0.246882 37.7421 0.638279 37.4876 1.24043L32.1554 13.7892H35.8873L36.6284 11.766H41.187L41.6166 13.7892ZM37.6505 8.99211L39.5215 3.90796L40.5986 8.99211H37.6505ZM22.7003 0.246882L19.7624 13.7892H16.2076L19.1475 0.246882H22.7003Z" fill="url(#paint0_linear)"/>
<defs>
<linearGradient id="paint0_linear" x1="5.47289" y1="13.6295" x2="41.7292" y2="-0.476123" gradientUnits="userSpaceOnUse">
<stop stop-color="#1A1E5A"/>
<stop offset="1" stop-color="#122D98"/>
</linearGradient>
</defs>
</svg>
