<svg width="22" height="24" viewBox="0 0 22 24" fill="none" xmlns="http://www.w3.org/2000/svg">
<path fill-rule="evenodd" clip-rule="evenodd" d="M10.6026 1.13651C10.8378 0.954495 11.1622 0.954495 11.3974 1.13651L20.7372 8.36213C20.9027 8.49014 21 8.69043 21 8.90306V20.2577C21 21.7915 19.7562 23 18.2641 23H3.73586C2.24459 23 1 21.7916 1 20.2577V8.90306C1 8.69043 1.09729 8.49014 1.26275 8.36213L10.6026 1.13651ZM2.32039 9.24072V20.2577C2.32039 21.0041 2.93492 21.6451 3.73586 21.6451H18.2641C19.0656 21.6451 19.6796 21.0042 19.6796 20.2577V9.24072L11 2.52585L2.32039 9.24072Z" fill="#C2C2C2" stroke="#C2C2C2" stroke-width="0.5" stroke-linecap="round" stroke-linejoin="round"/>
<path fill-rule="evenodd" clip-rule="evenodd" d="M7 12.6381C7 12.2857 7.31331 12 7.69979 12H14.3002C14.6867 12 15 12.2857 15 12.6381V22.3619C15 22.7143 14.6867 23 14.3002 23C13.9137 23 13.6004 22.7143 13.6004 22.3619V13.2763H8.39958V22.3619C8.39958 22.7143 8.08627 23 7.69979 23C7.31331 23 7 22.7143 7 22.3619V12.6381Z" fill="#C2C2C2" stroke="#C2C2C2" stroke-width="0.5" stroke-linecap="round" stroke-linejoin="round"/>
</svg>
