<svg width="20" height="16" viewBox="0 0 20 16" fill="none" xmlns="http://www.w3.org/2000/svg">
<path fill-rule="evenodd" clip-rule="evenodd" d="M2.4 1.6H17.6C18.0418 1.6 18.4 1.95817 18.4 2.4V3.99999H1.6V2.4C1.6 1.95817 1.95817 1.6 2.4 1.6ZM0 5.59999V3.99999V2.4C0 1.07452 1.07452 0 2.4 0H17.6C18.9255 0 20 1.07452 20 2.4V12.8C20 14.1255 18.9255 15.2 17.6 15.2H2.4C1.07452 15.2 0 14.1255 0 12.8V5.59999ZM1.6 5.59999H18.4V12.8C18.4 13.2418 18.0418 13.6 17.6 13.6H2.4C1.95817 13.6 1.6 13.2418 1.6 12.8V5.59999Z" fill="#C2C2C2"/>
</svg>

