<svg width="22" height="25" viewBox="0 0 22 25" fill="none" xmlns="http://www.w3.org/2000/svg">
<path fill-rule="evenodd" clip-rule="evenodd" d="M20.1501 1C19.6424 1 18.896 1.66497 18.593 1.95179L17.8632 2.65526C17.7378 2.77376 17.5724 2.83943 17.3926 2.83943C17.212 2.83943 17.0458 2.77376 16.9211 2.65601L16.18 1.95028C15.6821 1.47854 14.8571 1 14.2429 1C13.6295 1 12.8045 1.47854 12.3066 1.95028L11.5632 2.65526C11.4386 2.77376 11.2701 2.83943 11.0895 2.83943C10.9082 2.83943 10.7397 2.77376 10.6151 2.65526L9.87168 1.95028C9.38666 1.48986 8.54202 1 7.93386 1C7.32645 1 6.48257 1.48986 5.99679 1.95028L5.25415 2.65526C5.12874 2.77376 4.96026 2.83943 4.7797 2.83943C4.59838 2.83943 4.42991 2.77376 4.3045 2.65526L3.56186 1.95028C3.5203 1.91179 2.53515 1 1.93983 1C1.25913 1 1 1.90575 1 2.68017V22.3198C1 23.095 1.25913 24 1.93983 24C2.51248 24 3.43644 23.1471 3.53768 23.0512L4.29392 22.3447C4.41858 22.227 4.59007 22.1613 4.77215 22.1613C4.95422 22.1613 5.1242 22.227 5.24961 22.3455L5.99452 23.0497C6.4803 23.5101 7.32418 24 7.9331 24C8.54127 24 9.3859 23.5101 9.87093 23.0497L10.6143 22.3447C10.7397 22.227 10.9082 22.1613 11.0895 22.1613C11.2701 22.1613 11.4386 22.227 11.564 22.3447L12.3066 23.0497C12.7924 23.5101 13.6363 24 14.2444 24C14.8526 24 15.6965 23.5101 16.1815 23.0497L16.9249 22.3447C17.0496 22.227 17.218 22.1613 17.3994 22.1613C17.5807 22.1613 17.7491 22.227 17.8738 22.3447L18.6172 23.0497C18.9912 23.4052 19.6719 24 20.1501 24C20.7099 24 21 23.403 21 22.3198V2.68017C21 1.59704 20.7099 1 20.1501 1Z" stroke="#cfcfcf" stroke-width="1.7" stroke-linecap="round" stroke-linejoin="round"/>
<path fill-rule="evenodd" clip-rule="evenodd" d="M14.971 13.2314H6.86281C6.38627 13.2314 6 12.8389 6 12.3553C6 11.8711 6.38627 11.4785 6.86281 11.4785H14.971C15.4476 11.4785 15.8338 11.8711 15.8338 12.3553C15.8338 12.8389 15.4476 13.2314 14.971 13.2314ZM14.9234 8.85018H6.9104C6.40796 8.85018 6 8.43592 6 7.92509C6 7.41426 6.40796 7 6.9104 7H14.9234C15.4266 7 15.8338 7.41426 15.8338 7.92509C15.8338 8.43592 15.4266 8.85018 14.9234 8.85018ZM12.3952 15.8605H14.9234C15.4266 15.8605 15.8338 16.2747 15.8338 16.7855C15.8338 17.2964 15.4266 17.7106 14.9234 17.7106H12.3952C11.892 17.7106 11.4841 17.2964 11.4841 16.7855C11.4841 16.2747 11.892 15.8605 12.3952 15.8605Z" fill="#cfcfcf"/>
</svg>
