<svg width="22" height="18" viewBox="0 0 22 18" fill="none" xmlns="http://www.w3.org/2000/svg">
<path fill-rule="evenodd" clip-rule="evenodd" d="M17.4652 7.34069C17.2733 7.2494 17.1254 7.08572 17.0539 6.88553L18.5674 6.3498C18.6376 6.55042 18.6256 6.77073 18.5337 6.96244C18.4419 7.15415 18.2779 7.30161 18.0776 7.37252C17.8773 7.44342 17.657 7.43198 17.4652 7.34069ZM5.89867 3.92489L6.4614 4.48776C7.22808 3.72043 8.17653 3.1599 9.21827 2.85847C10.26 2.55704 11.3611 2.52453 12.4188 2.76397C13.4764 3.00326 14.4562 3.50671 15.2667 4.22733C16.0773 4.94796 16.6921 5.86228 17.0539 6.88497L18.5674 6.3498C18.115 5.07136 17.3463 3.92839 16.333 3.02753C15.3197 2.12666 14.0949 1.49724 12.7728 1.19799C11.4507 0.898664 10.0745 0.93929 8.7724 1.31608C7.4723 1.6923 6.28847 2.39142 5.33103 3.34835L2.67518 5.84455V2.65239C2.67518 2.18759 2.30018 1.8108 1.83759 1.8108C1.375 1.8108 1 2.18759 1 2.65239V7.84562C1 8.31042 1.375 8.68722 1.83759 8.68722H6.53626C6.99884 8.68722 7.37384 8.31042 7.37384 7.84562C7.37384 7.38083 6.99884 7.00403 6.53626 7.00403H3.78564L6.44361 4.50526L6.44368 4.50534C6.44591 4.50311 6.44826 4.50085 6.45064 4.49855C6.45429 4.49504 6.458 4.49147 6.4614 4.4879L5.90084 3.9272L5.89867 3.92489ZM5.90084 3.9272L5.89403 3.92038L6.44361 4.50526L6.44368 4.5052L5.90084 3.9272ZM5.89867 3.92489L5.32665 3.35273C5.32811 3.35127 5.32957 3.34981 5.33103 3.34835L5.34493 3.33529L5.89867 3.92489ZM19.3248 12.2043V15.3996C19.3248 15.8644 19.6998 16.2412 20.1624 16.2412C20.625 16.2412 21 15.8644 21 15.3996V10.2063C21 9.74154 20.625 9.36475 20.1624 9.36475H15.4637C15.0012 9.36475 14.6262 9.74154 14.6262 10.2063C14.6262 10.6711 15.0012 11.0479 15.4637 11.0479H18.211L15.5527 13.5468L16.1177 14.1482L16.0746 14.105L15.5502 13.5469C15.5445 13.5525 15.5382 13.5584 15.5324 13.5645L15.5331 13.5651C14.7665 14.3319 13.8183 14.8921 12.7769 15.1934C11.7352 15.4948 10.6341 15.5274 9.57632 15.288C8.51876 15.0486 7.53903 14.5452 6.72853 13.8245C5.91804 13.1039 5.30318 12.1896 4.94133 11.167L3.42787 11.7027C3.88027 12.9812 4.64897 14.1241 5.66224 15.025C6.67552 15.9258 7.90036 16.5552 9.22248 16.8544L9.2226 16.8539C10.5446 17.1532 11.9208 17.1125 13.2228 16.7357C14.5171 16.3612 15.6962 15.6666 16.6514 14.7162L16.652 14.7168L19.3248 12.2043ZM9.22262 16.8538L9.23114 16.8161L9.57632 15.288L9.29653 16.5261L9.22248 16.8538C9.22252 16.8538 9.22256 16.8539 9.2226 16.8539L9.22262 16.8538ZM15.5331 13.5651L16.1 14.132L16.0746 14.105L15.534 13.5642C15.5337 13.5645 15.5334 13.5648 15.5331 13.5651ZM16.6514 14.7162L16.1177 14.1482L16.6685 14.6991C16.6628 14.7048 16.6571 14.7105 16.6514 14.7162ZM4.53024 10.7113C4.72212 10.8026 4.87001 10.9662 4.94147 11.1664L3.42801 11.7022C3.35774 11.5016 3.36984 11.2812 3.46165 11.0895C3.55347 10.8978 3.7175 10.7504 3.91781 10.6795C4.11812 10.6086 4.33835 10.62 4.53024 10.7113Z" fill="#C2C2C2"/>
<path d="M17.0539 6.88553L17.0206 6.79126L16.926 6.82472L16.9597 6.91915L17.0539 6.88553ZM17.4652 7.34069L17.5081 7.25039L17.4652 7.34069ZM18.5674 6.3498L18.6618 6.31674L18.6616 6.31644L18.5674 6.3498ZM18.5337 6.96244L18.4435 6.91924V6.91924L18.5337 6.96244ZM6.4614 4.48776L6.39068 4.55846L6.46142 4.62922L6.53214 4.55844L6.4614 4.48776ZM9.21827 2.85847L9.19048 2.76241L9.21827 2.85847ZM12.4188 2.76397L12.3967 2.8615L12.3967 2.86151L12.4188 2.76397ZM15.2667 4.22733L15.2003 4.30207V4.30207L15.2667 4.22733ZM17.0539 6.88497L16.9596 6.91832L16.993 7.01258L17.0873 6.97925L17.0539 6.88497ZM16.333 3.02753L16.2665 3.10226L16.333 3.02753ZM12.7728 1.19799L12.7507 1.29552L12.7507 1.29553L12.7728 1.19799ZM8.7724 1.31608L8.8002 1.41214L8.7724 1.31608ZM2.67518 5.84455H2.57518V6.07577L2.74366 5.91742L2.67518 5.84455ZM3.78564 7.00403L3.71714 6.93117L3.53327 7.10403H3.78564V7.00403ZM6.44368 4.50534L6.3708 4.5738L6.44146 4.64903L6.51441 4.57603L6.44368 4.50534ZM6.45064 4.49855L6.52002 4.57058L6.52002 4.57057L6.45064 4.49855ZM6.4614 4.4879L6.53383 4.55684L6.60109 4.48619L6.53212 4.4172L6.4614 4.4879ZM5.89403 3.92038L5.96474 3.84968L5.82115 3.98886L5.89403 3.92038ZM6.44368 4.5052L6.51213 4.57811L6.58505 4.50965L6.51658 4.43674L6.44368 4.5052ZM5.32665 3.35273L5.2559 3.28206L5.18528 3.35276L5.25593 3.42343L5.32665 3.35273ZM5.34493 3.33529L5.41782 3.26683L5.34934 3.19391L5.27644 3.26242L5.34493 3.33529ZM19.3248 12.2043H19.4248V11.9731L19.2563 12.1314L19.3248 12.2043ZM18.211 11.0479L18.2795 11.1208L18.4633 10.9479H18.211V11.0479ZM15.5527 13.5468L15.4842 13.4739L15.4114 13.5424L15.4798 13.6152L15.5527 13.5468ZM15.5502 13.5469L15.623 13.4784L15.5524 13.4032L15.4794 13.4762L15.5502 13.5469ZM15.5324 13.5645L15.4601 13.4955L15.3927 13.5662L15.4617 13.6352L15.5324 13.5645ZM12.7769 15.1934L12.8047 15.2895L12.7769 15.1934ZM4.94133 11.167L5.0356 11.1336L5.00224 11.0394L4.90796 11.0727L4.94133 11.167ZM3.42787 11.7027L3.3945 11.6085L3.30024 11.6418L3.3336 11.7361L3.42787 11.7027ZM5.66224 15.025L5.72869 14.9503V14.9503L5.66224 15.025ZM9.22248 16.8544L9.20041 16.9519L9.29794 16.974L9.32001 16.8765L9.22248 16.8544ZM13.2228 16.7357L13.195 16.6397L13.2228 16.7357ZM16.652 14.7168L16.5791 14.7853L16.6476 14.8582L16.7205 14.7897L16.652 14.7168ZM9.23114 16.8161L9.1336 16.794L9.13359 16.7941L9.23114 16.8161ZM9.22262 16.8538L9.30494 16.9106L9.31592 16.8947L9.32017 16.8758L9.22262 16.8538ZM9.29653 16.5261L9.19899 16.5041L9.29653 16.5261ZM9.22248 16.8538L9.12494 16.8318L9.10315 16.9282L9.19932 16.9511L9.22248 16.8538ZM16.1 14.132L16.0293 14.2027L16.1728 14.0635L16.1 14.132ZM15.534 13.5642L15.6047 13.4935L15.534 13.4228L15.4633 13.4935L15.534 13.5642ZM16.6685 14.6991L16.7392 14.7698L16.8098 14.6991L16.7392 14.6284L16.6685 14.6991ZM4.94147 11.1664L4.97484 11.2607L5.06936 11.2273L5.03565 11.1328L4.94147 11.1664ZM4.53024 10.7113L4.48728 10.8016H4.48728L4.53024 10.7113ZM3.42801 11.7022L3.33364 11.7352L3.3668 11.8299L3.46138 11.7964L3.42801 11.7022ZM3.46165 11.0895L3.37146 11.0463L3.46165 11.0895ZM3.91781 10.6795L3.88444 10.5852L3.91781 10.6795ZM16.9597 6.91915C17.0401 7.14426 17.2064 7.32833 17.4222 7.43099L17.5081 7.25039C17.3401 7.17048 17.2107 7.02719 17.1481 6.85191L16.9597 6.91915ZM18.534 6.25553L17.0206 6.79126L17.0873 6.9798L18.6007 6.44407L18.534 6.25553ZM18.6239 7.00563C18.7272 6.79006 18.7408 6.54233 18.6618 6.31674L18.473 6.38286C18.5345 6.55851 18.5239 6.7514 18.4435 6.91924L18.6239 7.00563ZM18.111 7.46679C18.3362 7.38704 18.5207 7.2212 18.6239 7.00563L18.4435 6.91924C18.3632 7.08709 18.2196 7.21618 18.0442 7.27825L18.111 7.46679ZM17.4222 7.43099C17.638 7.53365 17.8857 7.54653 18.111 7.46679L18.0442 7.27825C17.8689 7.34032 17.6761 7.3303 17.5081 7.25039L17.4222 7.43099ZM5.82795 3.99559L6.39068 4.55846L6.53212 4.41706L5.96939 3.85418L5.82795 3.99559ZM6.53214 4.55844C7.28688 3.80306 8.22056 3.25126 9.24607 2.95453L9.19048 2.76241C8.1325 3.06854 7.16927 3.6378 6.39066 4.41708L6.53214 4.55844ZM9.24607 2.95453C10.2716 2.6578 11.3555 2.62579 12.3967 2.8615L12.4409 2.66644C11.3667 2.42327 10.2485 2.45628 9.19048 2.76241L9.24607 2.95453ZM12.3967 2.86151C13.4379 3.09706 14.4024 3.59266 15.2003 4.30207L15.3332 4.1526C14.51 3.42075 13.515 2.90945 12.4409 2.66644L12.3967 2.86151ZM15.2003 4.30207C15.9982 5.01147 16.6035 5.91155 16.9596 6.91832L17.1482 6.85161C16.7808 5.81301 16.1563 4.88445 15.3332 4.1526L15.2003 4.30207ZM17.0873 6.97925L18.6007 6.44408L18.534 6.25552L17.0206 6.79069L17.0873 6.97925ZM18.6616 6.31644C18.2036 5.02208 17.4253 3.86488 16.3994 2.95279L16.2665 3.10226C17.2672 3.9919 18.0263 5.12064 18.4731 6.38316L18.6616 6.31644ZM16.3994 2.95279C15.3735 2.0407 14.1334 1.40344 12.7948 1.10046L12.7507 1.29553C14.0563 1.59105 15.2659 2.21262 16.2665 3.10226L16.3994 2.95279ZM12.7949 1.10046C11.4563 0.7974 10.0629 0.838533 8.7446 1.22002L8.8002 1.41214C10.086 1.04005 11.4451 0.999927 12.7507 1.29552L12.7949 1.10046ZM8.7446 1.22002C7.42829 1.60093 6.2297 2.30877 5.26033 3.27762L5.40172 3.41908C6.34723 2.47407 7.5163 1.78367 8.8002 1.41214L8.7446 1.22002ZM5.26254 3.27549L2.60669 5.77168L2.74366 5.91742L5.39951 3.42122L5.26254 3.27549ZM2.77518 5.84455V2.65239H2.57518V5.84455H2.77518ZM2.77518 2.65239C2.77518 2.13281 2.35585 1.7108 1.83759 1.7108V1.9108C2.2445 1.9108 2.57518 2.24237 2.57518 2.65239H2.77518ZM1.83759 1.7108C1.31932 1.7108 0.9 2.13281 0.9 2.65239H1.1C1.1 2.24237 1.43068 1.9108 1.83759 1.9108V1.7108ZM0.9 2.65239V7.84562H1.1V2.65239H0.9ZM0.9 7.84562C0.9 8.3652 1.31932 8.78722 1.83759 8.78722V8.58722C1.43068 8.58722 1.1 8.25564 1.1 7.84562H0.9ZM1.83759 8.78722H6.53626V8.58722H1.83759V8.78722ZM6.53626 8.78722C7.05452 8.78722 7.47384 8.3652 7.47384 7.84562H7.27384C7.27384 8.25564 6.94316 8.58722 6.53626 8.58722V8.78722ZM7.47384 7.84562C7.47384 7.32605 7.05452 6.90403 6.53626 6.90403V7.10403C6.94316 7.10403 7.27384 7.43561 7.27384 7.84562H7.47384ZM6.53626 6.90403H3.78564V7.10403H6.53626V6.90403ZM3.85413 7.07689L6.51211 4.57812L6.37512 4.4324L3.71714 6.93117L3.85413 7.07689ZM6.37073 4.57373L6.3708 4.5738L6.51657 4.43687L6.5165 4.4368L6.37073 4.57373ZM6.51441 4.57603C6.51584 4.5746 6.5175 4.573 6.52002 4.57058L6.38127 4.42653C6.37903 4.42869 6.37597 4.43163 6.37295 4.43465L6.51441 4.57603ZM6.52002 4.57057C6.52336 4.56736 6.52867 4.56226 6.53383 4.55684L6.38897 4.41895C6.38732 4.42068 6.38522 4.42272 6.38127 4.42653L6.52002 4.57057ZM6.53212 4.4172L5.97156 3.85649L5.83012 3.9979L6.39068 4.5586L6.53212 4.4172ZM5.97373 3.85874L5.97156 3.85643L5.82578 3.99335L5.82795 3.99566L5.97373 3.85874ZM5.97156 3.85649L5.96474 3.84968L5.82331 3.99109L5.83012 3.9979L5.97156 3.85649ZM5.82115 3.98886L6.37074 4.57374L6.51649 4.43679L5.9669 3.8519L5.82115 3.98886ZM6.51206 4.57817L6.51213 4.57811L6.37524 4.43229L6.37517 4.43236L6.51206 4.57817ZM6.51658 4.43674L5.97373 3.85874L5.82795 3.99566L6.37079 4.57366L6.51658 4.43674ZM5.25593 3.42343L5.82795 3.99559L5.96939 3.85418L5.39737 3.28202L5.25593 3.42343ZM5.26034 3.27762C5.25886 3.27909 5.25738 3.28057 5.2559 3.28206L5.39741 3.4234C5.39884 3.42196 5.40028 3.42052 5.40171 3.41909L5.26034 3.27762ZM5.27644 3.26242L5.26254 3.27549L5.39951 3.42122L5.41342 3.40815L5.27644 3.26242ZM5.97156 3.85643L5.41782 3.26683L5.27204 3.40374L5.82578 3.99335L5.97156 3.85643ZM19.2248 12.2043V15.3996H19.4248V12.2043H19.2248ZM19.2248 15.3996C19.2248 15.9191 19.6441 16.3412 20.1624 16.3412V16.1412C19.7555 16.1412 19.4248 15.8096 19.4248 15.3996H19.2248ZM20.1624 16.3412C20.6807 16.3412 21.1 15.9192 21.1 15.3996H20.9C20.9 15.8096 20.5693 16.1412 20.1624 16.1412V16.3412ZM21.1 15.3996V10.2063H20.9V15.3996H21.1ZM21.1 10.2063C21.1 9.68676 20.6807 9.26475 20.1624 9.26475V9.46475C20.5693 9.46475 20.9 9.79632 20.9 10.2063H21.1ZM20.1624 9.26475H15.4637V9.46475H20.1624V9.26475ZM15.4637 9.26475C14.9455 9.26475 14.5262 9.68676 14.5262 10.2063H14.7262C14.7262 9.79632 15.0568 9.46475 15.4637 9.46475V9.26475ZM14.5262 10.2063C14.5262 10.7259 14.9455 11.1479 15.4637 11.1479V10.9479C15.0568 10.9479 14.7262 10.6164 14.7262 10.2063H14.5262ZM15.4637 11.1479H18.211V10.9479H15.4637V11.1479ZM18.1425 10.9751L15.4842 13.4739L15.6212 13.6196L18.2795 11.1208L18.1425 10.9751ZM15.4798 13.6152L16.0449 14.2167L16.1906 14.0797L15.6256 13.4783L15.4798 13.6152ZM16.1885 14.0775L16.1453 14.0343L16.0039 14.1757L16.047 14.2189L16.1885 14.0775ZM16.1475 14.0366L15.623 13.4784L15.4773 13.6154L16.0017 14.1735L16.1475 14.0366ZM15.4794 13.4762C15.4778 13.4779 15.4664 13.4889 15.4601 13.4955L15.6048 13.6335C15.6101 13.628 15.6113 13.6272 15.6209 13.6176L15.4794 13.4762ZM15.4617 13.6352L15.4624 13.6358L15.6038 13.4944L15.6032 13.4938L15.4617 13.6352ZM15.4624 13.4944C14.7077 14.2493 13.7743 14.8007 12.7492 15.0974L12.8047 15.2895C13.8623 14.9835 14.8253 14.4146 15.6038 13.6358L15.4624 13.4944ZM12.7492 15.0974C11.7236 15.3941 10.6397 15.4261 9.59839 15.1905L9.55424 15.3855C10.6285 15.6286 11.7467 15.5956 12.8047 15.2895L12.7492 15.0974ZM9.59839 15.1905C8.55731 14.9548 7.59285 14.4592 6.79498 13.7498L6.66209 13.8993C7.48521 14.6311 8.4802 15.1424 9.55424 15.3855L9.59839 15.1905ZM6.79498 13.7498C5.99711 13.0404 5.39182 12.1404 5.0356 11.1336L4.84706 11.2004C5.21454 12.2389 5.83897 13.1674 6.66209 13.8993L6.79498 13.7498ZM4.90796 11.0727L3.3945 11.6085L3.46124 11.797L4.9747 11.2613L4.90796 11.0727ZM3.3336 11.7361C3.79163 13.0305 4.5699 14.1877 5.5958 15.0997L5.72869 14.9503C4.72804 14.0606 3.96891 12.9319 3.52214 11.6694L3.3336 11.7361ZM5.5958 15.0997C6.6217 16.0118 7.8618 16.649 9.20041 16.9519L9.24455 16.7569C7.93891 16.4614 6.72934 15.8399 5.72869 14.9503L5.5958 15.0997ZM9.32001 16.8765L9.32014 16.8759L9.12507 16.8318L9.12495 16.8323L9.32001 16.8765ZM9.20052 16.9514C10.539 17.2544 11.9323 17.2133 13.2506 16.8318L13.195 16.6397C11.9092 17.0118 10.5502 17.0519 9.24469 16.7563L9.20052 16.9514ZM13.2506 16.8318C14.5611 16.4526 15.7548 15.7493 16.7219 14.787L16.5808 14.6453C15.6376 15.5838 14.4732 16.2698 13.195 16.6397L13.2506 16.8318ZM16.5785 14.7846L16.5791 14.7853L16.7249 14.6484L16.7243 14.6477L16.5785 14.7846ZM16.7205 14.7897L19.3933 12.2772L19.2563 12.1314L16.5835 14.644L16.7205 14.7897ZM9.13359 16.7941L9.12507 16.8318L9.32017 16.8758L9.32869 16.8381L9.13359 16.7941ZM9.32868 16.8381L9.67386 15.31L9.47877 15.266L9.1336 16.794L9.32868 16.8381ZM9.47878 15.266L9.19899 16.5041L9.39408 16.5482L9.67386 15.31L9.47878 15.266ZM9.19899 16.5041L9.12494 16.8318L9.32002 16.8759L9.39408 16.5482L9.19899 16.5041ZM9.19932 16.9511L9.19944 16.9511L9.24577 16.7566L9.24564 16.7566L9.19932 16.9511ZM9.30492 16.9106L9.30494 16.9106L9.1403 16.7971L9.14028 16.7971L9.30492 16.9106ZM15.4624 13.6358L16.0293 14.2027L16.1707 14.0613L15.6038 13.4944L15.4624 13.6358ZM16.1728 14.0635L16.1475 14.0366L16.0017 14.1735L16.0271 14.2005L16.1728 14.0635ZM16.1453 14.0343L15.6047 13.4935L15.4633 13.6349L16.0039 14.1757L16.1453 14.0343ZM15.4633 13.4935C15.4633 13.4935 15.4633 13.4935 15.4633 13.4935C15.4633 13.4935 15.4633 13.4935 15.4633 13.4935C15.4633 13.4935 15.4633 13.4935 15.4633 13.4935C15.4633 13.4935 15.4633 13.4935 15.4633 13.4935C15.4633 13.4935 15.4633 13.4935 15.4633 13.4935C15.4633 13.4935 15.4633 13.4935 15.4633 13.4935C15.4633 13.4935 15.4633 13.4935 15.4633 13.4935L15.4633 13.4935C15.4633 13.4935 15.4633 13.4935 15.4633 13.4935C15.4633 13.4935 15.4633 13.4935 15.4633 13.4935C15.4633 13.4935 15.4633 13.4935 15.4633 13.4935C15.4633 13.4935 15.4633 13.4935 15.4633 13.4935C15.4633 13.4935 15.4633 13.4935 15.4633 13.4935C15.4633 13.4935 15.4633 13.4935 15.4633 13.4935C15.4633 13.4935 15.4633 13.4935 15.4633 13.4935L15.4633 13.4935C15.4633 13.4935 15.4633 13.4935 15.4633 13.4935C15.4633 13.4935 15.4633 13.4935 15.4633 13.4935C15.4633 13.4935 15.4633 13.4935 15.4633 13.4935C15.4633 13.4935 15.4633 13.4935 15.4632 13.4935C15.4632 13.4935 15.4632 13.4935 15.4632 13.4935C15.4632 13.4935 15.4632 13.4935 15.4632 13.4935C15.4632 13.4935 15.4632 13.4935 15.4632 13.4935C15.4632 13.4935 15.4632 13.4935 15.4632 13.4935C15.4632 13.4935 15.4632 13.4935 15.4632 13.4935C15.4632 13.4935 15.4632 13.4935 15.4632 13.4936C15.4632 13.4936 15.4632 13.4936 15.4632 13.4936C15.4632 13.4936 15.4632 13.4936 15.4632 13.4936C15.4632 13.4936 15.4632 13.4936 15.4632 13.4936C15.4632 13.4936 15.4632 13.4936 15.4632 13.4936L15.4632 13.4936C15.4632 13.4936 15.4632 13.4936 15.4632 13.4936C15.4632 13.4936 15.4632 13.4936 15.4632 13.4936C15.4632 13.4936 15.4632 13.4936 15.4632 13.4936C15.4632 13.4936 15.4632 13.4936 15.4632 13.4936C15.4632 13.4936 15.4632 13.4936 15.4632 13.4936C15.4632 13.4936 15.4632 13.4936 15.4632 13.4936C15.4632 13.4936 15.4632 13.4936 15.4632 13.4936L15.4632 13.4936C15.4632 13.4936 15.4632 13.4936 15.4632 13.4936C15.4632 13.4936 15.4632 13.4936 15.4632 13.4936C15.4632 13.4936 15.4632 13.4936 15.4632 13.4936C15.4632 13.4936 15.4632 13.4936 15.4632 13.4936C15.4632 13.4936 15.4632 13.4936 15.4632 13.4936C15.4632 13.4936 15.4632 13.4936 15.4632 13.4936C15.4632 13.4936 15.4632 13.4936 15.4632 13.4936C15.4632 13.4936 15.4632 13.4936 15.4632 13.4936C15.4632 13.4936 15.4632 13.4936 15.4632 13.4936C15.4632 13.4936 15.4632 13.4936 15.4632 13.4936C15.4632 13.4936 15.4632 13.4936 15.4632 13.4936C15.4632 13.4936 15.4632 13.4936 15.4632 13.4936C15.4632 13.4936 15.4632 13.4936 15.4632 13.4936C15.4632 13.4936 15.4632 13.4936 15.4632 13.4936L15.4632 13.4936C15.4632 13.4936 15.4632 13.4936 15.4632 13.4936C15.4632 13.4936 15.4632 13.4936 15.4632 13.4936C15.4632 13.4936 15.4632 13.4936 15.4632 13.4936C15.4632 13.4936 15.4632 13.4936 15.4632 13.4936C15.4632 13.4936 15.4632 13.4936 15.4632 13.4936C15.4632 13.4936 15.4632 13.4936 15.4632 13.4936C15.4632 13.4936 15.4632 13.4936 15.4632 13.4936L15.4632 13.4936C15.4632 13.4936 15.4632 13.4936 15.4632 13.4936C15.4632 13.4936 15.4632 13.4936 15.4632 13.4936C15.4632 13.4936 15.4632 13.4936 15.4632 13.4936C15.4632 13.4936 15.4632 13.4936 15.4632 13.4936C15.4632 13.4936 15.4632 13.4936 15.4632 13.4936C15.4632 13.4936 15.4632 13.4936 15.4632 13.4936C15.4632 13.4936 15.4632 13.4936 15.4632 13.4936C15.4632 13.4936 15.4632 13.4936 15.4632 13.4936C15.4632 13.4936 15.4632 13.4936 15.4632 13.4936C15.4632 13.4936 15.4632 13.4936 15.4632 13.4936C15.4632 13.4936 15.4632 13.4936 15.4632 13.4936C15.4632 13.4936 15.4632 13.4936 15.4632 13.4936C15.4632 13.4936 15.4632 13.4936 15.4632 13.4936C15.4632 13.4936 15.4632 13.4936 15.4631 13.4936C15.4631 13.4936 15.4631 13.4936 15.4631 13.4936C15.4631 13.4936 15.4631 13.4936 15.4631 13.4936C15.4631 13.4936 15.4631 13.4936 15.4631 13.4936C15.4631 13.4936 15.4631 13.4936 15.4631 13.4936C15.4631 13.4936 15.4631 13.4936 15.4631 13.4936C15.4631 13.4936 15.4631 13.4936 15.4631 13.4937C15.4631 13.4937 15.4631 13.4937 15.4631 13.4937C15.4631 13.4937 15.4631 13.4937 15.4631 13.4937L15.4631 13.4937C15.4631 13.4937 15.4631 13.4937 15.4631 13.4937C15.4631 13.4937 15.4631 13.4937 15.4631 13.4937C15.4631 13.4937 15.4631 13.4937 15.4631 13.4937C15.4631 13.4937 15.4631 13.4937 15.4631 13.4937C15.4631 13.4937 15.4631 13.4937 15.4631 13.4937C15.4631 13.4937 15.4631 13.4937 15.4631 13.4937C15.4631 13.4937 15.4631 13.4937 15.4631 13.4937L15.4631 13.4937C15.4631 13.4937 15.4631 13.4937 15.4631 13.4937C15.4631 13.4937 15.4631 13.4937 15.4631 13.4937C15.4631 13.4937 15.4631 13.4937 15.4631 13.4937C15.4631 13.4937 15.4631 13.4937 15.4631 13.4937C15.4631 13.4937 15.4631 13.4937 15.4631 13.4937C15.4631 13.4937 15.4631 13.4937 15.4631 13.4937C15.4631 13.4937 15.4631 13.4937 15.4631 13.4937C15.4631 13.4937 15.4631 13.4937 15.4631 13.4937C15.4631 13.4937 15.4631 13.4937 15.4631 13.4937C15.4631 13.4937 15.4631 13.4937 15.4631 13.4937C15.4631 13.4937 15.4631 13.4937 15.4631 13.4937C15.4631 13.4937 15.4631 13.4937 15.4631 13.4937C15.4631 13.4937 15.4631 13.4937 15.4631 13.4937C15.4631 13.4937 15.4631 13.4937 15.4631 13.4937C15.4631 13.4937 15.4631 13.4937 15.4631 13.4937C15.4631 13.4937 15.4631 13.4937 15.4631 13.4937C15.4631 13.4937 15.4631 13.4937 15.4631 13.4937C15.4631 13.4937 15.4631 13.4937 15.4631 13.4937C15.4631 13.4937 15.4631 13.4937 15.4631 13.4937C15.4631 13.4937 15.4631 13.4937 15.4631 13.4937C15.4631 13.4937 15.4631 13.4937 15.4631 13.4937C15.4631 13.4937 15.4631 13.4937 15.4631 13.4937L15.4631 13.4937C15.4631 13.4937 15.4631 13.4937 15.4631 13.4937C15.4631 13.4937 15.4631 13.4937 15.4631 13.4937C15.4631 13.4937 15.4631 13.4937 15.4631 13.4937C15.4631 13.4937 15.4631 13.4937 15.4631 13.4937C15.4631 13.4937 15.4631 13.4937 15.4631 13.4937C15.4631 13.4937 15.4631 13.4937 15.4631 13.4937C15.4631 13.4937 15.4631 13.4937 15.4631 13.4937L15.4631 13.4937C15.4631 13.4937 15.4631 13.4937 15.4631 13.4937C15.4631 13.4937 15.4631 13.4937 15.4631 13.4937C15.4631 13.4937 15.4631 13.4937 15.4631 13.4937C15.4631 13.4937 15.4631 13.4937 15.4631 13.4937C15.4631 13.4937 15.4631 13.4937 15.4631 13.4937C15.4631 13.4937 15.4631 13.4937 15.4631 13.4937C15.4631 13.4937 15.4631 13.4937 15.4631 13.4937C15.4631 13.4937 15.463 13.4937 15.463 13.4937C15.463 13.4937 15.463 13.4937 15.463 13.4937C15.463 13.4937 15.463 13.4937 15.463 13.4937C15.463 13.4937 15.463 13.4937 15.463 13.4937C15.463 13.4937 15.463 13.4937 15.463 13.4937C15.463 13.4937 15.463 13.4937 15.463 13.4937C15.463 13.4937 15.463 13.4937 15.463 13.4938C15.463 13.4938 15.463 13.4938 15.463 13.4938C15.463 13.4938 15.463 13.4938 15.463 13.4938C15.463 13.4938 15.463 13.4938 15.463 13.4938C15.463 13.4938 15.463 13.4938 15.463 13.4938C15.463 13.4938 15.463 13.4938 15.463 13.4938C15.463 13.4938 15.463 13.4938 15.463 13.4938C15.463 13.4938 15.463 13.4938 15.463 13.4938C15.463 13.4938 15.463 13.4938 15.463 13.4938L15.463 13.4938C15.463 13.4938 15.463 13.4938 15.463 13.4938C15.463 13.4938 15.463 13.4938 15.463 13.4938C15.463 13.4938 15.463 13.4938 15.463 13.4938C15.463 13.4938 15.463 13.4938 15.463 13.4938C15.463 13.4938 15.463 13.4938 15.463 13.4938C15.463 13.4938 15.463 13.4938 15.463 13.4938C15.463 13.4938 15.463 13.4938 15.463 13.4938L15.463 13.4938C15.463 13.4938 15.463 13.4938 15.463 13.4938C15.463 13.4938 15.463 13.4938 15.463 13.4938C15.463 13.4938 15.463 13.4938 15.463 13.4938C15.463 13.4938 15.463 13.4938 15.463 13.4938C15.463 13.4938 15.463 13.4938 15.463 13.4938C15.463 13.4938 15.463 13.4938 15.463 13.4938C15.463 13.4938 15.463 13.4938 15.463 13.4938L15.463 13.4938C15.463 13.4938 15.463 13.4938 15.463 13.4938C15.463 13.4938 15.463 13.4938 15.463 13.4938C15.463 13.4938 15.463 13.4938 15.463 13.4938C15.463 13.4938 15.463 13.4938 15.463 13.4938C15.463 13.4938 15.463 13.4938 15.463 13.4938C15.463 13.4938 15.463 13.4938 15.463 13.4938C15.463 13.4938 15.463 13.4938 15.463 13.4938C15.463 13.4938 15.463 13.4938 15.463 13.4938C15.463 13.4938 15.463 13.4938 15.463 13.4938C15.463 13.4938 15.463 13.4938 15.463 13.4938C15.463 13.4938 15.463 13.4938 15.463 13.4938C15.463 13.4938 15.463 13.4938 15.463 13.4938C15.463 13.4938 15.463 13.4938 15.463 13.4938C15.463 13.4938 15.463 13.4938 15.463 13.4938C15.463 13.4938 15.463 13.4938 15.463 13.4938C15.463 13.4938 15.463 13.4938 15.463 13.4938C15.463 13.4938 15.463 13.4938 15.463 13.4938C15.463 13.4938 15.463 13.4938 15.463 13.4938C15.463 13.4938 15.463 13.4938 15.463 13.4938C15.463 13.4938 15.463 13.4938 15.463 13.4938C15.463 13.4938 15.463 13.4938 15.463 13.4938C15.463 13.4938 15.463 13.4938 15.463 13.4938L15.463 13.4938C15.463 13.4938 15.463 13.4938 15.463 13.4938C15.463 13.4938 15.4629 13.4938 15.4629 13.4938C15.4629 13.4938 15.4629 13.4938 15.4629 13.4938C15.4629 13.4938 15.4629 13.4938 15.4629 13.4938C15.4629 13.4938 15.4629 13.4938 15.4629 13.4938C15.4629 13.4938 15.4629 13.4938 15.4629 13.4938C15.4629 13.4938 15.4629 13.4938 15.4629 13.4938L15.4629 13.4938C15.4629 13.4939 15.4629 13.4939 15.4629 13.4939C15.4629 13.4939 15.4629 13.4939 15.4629 13.4939C15.4629 13.4939 15.4629 13.4939 15.4629 13.4939C15.4629 13.4939 15.4629 13.4939 15.4629 13.4939C15.4629 13.4939 15.4629 13.4939 15.4629 13.4939C15.4629 13.4939 15.4629 13.4939 15.4629 13.4939C15.4629 13.4939 15.4629 13.4939 15.4629 13.4939L15.4629 13.4939C15.4629 13.4939 15.4629 13.4939 15.4629 13.4939C15.4629 13.4939 15.4629 13.4939 15.4629 13.4939C15.4629 13.4939 15.4629 13.4939 15.4629 13.4939C15.4629 13.4939 15.4629 13.4939 15.4629 13.4939C15.4629 13.4939 15.4629 13.4939 15.4629 13.4939C15.4629 13.4939 15.4629 13.4939 15.4629 13.4939C15.4629 13.4939 15.4629 13.4939 15.4629 13.4939C15.4629 13.4939 15.4629 13.4939 15.4629 13.4939C15.4629 13.4939 15.4629 13.4939 15.4629 13.4939C15.4629 13.4939 15.4629 13.4939 15.4629 13.4939C15.4629 13.4939 15.4629 13.4939 15.4629 13.4939C15.4629 13.4939 15.4629 13.4939 15.4629 13.4939C15.4629 13.4939 15.4629 13.4939 15.4629 13.4939C15.4629 13.4939 15.4629 13.4939 15.4629 13.4939C15.4629 13.4939 15.4629 13.4939 15.4629 13.4939C15.4629 13.4939 15.4629 13.4939 15.4629 13.4939C15.4629 13.4939 15.4629 13.4939 15.4629 13.4939C15.4629 13.4939 15.4629 13.4939 15.4629 13.4939C15.4629 13.4939 15.4629 13.4939 15.4629 13.4939C15.4629 13.4939 15.4629 13.4939 15.4629 13.4939C15.4629 13.4939 15.4629 13.4939 15.4629 13.4939C15.4629 13.4939 15.4629 13.4939 15.4629 13.4939L15.4629 13.4939C15.4629 13.4939 15.4629 13.4939 15.4629 13.4939C15.4629 13.4939 15.4629 13.4939 15.4629 13.4939C15.4629 13.4939 15.4629 13.4939 15.4629 13.4939C15.4629 13.4939 15.4629 13.4939 15.4629 13.4939C15.4629 13.4939 15.4629 13.4939 15.4629 13.4939C15.4629 13.4939 15.4629 13.4939 15.4629 13.4939C15.4629 13.4939 15.4629 13.4939 15.4629 13.4939L15.4629 13.4939C15.4629 13.4939 15.4629 13.4939 15.4629 13.4939C15.4629 13.4939 15.4629 13.4939 15.4629 13.4939C15.4629 13.4939 15.4629 13.4939 15.4629 13.4939C15.4629 13.4939 15.4629 13.4939 15.4629 13.4939C15.4629 13.4939 15.4629 13.4939 15.4629 13.4939C15.4629 13.4939 15.4629 13.4939 15.4629 13.4939C15.4629 13.4939 15.4629 13.4939 15.4629 13.4939L15.4629 13.4939C15.4629 13.4939 15.4629 13.4939 15.4629 13.4939C15.4629 13.4939 15.4629 13.4939 15.4629 13.4939C15.4629 13.4939 15.4629 13.4939 15.4628 13.4939C15.4628 13.4939 15.4628 13.4939 15.4628 13.4939C15.4628 13.4939 15.4628 13.4939 15.4628 13.4939C15.4628 13.4939 15.4628 13.4939 15.4628 13.4939C15.4628 13.4939 15.4628 13.4939 15.4628 13.4939L15.4628 13.4939C15.4628 13.4939 15.4628 13.4939 15.4628 13.4939C15.4628 13.494 15.4628 13.494 15.4628 13.494C15.4628 13.494 15.4628 13.494 15.4628 13.494C15.4628 13.494 15.4628 13.494 15.4628 13.494C15.4628 13.494 15.4628 13.494 15.4628 13.494C15.4628 13.494 15.4628 13.494 15.4628 13.494C15.4628 13.494 15.4628 13.494 15.4628 13.494C15.4628 13.494 15.4628 13.494 15.4628 13.494C15.4628 13.494 15.4628 13.494 15.4628 13.494C15.4628 13.494 15.4628 13.494 15.4628 13.494C15.4628 13.494 15.4628 13.494 15.4628 13.494C15.4628 13.494 15.4628 13.494 15.4628 13.494C15.4628 13.494 15.4628 13.494 15.4628 13.494C15.4628 13.494 15.4628 13.494 15.4628 13.494L15.4628 13.494C15.4628 13.494 15.4628 13.494 15.4628 13.494C15.4628 13.494 15.4628 13.494 15.4628 13.494C15.4628 13.494 15.4628 13.494 15.4628 13.494C15.4628 13.494 15.4628 13.494 15.4628 13.494C15.4628 13.494 15.4628 13.494 15.4628 13.494C15.4628 13.494 15.4628 13.494 15.4628 13.494C15.4628 13.494 15.4628 13.494 15.4628 13.494L15.4628 13.494C15.4628 13.494 15.4628 13.494 15.4628 13.494C15.4628 13.494 15.4628 13.494 15.4628 13.494C15.4628 13.494 15.4628 13.494 15.4628 13.494C15.4628 13.494 15.4628 13.494 15.4628 13.494C15.4628 13.494 15.4628 13.494 15.4628 13.494C15.4628 13.494 15.4628 13.494 15.4628 13.494C15.4628 13.494 15.4628 13.494 15.4628 13.494L15.4628 13.494C15.4628 13.494 15.4628 13.494 15.4628 13.494C15.4628 13.494 15.4628 13.494 15.4628 13.494C15.4628 13.494 15.4628 13.494 15.4628 13.494C15.4628 13.494 15.4628 13.494 15.4628 13.494C15.4628 13.494 15.4628 13.494 15.4628 13.494C15.4628 13.494 15.4628 13.494 15.4628 13.494C15.4628 13.494 15.4628 13.494 15.4628 13.494L15.4628 13.494C15.4628 13.494 15.4628 13.494 15.4628 13.494C15.4628 13.494 15.4628 13.494 15.4628 13.494C15.4628 13.494 15.4628 13.494 15.4628 13.494C15.4628 13.494 15.4628 13.494 15.4628 13.494C15.4628 13.494 15.4628 13.494 15.4628 13.494C15.4628 13.494 15.4628 13.494 15.4628 13.494C15.4628 13.494 15.4628 13.494 15.4628 13.494C15.4628 13.494 15.4628 13.494 15.4628 13.494C15.4628 13.494 15.4628 13.494 15.4628 13.494C15.4628 13.494 15.4628 13.494 15.4628 13.494C15.4628 13.494 15.4628 13.494 15.4628 13.494C15.4628 13.494 15.4628 13.494 15.4627 13.494C15.4627 13.494 15.4627 13.494 15.4627 13.494C15.4627 13.494 15.4627 13.494 15.4627 13.494C15.4627 13.494 15.4627 13.494 15.4627 13.494C15.4627 13.494 15.4627 13.494 15.4627 13.494C15.4627 13.494 15.4627 13.494 15.4627 13.494C15.4627 13.494 15.4627 13.494 15.4627 13.4941C15.4627 13.4941 15.4627 13.4941 15.4627 13.4941C15.4627 13.4941 15.4627 13.4941 15.4627 13.4941C15.4627 13.4941 15.4627 13.4941 15.4627 13.4941C15.4627 13.4941 15.4627 13.4941 15.4627 13.4941L15.4627 13.4941C15.4627 13.4941 15.4627 13.4941 15.4627 13.4941C15.4627 13.4941 15.4627 13.4941 15.4627 13.4941C15.4627 13.4941 15.4627 13.4941 15.4627 13.4941C15.4627 13.4941 15.4627 13.4941 15.4627 13.4941C15.4627 13.4941 15.4627 13.4941 15.4627 13.4941C15.4627 13.4941 15.4627 13.4941 15.4627 13.4941C15.4627 13.4941 15.4627 13.4941 15.4627 13.4941L15.4627 13.4941C15.4627 13.4941 15.4627 13.4941 15.4627 13.4941C15.4627 13.4941 15.4627 13.4941 15.4627 13.4941C15.4627 13.4941 15.4627 13.4941 15.4627 13.4941C15.4627 13.4941 15.4627 13.4941 15.4627 13.4941C15.4627 13.4941 15.4627 13.4941 15.4627 13.4941C15.4627 13.4941 15.4627 13.4941 15.4627 13.4941C15.4627 13.4941 15.4627 13.4941 15.4627 13.4941L15.4627 13.4941C15.4627 13.4941 15.4627 13.4941 15.4627 13.4941C15.4627 13.4941 15.4627 13.4941 15.4627 13.4941C15.4627 13.4941 15.4627 13.4941 15.4627 13.4941C15.4627 13.4941 15.4627 13.4941 15.4627 13.4941C15.4627 13.4941 15.4627 13.4941 15.4627 13.4941C15.4627 13.4941 15.4627 13.4941 15.4627 13.4941C15.4627 13.4941 15.4627 13.4941 15.4627 13.4941C15.4627 13.4941 15.4627 13.4941 15.4627 13.4941C15.4627 13.4941 15.4627 13.4941 15.4627 13.4941C15.4627 13.4941 15.4627 13.4941 15.4627 13.4941C15.4627 13.4941 15.4627 13.4941 15.4627 13.4941C15.4627 13.4941 15.4627 13.4941 15.4627 13.4941C15.4627 13.4941 15.4627 13.4941 15.4627 13.4941C15.4627 13.4941 15.4627 13.4941 15.4627 13.4941C15.4627 13.4941 15.4627 13.4941 15.4627 13.4941C15.4627 13.4941 15.4627 13.4941 15.4627 13.4941C15.4627 13.4941 15.4627 13.4941 15.4627 13.4941C15.4627 13.4941 15.4627 13.4941 15.4627 13.4941C15.4627 13.4941 15.4627 13.4941 15.4627 13.4941C15.4627 13.4941 15.4627 13.4941 15.4627 13.4941C15.4627 13.4941 15.4627 13.4941 15.4627 13.4941C15.4627 13.4941 15.4627 13.4941 15.4627 13.4941L15.4627 13.4941C15.4627 13.4941 15.4627 13.4941 15.4627 13.4941C15.4627 13.4941 15.4627 13.4941 15.4627 13.4941C15.4627 13.4941 15.4627 13.4941 15.4627 13.4941C15.4627 13.4941 15.4627 13.4941 15.4627 13.4941C15.4627 13.4941 15.4627 13.4941 15.4627 13.4941C15.4627 13.4941 15.4627 13.4941 15.4626 13.4941C15.4626 13.4941 15.4626 13.4941 15.4626 13.4941L15.4626 13.4941C15.4626 13.4941 15.4626 13.4941 15.4626 13.4941C15.4626 13.4941 15.4626 13.4941 15.4626 13.4941C15.4626 13.4941 15.4626 13.4941 15.4626 13.4941C15.4626 13.4941 15.4626 13.4941 15.4626 13.4942C15.4626 13.4942 15.4626 13.4942 15.4626 13.4942C15.4626 13.4942 15.4626 13.4942 15.4626 13.4942C15.4626 13.4942 15.4626 13.4942 15.4626 13.4942L15.4626 13.4942C15.4626 13.4942 15.4626 13.4942 15.4626 13.4942C15.4626 13.4942 15.4626 13.4942 15.4626 13.4942C15.4626 13.4942 15.4626 13.4942 15.4626 13.4942C15.4626 13.4942 15.4626 13.4942 15.4626 13.4942C15.4626 13.4942 15.4626 13.4942 15.4626 13.4942C15.4626 13.4942 15.4626 13.4942 15.4626 13.4942C15.4626 13.4942 15.4626 13.4942 15.4626 13.4942C15.4626 13.4942 15.4626 13.4942 15.4626 13.4942C15.4626 13.4942 15.4626 13.4942 15.4626 13.4942C15.4626 13.4942 15.4626 13.4942 15.4626 13.4942C15.4626 13.4942 15.4626 13.4942 15.4626 13.4942C15.4626 13.4942 15.4626 13.4942 15.4626 13.4942C15.4626 13.4942 15.4626 13.4942 15.4626 13.4942C15.4626 13.4942 15.4626 13.4942 15.4626 13.4942C15.4626 13.4942 15.4626 13.4942 15.4626 13.4942C15.4626 13.4942 15.4626 13.4942 15.4626 13.4942C15.4626 13.4942 15.4626 13.4942 15.4626 13.4942C15.4626 13.4942 15.4626 13.4942 15.4626 13.4942C15.4626 13.4942 15.4626 13.4942 15.4626 13.4942C15.4626 13.4942 15.4626 13.4942 15.4626 13.4942C15.4626 13.4942 15.4626 13.4942 15.4626 13.4942C15.4626 13.4942 15.4626 13.4942 15.4626 13.4942L15.4626 13.4942C15.4626 13.4942 15.4626 13.4942 15.4626 13.4942C15.4626 13.4942 15.4626 13.4942 15.4626 13.4942C15.4626 13.4942 15.4626 13.4942 15.4626 13.4942C15.4626 13.4942 15.4626 13.4942 15.4626 13.4942C15.4626 13.4942 15.4626 13.4942 15.4626 13.4942C15.4626 13.4942 15.4626 13.4942 15.4626 13.4942C15.4626 13.4942 15.4626 13.4942 15.4626 13.4942L15.4626 13.4942C15.4626 13.4942 15.4626 13.4942 15.4626 13.4942C15.4626 13.4942 15.4626 13.4942 15.4626 13.4942C15.4626 13.4942 15.4626 13.4942 15.4626 13.4942C15.4626 13.4942 15.4626 13.4942 15.4626 13.4942C15.4626 13.4942 15.4626 13.4942 15.4626 13.4942C15.4626 13.4942 15.4626 13.4942 15.4626 13.4942C15.4626 13.4942 15.4626 13.4942 15.4626 13.4942C15.4626 13.4942 15.4626 13.4942 15.4626 13.4942C15.4626 13.4942 15.4626 13.4942 15.4626 13.4942C15.4626 13.4942 15.4626 13.4942 15.4626 13.4942C15.4626 13.4942 15.4626 13.4942 15.4626 13.4942C15.4626 13.4942 15.4626 13.4942 15.4626 13.4942C15.4626 13.4942 15.4626 13.4942 15.4626 13.4942C15.4626 13.4942 15.4626 13.4942 15.4626 13.4942C15.4626 13.4942 15.4626 13.4942 15.4625 13.4942C15.4625 13.4942 15.4625 13.4942 15.4625 13.4942C15.4625 13.4942 15.4625 13.4942 15.4625 13.4942C15.4625 13.4942 15.4625 13.4942 15.4625 13.4942C15.4625 13.4942 15.4625 13.4942 15.4625 13.4942C15.4625 13.4942 15.4625 13.4942 15.4625 13.4942C15.4625 13.4942 15.4625 13.4942 15.4625 13.4943C15.4625 13.4943 15.4625 13.4943 15.4625 13.4943L15.4625 13.4943C15.4625 13.4943 15.4625 13.4943 15.4625 13.4943C15.4625 13.4943 15.4625 13.4943 15.4625 13.4943C15.4625 13.4943 15.4625 13.4943 15.4625 13.4943C15.4625 13.4943 15.4625 13.4943 15.4625 13.4943C15.4625 13.4943 15.4625 13.4943 15.4625 13.4943C15.4625 13.4943 15.4625 13.4943 15.4625 13.4943C15.4625 13.4943 15.4625 13.4943 15.4625 13.4943L15.4625 13.4943C15.4625 13.4943 15.4625 13.4943 15.4625 13.4943C15.4625 13.4943 15.4625 13.4943 15.4625 13.4943C15.4625 13.4943 15.4625 13.4943 15.4625 13.4943C15.4625 13.4943 15.4625 13.4943 15.4625 13.4943C15.4625 13.4943 15.4625 13.4943 15.4625 13.4943C15.4625 13.4943 15.4625 13.4943 15.4625 13.4943C15.4625 13.4943 15.4625 13.4943 15.4625 13.4943C15.4625 13.4943 15.4625 13.4943 15.4625 13.4943C15.4625 13.4943 15.4625 13.4943 15.4625 13.4943C15.4625 13.4943 15.4625 13.4943 15.4625 13.4943C15.4625 13.4943 15.4625 13.4943 15.4625 13.4943C15.4625 13.4943 15.4625 13.4943 15.4625 13.4943C15.4625 13.4943 15.4625 13.4943 15.4625 13.4943C15.4625 13.4943 15.4625 13.4943 15.4625 13.4943C15.4625 13.4943 15.4625 13.4943 15.4625 13.4943C15.4625 13.4943 15.4625 13.4943 15.4625 13.4943C15.4625 13.4943 15.4625 13.4943 15.4625 13.4943C15.4625 13.4943 15.4625 13.4943 15.4625 13.4943C15.4625 13.4943 15.4625 13.4943 15.4625 13.4943C15.4625 13.4943 15.4625 13.4943 15.4625 13.4943C15.4625 13.4943 15.4625 13.4943 15.4625 13.4943C15.4625 13.4943 15.4625 13.4943 15.4625 13.4943L15.4625 13.4943C15.4625 13.4943 15.4625 13.4943 15.4625 13.4943C15.4625 13.4943 15.4625 13.4943 15.4625 13.4943C15.4625 13.4943 15.4625 13.4943 15.4625 13.4943C15.4625 13.4943 15.4625 13.4943 15.4625 13.4943C15.4625 13.4943 15.4625 13.4943 15.4625 13.4943C15.4625 13.4943 15.4625 13.4943 15.4625 13.4943C15.4625 13.4943 15.4625 13.4943 15.4625 13.4943L15.4625 13.4943C15.4625 13.4943 15.4625 13.4943 15.4625 13.4943C15.4625 13.4943 15.4625 13.4943 15.4625 13.4943C15.4625 13.4943 15.4625 13.4943 15.4625 13.4943C15.4625 13.4943 15.4625 13.4943 15.4625 13.4943C15.4625 13.4943 15.4625 13.4943 15.4625 13.4943C15.4625 13.4943 15.4625 13.4943 15.4625 13.4943C15.4625 13.4943 15.4625 13.4943 15.4625 13.4943C15.4625 13.4943 15.4625 13.4943 15.4625 13.4943C15.4625 13.4943 15.4625 13.4943 15.4625 13.4943C15.4624 13.4943 15.4624 13.4943 15.4624 13.4943C15.4624 13.4943 15.4624 13.4943 15.4624 13.4943C15.4624 13.4943 15.4624 13.4943 15.4624 13.4943C15.4624 13.4943 15.4624 13.4943 15.4624 13.4943C15.4624 13.4943 15.4624 13.4943 15.4624 13.4943L15.4624 13.4943C15.4624 13.4944 15.4624 13.4944 15.4624 13.4944C15.4624 13.4944 15.4624 13.4944 15.4624 13.4944C15.4624 13.4944 15.4624 13.4944 15.4624 13.4944C15.4624 13.4944 15.4624 13.4944 15.4624 13.4944C15.4624 13.4944 15.4624 13.4944 15.4624 13.4944C15.4624 13.4944 15.4624 13.4944 15.4624 13.4944C15.4624 13.4944 15.4624 13.4944 15.4624 13.4944L15.4624 13.4944C15.4624 13.4944 15.4624 13.4944 15.4624 13.4944C15.4624 13.4944 15.4624 13.4944 15.4624 13.4944C15.4624 13.4944 15.4624 13.4944 15.4624 13.4944C15.4624 13.4944 15.4624 13.4944 15.4624 13.4944C15.4624 13.4944 15.4624 13.4944 15.4624 13.4944C15.4624 13.4944 15.4624 13.4944 15.4624 13.4944C15.4624 13.4944 15.4624 13.4944 15.4624 13.4944C15.4624 13.4944 15.4624 13.4944 15.4624 13.4944C15.4624 13.4944 15.4624 13.4944 15.4624 13.4944C15.4624 13.4944 15.4624 13.4944 15.4624 13.4944C15.4624 13.4944 15.4624 13.4944 15.4624 13.4944C15.4624 13.4944 15.4624 13.4944 15.4624 13.4944C15.4624 13.4944 15.4624 13.4944 15.4624 13.4944C15.4624 13.4944 15.4624 13.4944 15.4624 13.4944L15.4624 13.4944C15.4624 13.4944 15.4624 13.4944 15.4624 13.4944C15.4624 13.4944 15.4624 13.4944 15.4624 13.4944C15.4624 13.4944 15.4624 13.4944 15.4624 13.4944C15.4624 13.4944 15.4624 13.4944 15.4624 13.4944C15.4624 13.4944 15.4624 13.4944 15.4624 13.4944C15.4624 13.4944 15.4624 13.4944 15.4624 13.4944C15.4624 13.4944 15.4624 13.4944 15.4624 13.4944L15.4624 13.4944C15.4624 13.4944 15.4624 13.4944 15.4624 13.4944C15.4624 13.4944 15.4624 13.4944 15.4624 13.4944C15.4624 13.4944 15.4624 13.4944 15.4624 13.4944C15.4624 13.4944 15.4624 13.4944 15.4624 13.4944C15.4624 13.4944 15.4624 13.4944 15.4624 13.4944C15.4624 13.4944 15.4624 13.4944 15.4624 13.4944C15.4624 13.4944 15.4624 13.4944 15.4624 13.4944L15.6038 13.6358C15.6038 13.6358 15.6038 13.6358 15.6038 13.6358C15.6038 13.6358 15.6038 13.6358 15.6038 13.6358C15.6038 13.6358 15.6038 13.6358 15.6038 13.6358C15.6038 13.6358 15.6038 13.6358 15.6038 13.6358C15.6038 13.6358 15.6038 13.6358 15.6038 13.6358C15.6038 13.6358 15.6038 13.6358 15.6038 13.6358C15.6038 13.6358 15.6038 13.6358 15.6038 13.6358L15.6038 13.6358C15.6038 13.6358 15.6038 13.6358 15.6038 13.6358C15.6038 13.6358 15.6038 13.6358 15.6038 13.6358C15.6038 13.6358 15.6038 13.6358 15.6038 13.6358C15.6038 13.6358 15.6038 13.6358 15.6038 13.6358C15.6038 13.6358 15.6038 13.6358 15.6038 13.6358C15.6038 13.6358 15.6038 13.6358 15.6038 13.6358C15.6038 13.6358 15.6038 13.6358 15.6038 13.6358L15.6038 13.6358C15.6038 13.6358 15.6038 13.6358 15.6038 13.6358C15.6038 13.6358 15.6038 13.6358 15.6038 13.6358C15.6038 13.6358 15.6038 13.6358 15.6038 13.6358C15.6038 13.6358 15.6038 13.6358 15.6038 13.6358C15.6038 13.6358 15.6038 13.6358 15.6038 13.6358C15.6038 13.6358 15.6038 13.6358 15.6038 13.6358C15.6038 13.6358 15.6038 13.6358 15.6038 13.6358C15.6038 13.6358 15.6038 13.6358 15.6038 13.6358C15.6038 13.6358 15.6038 13.6358 15.6038 13.6358C15.6038 13.6358 15.6038 13.6358 15.6038 13.6358C15.6038 13.6358 15.6038 13.6358 15.6038 13.6358C15.6038 13.6358 15.6038 13.6358 15.6038 13.6358C15.6038 13.6358 15.6038 13.6358 15.6038 13.6358C15.6038 13.6358 15.6038 13.6358 15.6038 13.6358L15.6038 13.6358C15.6038 13.6358 15.6038 13.6358 15.6038 13.6358C15.6039 13.6358 15.6039 13.6358 15.6039 13.6358C15.6039 13.6358 15.6039 13.6358 15.6039 13.6358C15.6039 13.6358 15.6039 13.6358 15.6039 13.6358C15.6039 13.6358 15.6039 13.6358 15.6039 13.6358C15.6039 13.6358 15.6039 13.6358 15.6039 13.6358C15.6039 13.6358 15.6039 13.6358 15.6039 13.6358L15.6039 13.6358C15.6039 13.6358 15.6039 13.6358 15.6039 13.6358C15.6039 13.6358 15.6039 13.6358 15.6039 13.6358C15.6039 13.6358 15.6039 13.6358 15.6039 13.6358C15.6039 13.6358 15.6039 13.6358 15.6039 13.6358C15.6039 13.6358 15.6039 13.6358 15.6039 13.6358C15.6039 13.6358 15.6039 13.6358 15.6039 13.6358C15.6039 13.6358 15.6039 13.6358 15.6039 13.6358C15.6039 13.6358 15.6039 13.6358 15.6039 13.6358C15.6039 13.6358 15.6039 13.6358 15.6039 13.6358C15.6039 13.6358 15.6039 13.6358 15.6039 13.6358C15.6039 13.6358 15.6039 13.6358 15.6039 13.6357C15.6039 13.6357 15.6039 13.6357 15.6039 13.6357C15.6039 13.6357 15.6039 13.6357 15.6039 13.6357C15.6039 13.6357 15.6039 13.6357 15.6039 13.6357L15.6039 13.6357C15.6039 13.6357 15.6039 13.6357 15.6039 13.6357C15.6039 13.6357 15.6039 13.6357 15.6039 13.6357C15.6039 13.6357 15.6039 13.6357 15.6039 13.6357C15.6039 13.6357 15.6039 13.6357 15.6039 13.6357C15.6039 13.6357 15.6039 13.6357 15.6039 13.6357C15.6039 13.6357 15.6039 13.6357 15.6039 13.6357C15.6039 13.6357 15.6039 13.6357 15.6039 13.6357L15.6039 13.6357C15.6039 13.6357 15.6039 13.6357 15.6039 13.6357C15.6039 13.6357 15.6039 13.6357 15.6039 13.6357C15.6039 13.6357 15.6039 13.6357 15.6039 13.6357C15.6039 13.6357 15.6039 13.6357 15.6039 13.6357C15.6039 13.6357 15.6039 13.6357 15.6039 13.6357C15.6039 13.6357 15.6039 13.6357 15.6039 13.6357C15.6039 13.6357 15.6039 13.6357 15.6039 13.6357C15.6039 13.6357 15.6039 13.6357 15.6039 13.6357C15.6039 13.6357 15.6039 13.6357 15.6039 13.6357C15.6039 13.6357 15.6039 13.6357 15.6039 13.6357C15.6039 13.6357 15.6039 13.6357 15.6039 13.6357C15.6039 13.6357 15.6039 13.6357 15.6039 13.6357C15.6039 13.6357 15.6039 13.6357 15.6039 13.6357C15.6039 13.6357 15.6039 13.6357 15.6039 13.6357C15.6039 13.6357 15.6039 13.6357 15.6039 13.6357C15.6039 13.6357 15.6039 13.6357 15.6039 13.6357C15.6039 13.6357 15.6039 13.6357 15.6039 13.6357C15.6039 13.6357 15.6039 13.6357 15.6039 13.6357C15.6039 13.6357 15.6039 13.6357 15.6039 13.6357C15.6039 13.6357 15.6039 13.6357 15.6039 13.6357C15.6039 13.6357 15.6039 13.6357 15.6039 13.6357C15.6039 13.6357 15.6039 13.6357 15.6039 13.6357L15.6039 13.6357C15.6039 13.6357 15.6039 13.6357 15.6039 13.6357C15.6039 13.6357 15.6039 13.6357 15.6039 13.6357C15.6039 13.6357 15.6039 13.6357 15.6039 13.6357C15.604 13.6357 15.604 13.6357 15.604 13.6357C15.604 13.6357 15.604 13.6357 15.604 13.6357C15.604 13.6357 15.604 13.6357 15.604 13.6357C15.604 13.6357 15.604 13.6357 15.604 13.6357L15.604 13.6357C15.604 13.6357 15.604 13.6357 15.604 13.6357C15.604 13.6357 15.604 13.6357 15.604 13.6357C15.604 13.6357 15.604 13.6357 15.604 13.6357C15.604 13.6357 15.604 13.6357 15.604 13.6357C15.604 13.6357 15.604 13.6357 15.604 13.6357C15.604 13.6357 15.604 13.6357 15.604 13.6357C15.604 13.6357 15.604 13.6357 15.604 13.6357C15.604 13.6357 15.604 13.6357 15.604 13.6357C15.604 13.6357 15.604 13.6357 15.604 13.6357C15.604 13.6357 15.604 13.6357 15.604 13.6357C15.604 13.6357 15.604 13.6357 15.604 13.6357C15.604 13.6357 15.604 13.6357 15.604 13.6357C15.604 13.6357 15.604 13.6357 15.604 13.6356C15.604 13.6356 15.604 13.6356 15.604 13.6356C15.604 13.6356 15.604 13.6356 15.604 13.6356C15.604 13.6356 15.604 13.6356 15.604 13.6356C15.604 13.6356 15.604 13.6356 15.604 13.6356C15.604 13.6356 15.604 13.6356 15.604 13.6356C15.604 13.6356 15.604 13.6356 15.604 13.6356C15.604 13.6356 15.604 13.6356 15.604 13.6356C15.604 13.6356 15.604 13.6356 15.604 13.6356C15.604 13.6356 15.604 13.6356 15.604 13.6356L15.604 13.6356C15.604 13.6356 15.604 13.6356 15.604 13.6356C15.604 13.6356 15.604 13.6356 15.604 13.6356C15.604 13.6356 15.604 13.6356 15.604 13.6356C15.604 13.6356 15.604 13.6356 15.604 13.6356C15.604 13.6356 15.604 13.6356 15.604 13.6356C15.604 13.6356 15.604 13.6356 15.604 13.6356C15.604 13.6356 15.604 13.6356 15.604 13.6356L15.604 13.6356C15.604 13.6356 15.604 13.6356 15.604 13.6356C15.604 13.6356 15.604 13.6356 15.604 13.6356C15.604 13.6356 15.604 13.6356 15.604 13.6356C15.604 13.6356 15.604 13.6356 15.604 13.6356C15.604 13.6356 15.604 13.6356 15.604 13.6356C15.604 13.6356 15.604 13.6356 15.604 13.6356C15.604 13.6356 15.604 13.6356 15.604 13.6356C15.604 13.6356 15.604 13.6356 15.604 13.6356C15.604 13.6356 15.604 13.6356 15.604 13.6356C15.604 13.6356 15.604 13.6356 15.604 13.6356C15.604 13.6356 15.604 13.6356 15.604 13.6356C15.604 13.6356 15.604 13.6356 15.604 13.6356C15.604 13.6356 15.604 13.6356 15.604 13.6356C15.604 13.6356 15.604 13.6356 15.604 13.6356C15.604 13.6356 15.604 13.6356 15.604 13.6356C15.604 13.6356 15.604 13.6356 15.604 13.6356C15.604 13.6356 15.604 13.6356 15.604 13.6356C15.604 13.6356 15.604 13.6356 15.604 13.6356C15.604 13.6356 15.604 13.6356 15.604 13.6356C15.604 13.6356 15.604 13.6356 15.604 13.6356C15.604 13.6356 15.6041 13.6356 15.6041 13.6356C15.6041 13.6356 15.6041 13.6356 15.6041 13.6356L15.6041 13.6356C15.6041 13.6356 15.6041 13.6356 15.6041 13.6356C15.6041 13.6356 15.6041 13.6356 15.6041 13.6356C15.6041 13.6356 15.6041 13.6356 15.6041 13.6356C15.6041 13.6356 15.6041 13.6356 15.6041 13.6356C15.6041 13.6356 15.6041 13.6356 15.6041 13.6356C15.6041 13.6356 15.6041 13.6356 15.6041 13.6356C15.6041 13.6356 15.6041 13.6356 15.6041 13.6356L15.6041 13.6356C15.6041 13.6356 15.6041 13.6356 15.6041 13.6356C15.6041 13.6356 15.6041 13.6356 15.6041 13.6356C15.6041 13.6356 15.6041 13.6356 15.6041 13.6356C15.6041 13.6356 15.6041 13.6356 15.6041 13.6356C15.6041 13.6356 15.6041 13.6356 15.6041 13.6356C15.6041 13.6356 15.6041 13.6356 15.6041 13.6356C15.6041 13.6356 15.6041 13.6356 15.6041 13.6355L15.6041 13.6355C15.6041 13.6355 15.6041 13.6355 15.6041 13.6355C15.6041 13.6355 15.6041 13.6355 15.6041 13.6355C15.6041 13.6355 15.6041 13.6355 15.6041 13.6355C15.6041 13.6355 15.6041 13.6355 15.6041 13.6355C15.6041 13.6355 15.6041 13.6355 15.6041 13.6355C15.6041 13.6355 15.6041 13.6355 15.6041 13.6355C15.6041 13.6355 15.6041 13.6355 15.6041 13.6355C15.6041 13.6355 15.6041 13.6355 15.6041 13.6355C15.6041 13.6355 15.6041 13.6355 15.6041 13.6355C15.6041 13.6355 15.6041 13.6355 15.6041 13.6355C15.6041 13.6355 15.6041 13.6355 15.6041 13.6355C15.6041 13.6355 15.6041 13.6355 15.6041 13.6355C15.6041 13.6355 15.6041 13.6355 15.6041 13.6355C15.6041 13.6355 15.6041 13.6355 15.6041 13.6355C15.6041 13.6355 15.6041 13.6355 15.6041 13.6355C15.6041 13.6355 15.6041 13.6355 15.6041 13.6355C15.6041 13.6355 15.6041 13.6355 15.6041 13.6355C15.6041 13.6355 15.6041 13.6355 15.6041 13.6355C15.6041 13.6355 15.6041 13.6355 15.6041 13.6355C15.6041 13.6355 15.6041 13.6355 15.6041 13.6355C15.6041 13.6355 15.6041 13.6355 15.6041 13.6355C15.6041 13.6355 15.6041 13.6355 15.6041 13.6355L15.6041 13.6355C15.6041 13.6355 15.6041 13.6355 15.6041 13.6355C15.6041 13.6355 15.6041 13.6355 15.6041 13.6355C15.6041 13.6355 15.6041 13.6355 15.6041 13.6355C15.6041 13.6355 15.6041 13.6355 15.6041 13.6355C15.6041 13.6355 15.6041 13.6355 15.6041 13.6355C15.6041 13.6355 15.6041 13.6355 15.6041 13.6355C15.6041 13.6355 15.6041 13.6355 15.6041 13.6355L15.6041 13.6355C15.6041 13.6355 15.6041 13.6355 15.6041 13.6355C15.6041 13.6355 15.6041 13.6355 15.6041 13.6355C15.6041 13.6355 15.6041 13.6355 15.6041 13.6355C15.6041 13.6355 15.6041 13.6355 15.6041 13.6355C15.6041 13.6355 15.6041 13.6355 15.6041 13.6355C15.6041 13.6355 15.6041 13.6355 15.6041 13.6355C15.6041 13.6355 15.6042 13.6355 15.6042 13.6355L15.6042 13.6355C15.6042 13.6355 15.6042 13.6355 15.6042 13.6355C15.6042 13.6355 15.6042 13.6355 15.6042 13.6355C15.6042 13.6355 15.6042 13.6355 15.6042 13.6355C15.6042 13.6355 15.6042 13.6355 15.6042 13.6355C15.6042 13.6355 15.6042 13.6355 15.6042 13.6355C15.6042 13.6355 15.6042 13.6355 15.6042 13.6355C15.6042 13.6355 15.6042 13.6355 15.6042 13.6355C15.6042 13.6355 15.6042 13.6355 15.6042 13.6355C15.6042 13.6355 15.6042 13.6355 15.6042 13.6355C15.6042 13.6355 15.6042 13.6355 15.6042 13.6355C15.6042 13.6355 15.6042 13.6355 15.6042 13.6355C15.6042 13.6355 15.6042 13.6355 15.6042 13.6355C15.6042 13.6355 15.6042 13.6355 15.6042 13.6355C15.6042 13.6355 15.6042 13.6355 15.6042 13.6355C15.6042 13.6355 15.6042 13.6355 15.6042 13.6355C15.6042 13.6355 15.6042 13.6355 15.6042 13.6355C15.6042 13.6354 15.6042 13.6354 15.6042 13.6354C15.6042 13.6354 15.6042 13.6354 15.6042 13.6354C15.6042 13.6354 15.6042 13.6354 15.6042 13.6354C15.6042 13.6354 15.6042 13.6354 15.6042 13.6354C15.6042 13.6354 15.6042 13.6354 15.6042 13.6354C15.6042 13.6354 15.6042 13.6354 15.6042 13.6354L15.6042 13.6354C15.6042 13.6354 15.6042 13.6354 15.6042 13.6354C15.6042 13.6354 15.6042 13.6354 15.6042 13.6354C15.6042 13.6354 15.6042 13.6354 15.6042 13.6354C15.6042 13.6354 15.6042 13.6354 15.6042 13.6354C15.6042 13.6354 15.6042 13.6354 15.6042 13.6354C15.6042 13.6354 15.6042 13.6354 15.6042 13.6354C15.6042 13.6354 15.6042 13.6354 15.6042 13.6354L15.6042 13.6354C15.6042 13.6354 15.6042 13.6354 15.6042 13.6354C15.6042 13.6354 15.6042 13.6354 15.6042 13.6354C15.6042 13.6354 15.6042 13.6354 15.6042 13.6354C15.6042 13.6354 15.6042 13.6354 15.6042 13.6354C15.6042 13.6354 15.6042 13.6354 15.6042 13.6354C15.6042 13.6354 15.6042 13.6354 15.6042 13.6354C15.6042 13.6354 15.6042 13.6354 15.6042 13.6354L15.6042 13.6354C15.6042 13.6354 15.6042 13.6354 15.6042 13.6354C15.6042 13.6354 15.6042 13.6354 15.6042 13.6354C15.6042 13.6354 15.6042 13.6354 15.6042 13.6354C15.6042 13.6354 15.6042 13.6354 15.6042 13.6354C15.6042 13.6354 15.6042 13.6354 15.6042 13.6354C15.6042 13.6354 15.6042 13.6354 15.6042 13.6354C15.6042 13.6354 15.6042 13.6354 15.6042 13.6354L15.6042 13.6354C15.6042 13.6354 15.6042 13.6354 15.6042 13.6354C15.6042 13.6354 15.6042 13.6354 15.6042 13.6354C15.6042 13.6354 15.6042 13.6354 15.6042 13.6354C15.6042 13.6354 15.6042 13.6354 15.6042 13.6354C15.6042 13.6354 15.6042 13.6354 15.6042 13.6354C15.6042 13.6354 15.6042 13.6354 15.6042 13.6354C15.6042 13.6354 15.6042 13.6354 15.6042 13.6354C15.6042 13.6354 15.6043 13.6354 15.6043 13.6354C15.6043 13.6354 15.6043 13.6354 15.6043 13.6354C15.6043 13.6354 15.6043 13.6354 15.6043 13.6354C15.6043 13.6354 15.6043 13.6354 15.6043 13.6354C15.6043 13.6354 15.6043 13.6354 15.6043 13.6354C15.6043 13.6354 15.6043 13.6354 15.6043 13.6354C15.6043 13.6354 15.6043 13.6354 15.6043 13.6354L15.6043 13.6354C15.6043 13.6354 15.6043 13.6354 15.6043 13.6354C15.6043 13.6354 15.6043 13.6354 15.6043 13.6354C15.6043 13.6354 15.6043 13.6354 15.6043 13.6354C15.6043 13.6354 15.6043 13.6354 15.6043 13.6354C15.6043 13.6354 15.6043 13.6354 15.6043 13.6354C15.6043 13.6354 15.6043 13.6354 15.6043 13.6354C15.6043 13.6354 15.6043 13.6354 15.6043 13.6354L15.6043 13.6354C15.6043 13.6354 15.6043 13.6354 15.6043 13.6354C15.6043 13.6354 15.6043 13.6354 15.6043 13.6354C15.6043 13.6353 15.6043 13.6353 15.6043 13.6353C15.6043 13.6353 15.6043 13.6353 15.6043 13.6353C15.6043 13.6353 15.6043 13.6353 15.6043 13.6353C15.6043 13.6353 15.6043 13.6353 15.6043 13.6353C15.6043 13.6353 15.6043 13.6353 15.6043 13.6353L15.6043 13.6353C15.6043 13.6353 15.6043 13.6353 15.6043 13.6353C15.6043 13.6353 15.6043 13.6353 15.6043 13.6353C15.6043 13.6353 15.6043 13.6353 15.6043 13.6353C15.6043 13.6353 15.6043 13.6353 15.6043 13.6353C15.6043 13.6353 15.6043 13.6353 15.6043 13.6353C15.6043 13.6353 15.6043 13.6353 15.6043 13.6353C15.6043 13.6353 15.6043 13.6353 15.6043 13.6353L15.6043 13.6353C15.6043 13.6353 15.6043 13.6353 15.6043 13.6353C15.6043 13.6353 15.6043 13.6353 15.6043 13.6353C15.6043 13.6353 15.6043 13.6353 15.6043 13.6353C15.6043 13.6353 15.6043 13.6353 15.6043 13.6353C15.6043 13.6353 15.6043 13.6353 15.6043 13.6353C15.6043 13.6353 15.6043 13.6353 15.6043 13.6353C15.6043 13.6353 15.6043 13.6353 15.6043 13.6353C15.6043 13.6353 15.6043 13.6353 15.6043 13.6353C15.6043 13.6353 15.6043 13.6353 15.6043 13.6353C15.6043 13.6353 15.6043 13.6353 15.6043 13.6353C15.6043 13.6353 15.6043 13.6353 15.6043 13.6353C15.6043 13.6353 15.6043 13.6353 15.6043 13.6353C15.6043 13.6353 15.6043 13.6353 15.6043 13.6353C15.6043 13.6353 15.6043 13.6353 15.6043 13.6353C15.6043 13.6353 15.6043 13.6353 15.6043 13.6353C15.6043 13.6353 15.6043 13.6353 15.6043 13.6353C15.6043 13.6353 15.6043 13.6353 15.6043 13.6353C15.6043 13.6353 15.6043 13.6353 15.6043 13.6353C15.6043 13.6353 15.6043 13.6353 15.6043 13.6353C15.6043 13.6353 15.6043 13.6353 15.6043 13.6353C15.6043 13.6353 15.6043 13.6353 15.6043 13.6353C15.6043 13.6353 15.6043 13.6353 15.6043 13.6353L15.6043 13.6353C15.6043 13.6353 15.6043 13.6353 15.6043 13.6353C15.6044 13.6353 15.6044 13.6353 15.6044 13.6353C15.6044 13.6353 15.6044 13.6353 15.6044 13.6353C15.6044 13.6353 15.6044 13.6353 15.6044 13.6353C15.6044 13.6353 15.6044 13.6353 15.6044 13.6353C15.6044 13.6353 15.6044 13.6353 15.6044 13.6353C15.6044 13.6353 15.6044 13.6353 15.6044 13.6353L15.6044 13.6353C15.6044 13.6353 15.6044 13.6353 15.6044 13.6353C15.6044 13.6353 15.6044 13.6353 15.6044 13.6353C15.6044 13.6353 15.6044 13.6353 15.6044 13.6353C15.6044 13.6353 15.6044 13.6353 15.6044 13.6353C15.6044 13.6353 15.6044 13.6353 15.6044 13.6353C15.6044 13.6353 15.6044 13.6353 15.6044 13.6353C15.6044 13.6353 15.6044 13.6353 15.6044 13.6353L15.6044 13.6353C15.6044 13.6353 15.6044 13.6353 15.6044 13.6353C15.6044 13.6353 15.6044 13.6353 15.6044 13.6353C15.6044 13.6353 15.6044 13.6353 15.6044 13.6353C15.6044 13.6352 15.6044 13.6352 15.6044 13.6352C15.6044 13.6352 15.6044 13.6352 15.6044 13.6352C15.6044 13.6352 15.6044 13.6352 15.6044 13.6352C15.6044 13.6352 15.6044 13.6352 15.6044 13.6352C15.6044 13.6352 15.6044 13.6352 15.6044 13.6352C15.6044 13.6352 15.6044 13.6352 15.6044 13.6352C15.6044 13.6352 15.6044 13.6352 15.6044 13.6352C15.6044 13.6352 15.6044 13.6352 15.6044 13.6352C15.6044 13.6352 15.6044 13.6352 15.6044 13.6352C15.6044 13.6352 15.6044 13.6352 15.6044 13.6352C15.6044 13.6352 15.6044 13.6352 15.6044 13.6352C15.6044 13.6352 15.6044 13.6352 15.6044 13.6352C15.6044 13.6352 15.6044 13.6352 15.6044 13.6352C15.6044 13.6352 15.6044 13.6352 15.6044 13.6352C15.6044 13.6352 15.6044 13.6352 15.6044 13.6352C15.6044 13.6352 15.6044 13.6352 15.6044 13.6352C15.6044 13.6352 15.6044 13.6352 15.6044 13.6352C15.6044 13.6352 15.6044 13.6352 15.6044 13.6352C15.6044 13.6352 15.6044 13.6352 15.6044 13.6352L15.6044 13.6352C15.6044 13.6352 15.6044 13.6352 15.6044 13.6352C15.6044 13.6352 15.6044 13.6352 15.6044 13.6352C15.6044 13.6352 15.6044 13.6352 15.6044 13.6352C15.6044 13.6352 15.6044 13.6352 15.6044 13.6352C15.6044 13.6352 15.6044 13.6352 15.6044 13.6352C15.6044 13.6352 15.6044 13.6352 15.6044 13.6352C15.6044 13.6352 15.6044 13.6352 15.6044 13.6352L15.6044 13.6352C15.6044 13.6352 15.6044 13.6352 15.6044 13.6352C15.6044 13.6352 15.6044 13.6352 15.6044 13.6352C15.6044 13.6352 15.6044 13.6352 15.6044 13.6352C15.6044 13.6352 15.6044 13.6352 15.6044 13.6352C15.6044 13.6352 15.6044 13.6352 15.6044 13.6352C15.6044 13.6352 15.6044 13.6352 15.6044 13.6352C15.6044 13.6352 15.6044 13.6352 15.6044 13.6352L15.6044 13.6352C15.6044 13.6352 15.6044 13.6352 15.6044 13.6352C15.6044 13.6352 15.6044 13.6352 15.6044 13.6352C15.6045 13.6352 15.6045 13.6352 15.6045 13.6352C15.6045 13.6352 15.6045 13.6352 15.6045 13.6352C15.6045 13.6352 15.6045 13.6352 15.6045 13.6352C15.6045 13.6352 15.6045 13.6352 15.6045 13.6352C15.6045 13.6352 15.6045 13.6352 15.6045 13.6352C15.6045 13.6352 15.6045 13.6352 15.6045 13.6352C15.6045 13.6352 15.6045 13.6352 15.6045 13.6352C15.6045 13.6352 15.6045 13.6352 15.6045 13.6352C15.6045 13.6352 15.6045 13.6352 15.6045 13.6352C15.6045 13.6352 15.6045 13.6352 15.6045 13.6352C15.6045 13.6352 15.6045 13.6352 15.6045 13.6352C15.6045 13.6352 15.6045 13.6352 15.6045 13.6352C15.6045 13.6352 15.6045 13.6352 15.6045 13.6352C15.6045 13.6352 15.6045 13.6352 15.6045 13.6352C15.6045 13.6352 15.6045 13.6352 15.6045 13.6352C15.6045 13.6352 15.6045 13.6352 15.6045 13.6352C15.6045 13.6352 15.6045 13.6352 15.6045 13.6352C15.6045 13.6352 15.6045 13.6352 15.6045 13.6351C15.6045 13.6351 15.6045 13.6351 15.6045 13.6351C15.6045 13.6351 15.6045 13.6351 15.6045 13.6351L15.6045 13.6351C15.6045 13.6351 15.6045 13.6351 15.6045 13.6351C15.6045 13.6351 15.6045 13.6351 15.6045 13.6351C15.6045 13.6351 15.6045 13.6351 15.6045 13.6351C15.6045 13.6351 15.6045 13.6351 15.6045 13.6351C15.6045 13.6351 15.6045 13.6351 15.6045 13.6351C15.6045 13.6351 15.6045 13.6351 15.6045 13.6351C15.6045 13.6351 15.6045 13.6351 15.6045 13.6351L15.6045 13.6351C15.6045 13.6351 15.6045 13.6351 15.6045 13.6351C15.6045 13.6351 15.6045 13.6351 15.6045 13.6351C15.6045 13.6351 15.6045 13.6351 15.6045 13.6351C15.6045 13.6351 15.6045 13.6351 15.6045 13.6351C15.6045 13.6351 15.6045 13.6351 15.6045 13.6351C15.6045 13.6351 15.6045 13.6351 15.6045 13.6351C15.6045 13.6351 15.6045 13.6351 15.6045 13.6351C15.6045 13.6351 15.6045 13.6351 15.6045 13.6351C15.6045 13.6351 15.6045 13.6351 15.6045 13.6351C15.6045 13.6351 15.6045 13.6351 15.6045 13.6351C15.6045 13.6351 15.6045 13.6351 15.6045 13.6351C15.6045 13.6351 15.6045 13.6351 15.6045 13.6351C15.6045 13.6351 15.6045 13.6351 15.6045 13.6351C15.6045 13.6351 15.6045 13.6351 15.6045 13.6351C15.6045 13.6351 15.6045 13.6351 15.6045 13.6351C15.6045 13.6351 15.6045 13.6351 15.6045 13.6351C15.6045 13.6351 15.6045 13.6351 15.6045 13.6351C15.6045 13.6351 15.6045 13.6351 15.6045 13.6351C15.6045 13.6351 15.6045 13.6351 15.6045 13.6351C15.6045 13.6351 15.6045 13.6351 15.6045 13.6351C15.6045 13.6351 15.6045 13.6351 15.6045 13.6351C15.6045 13.6351 15.6045 13.6351 15.6045 13.6351L15.6045 13.6351C15.6045 13.6351 15.6045 13.6351 15.6045 13.6351C15.6045 13.6351 15.6045 13.6351 15.6045 13.6351C15.6045 13.6351 15.6045 13.6351 15.6045 13.6351C15.6045 13.6351 15.6045 13.6351 15.6045 13.6351C15.6046 13.6351 15.6046 13.6351 15.6046 13.6351C15.6046 13.6351 15.6046 13.6351 15.6046 13.6351C15.6046 13.6351 15.6046 13.6351 15.6046 13.6351L15.6046 13.6351C15.6046 13.6351 15.6046 13.6351 15.6046 13.6351C15.6046 13.6351 15.6046 13.6351 15.6046 13.6351C15.6046 13.6351 15.6046 13.6351 15.6046 13.6351C15.6046 13.6351 15.6046 13.6351 15.6046 13.6351C15.6046 13.6351 15.6046 13.6351 15.6046 13.6351C15.6046 13.6351 15.6046 13.6351 15.6046 13.6351C15.6046 13.6351 15.6046 13.6351 15.6046 13.6351C15.6046 13.6351 15.6046 13.6351 15.6046 13.6351C15.6046 13.6351 15.6046 13.6351 15.6046 13.6351C15.6046 13.6351 15.6046 13.6351 15.6046 13.6351C15.6046 13.6351 15.6046 13.6351 15.6046 13.6351C15.6046 13.6351 15.6046 13.6351 15.6046 13.6351C15.6046 13.6351 15.6046 13.6351 15.6046 13.6351C15.6046 13.6351 15.6046 13.6351 15.6046 13.635C15.6046 13.635 15.6046 13.635 15.6046 13.635C15.6046 13.635 15.6046 13.635 15.6046 13.635C15.6046 13.635 15.6046 13.635 15.6046 13.635C15.6046 13.635 15.6046 13.635 15.6046 13.635C15.6046 13.635 15.6046 13.635 15.6046 13.635C15.6046 13.635 15.6046 13.635 15.6046 13.635C15.6046 13.635 15.6046 13.635 15.6046 13.635C15.6046 13.635 15.6046 13.635 15.6046 13.635L15.6046 13.635C15.6046 13.635 15.6046 13.635 15.6046 13.635C15.6046 13.635 15.6046 13.635 15.6046 13.635C15.6046 13.635 15.6046 13.635 15.6046 13.635C15.6046 13.635 15.6046 13.635 15.6046 13.635C15.6046 13.635 15.6046 13.635 15.6046 13.635C15.6046 13.635 15.6046 13.635 15.6046 13.635C15.6046 13.635 15.6046 13.635 15.6046 13.635L15.6046 13.635C15.6046 13.635 15.6046 13.635 15.6046 13.635C15.6046 13.635 15.6046 13.635 15.6046 13.635C15.6046 13.635 15.6046 13.635 15.6046 13.635C15.6046 13.635 15.6046 13.635 15.6046 13.635C15.6046 13.635 15.6046 13.635 15.6046 13.635C15.6046 13.635 15.6046 13.635 15.6046 13.635C15.6046 13.635 15.6046 13.635 15.6046 13.635C15.6046 13.635 15.6046 13.635 15.6046 13.635C15.6046 13.635 15.6046 13.635 15.6046 13.635C15.6046 13.635 15.6046 13.635 15.6046 13.635C15.6046 13.635 15.6046 13.635 15.6046 13.635C15.6046 13.635 15.6046 13.635 15.6046 13.635C15.6046 13.635 15.6046 13.635 15.6046 13.635C15.6046 13.635 15.6046 13.635 15.6046 13.635L15.6046 13.635C15.6046 13.635 15.6046 13.635 15.6046 13.635C15.6046 13.635 15.6046 13.635 15.6046 13.635C15.6046 13.635 15.6046 13.635 15.6046 13.635C15.6046 13.635 15.6046 13.635 15.6046 13.635C15.6046 13.635 15.6046 13.635 15.6046 13.635C15.6046 13.635 15.6046 13.635 15.6046 13.635C15.6046 13.635 15.6047 13.635 15.6047 13.635L15.6047 13.635C15.6047 13.635 15.6047 13.635 15.6047 13.635C15.6047 13.635 15.6047 13.635 15.6047 13.635C15.6047 13.635 15.6047 13.635 15.6047 13.635C15.6047 13.635 15.6047 13.635 15.6047 13.635C15.6047 13.635 15.6047 13.635 15.6047 13.635C15.6047 13.635 15.6047 13.635 15.6047 13.635C15.6047 13.635 15.6047 13.635 15.6047 13.635C15.6047 13.635 15.6047 13.635 15.6047 13.635C15.6047 13.635 15.6047 13.635 15.6047 13.635C15.6047 13.635 15.6047 13.635 15.6047 13.635C15.6047 13.635 15.6047 13.635 15.6047 13.635C15.6047 13.635 15.6047 13.635 15.6047 13.635C15.6047 13.635 15.6047 13.635 15.6047 13.635C15.6047 13.635 15.6047 13.635 15.6047 13.635L15.6047 13.635C15.6047 13.635 15.6047 13.635 15.6047 13.635C15.6047 13.6349 15.6047 13.6349 15.6047 13.6349C15.6047 13.6349 15.6047 13.6349 15.6047 13.6349C15.6047 13.6349 15.6047 13.6349 15.6047 13.6349C15.6047 13.6349 15.6047 13.6349 15.6047 13.6349C15.6047 13.6349 15.6047 13.6349 15.6047 13.6349C15.6047 13.6349 15.6047 13.6349 15.6047 13.6349L15.6047 13.6349C15.6047 13.6349 15.6047 13.6349 15.6047 13.6349C15.6047 13.6349 15.6047 13.6349 15.6047 13.6349C15.6047 13.6349 15.6047 13.6349 15.6047 13.6349C15.6047 13.6349 15.6047 13.6349 15.6047 13.6349C15.6047 13.6349 15.6047 13.6349 15.6047 13.6349C15.6047 13.6349 15.6047 13.6349 15.6047 13.6349C15.6047 13.6349 15.6047 13.6349 15.6047 13.6349L15.4633 13.4935ZM16.0449 14.2167L16.5785 14.7846L16.7243 14.6477L16.1906 14.0797L16.0449 14.2167ZM16.7392 14.6284L16.1885 14.0775L16.047 14.2189L16.5977 14.7698L16.7392 14.6284ZM16.7219 14.787C16.7277 14.7813 16.7335 14.7755 16.7392 14.7698L16.5977 14.6284C16.5921 14.6341 16.5865 14.6397 16.5808 14.6453L16.7219 14.787ZM5.03565 11.1328C4.95529 10.9077 4.78899 10.7236 4.5732 10.621L4.48728 10.8016C4.65525 10.8815 4.78472 11.0248 4.84729 11.2001L5.03565 11.1328ZM3.46138 11.7964L4.97484 11.2607L4.9081 11.0722L3.39464 11.6079L3.46138 11.7964ZM3.37146 11.0463C3.26822 11.2619 3.25462 11.5096 3.33364 11.7352L3.52239 11.6691C3.46087 11.4935 3.47146 11.3006 3.55184 11.1327L3.37146 11.0463ZM3.88444 10.5852C3.65917 10.6649 3.47471 10.8308 3.37146 11.0463L3.55184 11.1327C3.63223 10.9649 3.77584 10.8358 3.95118 10.7737L3.88444 10.5852ZM4.5732 10.621C4.3574 10.5183 4.10971 10.5054 3.88444 10.5852L3.95118 10.7737C4.12652 10.7117 4.3193 10.7217 4.48728 10.8016L4.5732 10.621Z" fill="#C2C2C2"/>
</svg>
