<svg width="20" height="26" viewBox="0 0 20 26" fill="none" xmlns="http://www.w3.org/2000/svg">
<mask id="path-1-inside-1" fill="white">
<path d="M18.4907 25.8554H1.51563C1.11366 25.8554 0.728153 25.6953 0.443918 25.4105C0.159682 25.1256 0 24.7392 0 24.3363V1.51904C0 1.11617 0.159682 0.729793 0.443918 0.444918C0.728153 0.160042 1.11366 0 1.51563 0H15.0553C16.3662 0.00167478 17.6229 0.524348 18.5499 1.45339C19.4768 2.38244 19.9983 3.64201 20 4.95588V24.3363C20 24.7381 19.8412 25.1235 19.5583 25.4082C19.2754 25.6929 18.8916 25.8537 18.4907 25.8554ZM1.7556 24.0895H18.2507V4.92423C18.2507 4.50597 18.168 4.09184 18.0074 3.70581C17.8467 3.31978 17.6113 2.96949 17.3147 2.67521C17.0182 2.38092 16.6664 2.14848 16.2796 1.99131C15.8929 1.83414 15.4789 1.75538 15.0616 1.75956H1.7556V24.0895Z"/>
</mask>
<path d="M18.4907 25.8554H1.51563C1.11366 25.8554 0.728153 25.6953 0.443918 25.4105C0.159682 25.1256 0 24.7392 0 24.3363V1.51904C0 1.11617 0.159682 0.729793 0.443918 0.444918C0.728153 0.160042 1.11366 0 1.51563 0H15.0553C16.3662 0.00167478 17.6229 0.524348 18.5499 1.45339C19.4768 2.38244 19.9983 3.64201 20 4.95588V24.3363C20 24.7381 19.8412 25.1235 19.5583 25.4082C19.2754 25.6929 18.8916 25.8537 18.4907 25.8554ZM1.7556 24.0895H18.2507V4.92423C18.2507 4.50597 18.168 4.09184 18.0074 3.70581C17.8467 3.31978 17.6113 2.96949 17.3147 2.67521C17.0182 2.38092 16.6664 2.14848 16.2796 1.99131C15.8929 1.83414 15.4789 1.75538 15.0616 1.75956H1.7556V24.0895Z" fill="#C2C2C2"/>
<path d="M1.51563 25.8554V28.8554V25.8554ZM15.0553 0L15.0591 -3H15.0553V0ZM20 4.95588H23L23 4.95206L20 4.95588ZM20 24.3363H17V24.3364L20 24.3363ZM1.7556 24.0895H-1.2444V27.0895H1.7556V24.0895ZM18.2507 24.0895V27.0895H21.2507V24.0895H18.2507ZM18.2507 4.92423L15.2507 4.92408V4.92423H18.2507ZM15.0616 1.75956V4.75956H15.0766L15.0916 4.75941L15.0616 1.75956ZM1.7556 1.75956V-1.24044H-1.2444V1.75956H1.7556ZM18.4907 22.8554H1.51563V28.8554H18.4907V22.8554ZM1.51563 22.8554C1.9115 22.8554 2.28978 23.0131 2.56762 23.2915L-1.67979 27.5294C-0.833469 28.3776 0.315824 28.8554 1.51563 28.8554V22.8554ZM2.56762 23.2915C2.84525 23.5698 3 23.9457 3 24.3363H-3C-3 25.5327 -2.52588 26.6814 -1.67979 27.5294L2.56762 23.2915ZM3 24.3363V1.51904H-3V24.3363H3ZM3 1.51904C3 1.90964 2.84525 2.2856 2.56762 2.56385L-1.67979 -1.67402C-2.52588 -0.826014 -3 0.322694 -3 1.51904H3ZM2.56762 2.56385C2.28977 2.84233 1.91149 3 1.51563 3V-3C0.31583 -3 -0.833464 -2.52224 -1.67979 -1.67402L2.56762 2.56385ZM1.51563 3H15.0553V-3H1.51563V3ZM15.0514 3C15.5658 3.00065 16.0604 3.2057 16.4262 3.57233L20.6736 -0.66554C19.1855 -2.157 17.1665 -2.99731 15.0591 -3L15.0514 3ZM16.4262 3.57233C16.7922 3.93918 16.9993 4.43798 17 4.95969L23 4.95206C22.9973 2.84604 22.1615 0.825691 20.6736 -0.66554L16.4262 3.57233ZM17 4.95588V24.3363H23V4.95588H17ZM17 24.3364C17 23.9468 17.1539 23.5718 17.4302 23.2937L21.6864 27.5227C22.5285 26.6753 23 25.5294 23 24.3363L17 24.3364ZM17.4302 23.2937C17.7067 23.0155 18.0834 22.8571 18.4782 22.8554L18.5032 28.8554C19.6997 28.8504 20.8442 28.3704 21.6864 27.5227L17.4302 23.2937ZM1.7556 27.0895H18.2507V21.0895H1.7556V27.0895ZM21.2507 24.0895V4.92423H15.2507V24.0895H21.2507ZM21.2507 4.92438C21.2507 4.11055 21.0898 3.30463 20.7771 2.55315L15.2376 4.85847C15.2462 4.87906 15.2507 4.90138 15.2507 4.92408L21.2507 4.92438ZM20.7771 2.55315C20.4643 1.80165 20.0059 1.1193 19.4279 0.545735L15.2016 4.80468C15.2167 4.81968 15.2291 4.8379 15.2376 4.85847L20.7771 2.55315ZM19.4279 0.545735C18.8499 -0.0278509 18.1638 -0.481267 17.4091 -0.787962L15.1502 4.77058C15.169 4.77822 15.1865 4.7897 15.2016 4.80468L19.4279 0.545735ZM17.4091 -0.787962C16.6544 -1.09466 15.8462 -1.24846 15.0315 -1.24029L15.0916 4.75941C15.1115 4.75921 15.1314 4.76295 15.1502 4.77058L17.4091 -0.787962ZM15.0616 -1.24044H1.7556V4.75956H15.0616V-1.24044ZM-1.2444 1.75956V24.0895H4.7556V1.75956H-1.2444Z" fill="#C2C2C2" mask="url(#path-1-inside-1)"/>
<path d="M16.0881 7.5603C16.0289 7.62493 15.9491 7.66625 15.8631 7.67758H8.33665C8.25063 7.66625 8.17089 7.62493 8.11167 7.5603C8.04859 7.49146 8.01343 7.40118 8.01343 7.3073C8.01343 7.21341 8.04859 7.12314 8.11167 7.05429C8.17089 6.98966 8.25062 6.94834 8.33665 6.93701H15.8631C15.9491 6.94834 16.0289 6.98966 16.0881 7.05429C16.1511 7.12314 16.1863 7.21341 16.1863 7.3073C16.1863 7.40118 16.1511 7.49145 16.0881 7.5603Z" fill="#C2C2C2" stroke="#C2C2C2"/>
<path d="M5.31731 8.17758H4.11744C3.89993 8.15897 3.6973 8.05923 3.54965 7.89807C3.402 7.73692 3.32007 7.52609 3.32007 7.3073C3.32007 7.0885 3.402 6.87768 3.54965 6.71652C3.6973 6.55537 3.89993 6.45562 4.11744 6.43701H5.31731C5.53482 6.45562 5.73744 6.55537 5.8851 6.71652C6.03275 6.87768 6.11468 7.0885 6.11468 7.3073C6.11468 7.52609 6.03275 7.73692 5.8851 7.89807C5.73744 8.05923 5.53482 8.15897 5.31731 8.17758Z" fill="#C2C2C2"/>
<path d="M15.8889 12.222H8.31073C8.21424 12.222 8.12148 12.1836 8.05291 12.1149C7.9843 12.0461 7.94556 11.9526 7.94556 11.8549C7.94556 11.7572 7.9843 11.6637 8.05291 11.5949C8.12148 11.5262 8.21424 11.4878 8.31073 11.4878H15.8889C15.9854 11.4878 16.0781 11.5262 16.1467 11.5949C16.2153 11.6637 16.254 11.7572 16.254 11.8549C16.254 11.9526 16.2153 12.0461 16.1467 12.1149C16.0781 12.1836 15.9854 12.222 15.8889 12.222Z" fill="#C2C2C2" stroke="#C2C2C2"/>
<path d="M5.31749 12.222H4.11761C4.06982 12.222 4.02246 12.2126 3.97824 12.1942C3.93401 12.1759 3.89376 12.1489 3.8598 12.1149C3.82583 12.0809 3.79883 12.0404 3.78039 11.9958C3.76195 11.9511 3.75244 11.9033 3.75244 11.8549C3.75244 11.8065 3.76195 11.7587 3.78039 11.7141C3.79883 11.6694 3.82583 11.629 3.8598 11.5949C3.89376 11.5609 3.93401 11.5339 3.97824 11.5156C4.02246 11.4972 4.06982 11.4878 4.11761 11.4878H5.31749C5.41397 11.4878 5.50674 11.5262 5.57531 11.5949C5.64391 11.6637 5.68266 11.7572 5.68266 11.8549C5.68266 11.9526 5.64391 12.0461 5.57531 12.1149C5.50674 12.1836 5.41397 12.222 5.31749 12.222Z" fill="#C2C2C2" stroke="#C2C2C2"/>
<path d="M15.8889 16.7728H8.31073C8.21424 16.7728 8.12148 16.7344 8.05291 16.6657C7.9843 16.5969 7.94556 16.5034 7.94556 16.4057C7.94556 16.308 7.9843 16.2145 8.05291 16.1457C8.12148 16.077 8.21424 16.0386 8.31073 16.0386H15.8889C15.9854 16.0386 16.0781 16.077 16.1467 16.1457C16.2153 16.2145 16.254 16.308 16.254 16.4057C16.254 16.5034 16.2153 16.5969 16.1467 16.6657C16.0781 16.7344 15.9854 16.7728 15.8889 16.7728Z" fill="#C2C2C2" stroke="#C2C2C2"/>
<path d="M5.31749 16.7728H4.11761C4.02113 16.7728 3.92836 16.7344 3.85979 16.6657C3.79119 16.5969 3.75244 16.5034 3.75244 16.4057C3.75244 16.308 3.79119 16.2145 3.85979 16.1457C3.92837 16.077 4.02113 16.0386 4.11761 16.0386H5.31749C5.41397 16.0386 5.50673 16.077 5.57531 16.1457C5.64391 16.2145 5.68266 16.308 5.68266 16.4057C5.68266 16.5034 5.64391 16.5969 5.5753 16.6657C5.50674 16.7344 5.41397 16.7728 5.31749 16.7728Z" fill="#C2C2C2" stroke="#C2C2C2"/>
</svg>
