<svg width="43" height="43" viewBox="0 0 43 43" fill="none" xmlns="http://www.w3.org/2000/svg">
<rect width="40" height="40" rx="20" fill="#FFDA00"/>
<path fill-rule="evenodd" clip-rule="evenodd" d="M9 16V14C9 13.4477 9.19526 12.9763 9.58579 12.5858C9.97631 12.1953 10.4477 12 11 12H29C29.5523 12 30.0237 12.1953 30.4142 12.5858C30.8047 12.9763 31 13.4477 31 14V16H9ZM9 18V26C9 26.5523 9.19526 27.0237 9.58579 27.4142C9.97631 27.8047 10.4477 28 11 28H29C29.5523 28 30.0237 27.8047 30.4142 27.4142C30.8047 27.0237 31 26.5523 31 26V18H9ZM25 24C25 23.4477 25.4477 23 26 23H28C28.5523 23 29 23.4477 29 24V25C29 25.5523 28.5523 26 28 26H26C25.4477 26 25 25.5523 25 25V24Z" fill="white"/>
<path fill-rule="evenodd" clip-rule="evenodd" d="M35 43C39.4183 43 43 39.4183 43 35C43 30.5817 39.4183 27 35 27C30.5817 27 27 30.5817 27 35C27 39.4183 30.5817 43 35 43Z" fill="#CAAC00"/>
<path fill-rule="evenodd" clip-rule="evenodd" d="M35 31C34.4477 31 34 31.4477 34 32V34H32C31.4477 34 31 34.4477 31 35C31 35.5523 31.4477 36 32 36H34V38C34 38.5523 34.4477 39 35 39C35.5523 39 36 38.5523 36 38V36H38C38.5523 36 39 35.5523 39 35C39 34.4477 38.5523 34 38 34H36V32C36 31.4477 35.5523 31 35 31Z" fill="white"/>
</svg>
