<?xml version="1.0" encoding="UTF-8"?>
<svg xmlns="http://www.w3.org/2000/svg" xmlns:xlink="http://www.w3.org/1999/xlink" width="31pt" height="21pt" viewBox="0 0 31 21" version="1.1">
<g id="surface1">
<path style=" stroke:none;fill-rule:nonzero;fill:rgb(100%,37.254902%,0%);fill-opacity:1;" d="M 11.308594 3.683594 L 19.402344 3.683594 L 19.402344 17.3125 L 11.308594 17.3125 Z M 11.308594 3.683594 "/>
<path style=" stroke:none;fill-rule:nonzero;fill:rgb(92.156863%,0%,10.588235%);fill-opacity:1;" d="M 12.140625 10.5 C 12.136719 7.84375 13.324219 5.328125 15.355469 3.6875 C 11.902344 0.894531 6.949219 1.304688 3.972656 4.621094 C 0.996094 7.941406 0.996094 13.058594 3.972656 16.378906 C 6.949219 19.699219 11.902344 20.105469 15.355469 17.316406 C 13.324219 15.671875 12.136719 13.15625 12.140625 10.5 Z M 12.140625 10.5 "/>
<path style=" stroke:none;fill-rule:nonzero;fill:rgb(96.862745%,61.960784%,10.588235%);fill-opacity:1;" d="M 28.164062 15.867188 L 28.164062 15.589844 L 28.28125 15.589844 L 28.28125 15.535156 L 28 15.535156 L 28 15.589844 L 28.113281 15.589844 L 28.113281 15.867188 Z M 28.703125 15.867188 L 28.703125 15.535156 L 28.621094 15.535156 L 28.519531 15.773438 L 28.417969 15.535156 L 28.339844 15.535156 L 28.339844 15.867188 L 28.398438 15.867188 L 28.398438 15.613281 L 28.488281 15.832031 L 28.554688 15.832031 L 28.644531 15.613281 L 28.644531 15.867188 Z M 28.703125 15.867188 "/>
<path style=" stroke:none;fill-rule:nonzero;fill:rgb(96.862745%,61.960784%,10.588235%);fill-opacity:1;" d="M 28.964844 10.5 C 28.964844 13.816406 27.125 16.84375 24.230469 18.292969 C 21.332031 19.738281 17.882812 19.363281 15.355469 17.3125 C 17.382812 15.667969 18.566406 13.15625 18.566406 10.5 C 18.566406 7.84375 17.382812 5.328125 15.355469 3.683594 C 17.882812 1.636719 21.332031 1.257812 24.230469 2.703125 C 27.125 4.152344 28.964844 7.179688 28.964844 10.496094 Z M 28.964844 10.5 "/>
</g>
</svg>
