<svg width="43" height="43" viewBox="0 0 43 43" fill="none" xmlns="http://www.w3.org/2000/svg">
<rect width="40" height="40" rx="20" fill="#94DD34"/>
<path d="M15.4529 20.4648C15.4529 21.8637 15.7007 23.0766 16.1965 24.1036C16.6923 25.1306 17.3785 25.9141 18.255 26.4542C19.1315 26.9942 20.1275 27.2643 21.243 27.2643H26.5817L26.2098 30H13.1687L13.3546 27.5299L16.0903 27.3971C14.7977 26.7419 13.7928 25.8123 13.0757 24.6082C12.3586 23.4042 12 21.9079 12 20.1195C12 18.2072 12.4914 16.5472 13.4741 15.1394C14.4568 13.7317 15.7804 12.7711 17.4449 12.2576V10H19.3041V11.8858C19.4812 11.8681 19.7468 11.8592 20.1009 11.8592C20.4197 11.8592 20.6587 11.8681 20.8181 11.8858V10H22.6773V12.2045C24.3418 12.7003 25.6432 13.6919 26.5817 15.1793C27.5201 16.6667 27.9894 18.6056 27.9894 20.996H24.7224C24.7224 17.9681 24.0407 15.985 22.6773 15.0465V20.996H20.8181V14.3825C20.6587 14.3471 20.4197 14.3293 20.1009 14.3293C19.9239 14.3293 19.6583 14.3471 19.3041 14.3825V20.996H17.4449V15.073C16.1169 16.0115 15.4529 17.8088 15.4529 20.4648Z" fill="white"/>
<path fill-rule="evenodd" clip-rule="evenodd" d="M35 43C39.4183 43 43 39.4183 43 35C43 30.5817 39.4183 27 35 27C30.5817 27 27 30.5817 27 35C27 39.4183 30.5817 43 35 43Z" fill="#5E8B24"/>
<path fill-rule="evenodd" clip-rule="evenodd" d="M35 31C34.4477 31 34 31.4477 34 32V34H32C31.4477 34 31 34.4477 31 35C31 35.5523 31.4477 36 32 36H34V38C34 38.5523 34.4477 39 35 39C35.5523 39 36 38.5523 36 38V36H38C38.5523 36 39 35.5523 39 35C39 34.4477 38.5523 34 38 34H36V32C36 31.4477 35.5523 31 35 31Z" fill="white"/>
</svg>
