<svg xmlns="http://www.w3.org/2000/svg" width="16.725" height="16.005" viewBox="0 0 16.725 16.005">
  <path id="ballance_star" d="M10.465,15.245a1,1,0,0,0-.931,0l-3.619,1.9a1,1,0,0,1-1.451-1.054l.691-4.03a1,1,0,0,0-.288-.885L1.94,8.324a1,1,0,0,1,.554-1.706l4.046-.588a1,1,0,0,0,.753-.547L9.1,1.817a1,1,0,0,1,1.793,0l1.81,3.666a1,1,0,0,0,.753.547l4.046.588a1,1,0,0,1,.554,1.706l-2.928,2.854a1,1,0,0,0-.288.885l.691,4.03a1,1,0,0,1-1.451,1.054Z" transform="translate(-1.637 -1.26)" fill="#ffa001"/>
</svg>
