<svg xmlns="http://www.w3.org/2000/svg" width="321.244" height="377.333" viewBox="0 0 321.244 377.333">
  <g id="AML_POSTER" transform="translate(-1660.105 -417.494)">
    <g id="Group_1100" data-name="Group 1100" transform="translate(1660.105 445.208)">
      <path id="Path_1146" data-name="Path 1146" d="M1857.387,444.954s123.963,26.434,114.6,97.907,54.174,191.771-59.647,208.69-133.69-62.993-185.2-88.662-75.71-94.8-64.233-131.713S1735.6,413.215,1857.387,444.954Z" transform="translate(-1660.106 -437.738)" fill="#8ebe39" opacity="0.25"/>
    </g>
    <g id="Group_1101" data-name="Group 1101" transform="translate(1777.441 417.494)">
      <path id="Path_1152" data-name="Path 1152" d="M1768.51,428.754h-22.542c-1.025-6.222,3.179-11.26,9.4-11.26h45.456" transform="translate(-1745.814 -417.494)" fill="#4d762c"/>
      <path id="Path_1153" data-name="Path 1153" d="M1768.51,428.754h-22.542c-1.025-6.222,3.179-11.26,9.4-11.26h45.456" transform="translate(-1745.814 -417.494)" fill="#4d762c" opacity="0.3"/>
    </g>
    <path id="Path_1154" data-name="Path 1154" d="M1821.355,488.85l-9.964-60.1a13.837,13.837,0,0,0-13.143-11.26h-45.456a13.845,13.845,0,0,1,13.142,11.26l9.953,60.1a13.856,13.856,0,0,0,13.142,11.271h22.924" transform="translate(34.202 0)" fill="#8ebe39"/>
    <g id="Group_1102" data-name="Group 1102" transform="translate(1823.231 488.853)">
      <path id="Path_1155" data-name="Path 1155" d="M1788.663,469.619c1.031,6.224-3.177,11.268-9.4,11.268h45.459c6.224,0,10.432-5.045,9.4-11.268Z" transform="translate(-1779.262 -469.619)" fill="#4d762c"/>
      <path id="Path_1156" data-name="Path 1156" d="M1788.663,469.619c1.031,6.224-3.177,11.268-9.4,11.268h45.459c6.224,0,10.432-5.045,9.4-11.268Z" transform="translate(-1779.262 -469.619)" fill="#4d762c" opacity="0.3"/>
    </g>
    <g id="Group_1103" data-name="Group 1103" transform="translate(1807.043 428.736)">
      <path id="Path_1157" data-name="Path 1157" d="M1800.689,427.056h-32.456a.831.831,0,0,1-.786-.675h0a.559.559,0,0,1,.563-.675h32.455a.832.832,0,0,1,.787.675h0A.558.558,0,0,1,1800.689,427.056Z" transform="translate(-1767.437 -425.706)" fill="#fff"/>
      <path id="Path_1158" data-name="Path 1158" d="M1782.5,430.483h-13.7a.831.831,0,0,1-.786-.675h0a.557.557,0,0,1,.563-.674h13.694a.828.828,0,0,1,.786.674h0A.557.557,0,0,1,1782.5,430.483Z" transform="translate(-1767.228 -424.441)" fill="#fff"/>
      <path id="Path_1159" data-name="Path 1159" d="M1790.606,430.483h-9.458a.832.832,0,0,1-.787-.675h0a.558.558,0,0,1,.563-.674h9.46a.83.83,0,0,1,.786.674h0A.559.559,0,0,1,1790.606,430.483Z" transform="translate(-1762.672 -424.441)" fill="#fff"/>
      <path id="Path_1160" data-name="Path 1160" d="M1801.825,433.911H1769.37a.833.833,0,0,1-.787-.675h0a.558.558,0,0,1,.563-.674H1801.6a.829.829,0,0,1,.786.674h0A.558.558,0,0,1,1801.825,433.911Z" transform="translate(-1767.018 -423.176)" fill="#fff"/>
      <path id="Path_1161" data-name="Path 1161" d="M1799.189,437.34h-29.251a.831.831,0,0,1-.786-.675h0a.558.558,0,0,1,.563-.674h29.25a.833.833,0,0,1,.787.674h0A.559.559,0,0,1,1799.189,437.34Z" transform="translate(-1766.808 -421.911)" fill="#fff"/>
      <path id="Path_1162" data-name="Path 1162" d="M1790.187,440.767h-19.682a.831.831,0,0,1-.786-.674h0a.558.558,0,0,1,.563-.675h19.682a.831.831,0,0,1,.786.675h0A.558.558,0,0,1,1790.187,440.767Z" transform="translate(-1766.599 -420.646)" fill="#fff"/>
      <path id="Path_1163" data-name="Path 1163" d="M1803.53,444.2h-32.456a.83.83,0,0,1-.786-.674h0a.559.559,0,0,1,.563-.675H1803.3a.833.833,0,0,1,.787.675h0A.557.557,0,0,1,1803.53,444.2Z" transform="translate(-1766.389 -419.381)" fill="#fff"/>
      <path id="Path_1164" data-name="Path 1164" d="M1804.1,447.623h-32.456a.831.831,0,0,1-.786-.674h0a.559.559,0,0,1,.563-.675h32.456a.831.831,0,0,1,.786.675h0A.557.557,0,0,1,1804.1,447.623Z" transform="translate(-1766.179 -418.116)" fill="#fff"/>
      <path id="Path_1165" data-name="Path 1165" d="M1791.893,451.051H1772.21a.831.831,0,0,1-.787-.673h0a.559.559,0,0,1,.563-.675h19.683a.833.833,0,0,1,.786.675h0A.558.558,0,0,1,1791.893,451.051Z" transform="translate(-1765.969 -416.851)" fill="#fff"/>
    </g>
    <path id="Path_1166" data-name="Path 1166" d="M1802.731,465.125a.314.314,0,0,1-.087-.012,10.085,10.085,0,0,1-3.891-2.863,16.138,16.138,0,0,0-2.132-1.929.625.625,0,0,0-.82-.008.547.547,0,0,0,0,.735c.275.4.572.789.883,1.161a.831.831,0,0,1,.093,1,.762.762,0,0,1-.884.279,10.8,10.8,0,0,1-1.264-.483.219.219,0,0,0-.252.016.23.23,0,0,0-.022.263l.057.137a.92.92,0,0,1-.916,1.306,144.115,144.115,0,0,0-14.893.052.282.282,0,0,1-.025-.564,144.824,144.824,0,0,1,14.949-.051.38.38,0,0,0,.339-.146.392.392,0,0,0,.025-.382l-.053-.123a.792.792,0,0,1,.141-.891.771.771,0,0,1,.881-.13,10.373,10.373,0,0,0,1.2.459.2.2,0,0,0,.248-.055.271.271,0,0,0-.058-.32c-.322-.386-.63-.79-.914-1.2a1.106,1.106,0,0,1,.066-1.454,1.19,1.19,0,0,1,1.541-.053,16.735,16.735,0,0,1,2.21,1.995,9.651,9.651,0,0,0,3.659,2.72.282.282,0,0,1-.085.55Z" transform="translate(43.618 15.539)" fill="#fff"/>
    <path id="Path_1167" data-name="Path 1167" d="M1864.617,469.072a16.668,16.668,0,0,0-11.646-4.177c-2.746-5.514-8.393-8.745-14.366-7.653-8.563,1.567-11.172,11.858-5.231,15.615a25.553,25.553,0,0,0,6.336,2.88c-.011.09-.022.179-.031.27a19.32,19.32,0,0,0-12.718,16.674c-.879,12.765,12.829,20.219,20.339,13.12a37.263,37.263,0,0,0,2.92-3.1c1.44,2.029,3,4.1,4.675,6.266C1873.532,500.383,1876.682,479.479,1864.617,469.072Z" transform="translate(61.554 14.589)" fill="#ffaf00"/>
    <path id="Path_1168" data-name="Path 1168" d="M1838.937,502.246c-.111,1.577-.252,2.945-.448,4.39-.185,1.425-.4,2.841-.634,4.253-.475,2.823-1.109,5.616-1.8,8.4a88.716,88.716,0,0,1-5.728,16.328l-.227.5c-.092.19-.112.263-.286.6a9.07,9.07,0,0,1-1,1.573,10.007,10.007,0,0,1-2.582,2.311,15.025,15.025,0,0,1-5.282,1.929,33.423,33.423,0,0,1-9.273.13,75.5,75.5,0,0,1-16.71-4.03l1.235-4.507c2.607.394,5.324.757,7.977,1a68.883,68.883,0,0,0,7.892.4,29.049,29.049,0,0,0,7.194-.764,6.823,6.823,0,0,0,2.375-1.068,1.533,1.533,0,0,0,.438-.483.731.731,0,0,0,.075-.186l.309-.8c.475-1.21.935-2.427,1.338-3.674.446-1.225.808-2.494,1.2-3.743.709-2.533,1.411-5.074,1.978-7.661s1.054-5.193,1.492-7.807c.442-2.582.787-5.312,1.05-7.753Z" transform="translate(49.765 31.022)" fill="#a87362"/>
    <g id="Group_1104" data-name="Group 1104" transform="translate(1875.818 521.345)">
      <path id="Path_1169" data-name="Path 1169" d="M1824.139,493.984c-3.8.968-6.464,16.62-6.464,16.62l10.481,7.127s10.048-15.789,7.123-19.971C1832.231,493.405,1829.689,492.571,1824.139,493.984Z" transform="translate(-1817.675 -493.353)" fill="#0c1631"/>
    </g>
    <path id="Path_1170" data-name="Path 1170" d="M1823.435,496.367l-2.922,15.775,5.891,3.995Z" transform="translate(59.191 29.104)" fill="#030504" opacity="0.2"/>
    <path id="Path_1171" data-name="Path 1171" d="M1794.928,525.56l-7.117,2.771,8.033,4.85s5.13-2.968,5-6.8l-.791-.449A5.991,5.991,0,0,0,1794.928,525.56Z" transform="translate(47.123 39.726)" fill="#a87362"/>
    <path id="Path_1172" data-name="Path 1172" d="M1784.58,532.722l6.045,5.035,6.412-5.433-8.033-4.85Z" transform="translate(45.931 40.583)" fill="#a87362"/>
    <path id="Path_1173" data-name="Path 1173" d="M1840.081,692h-9.228l-.616-21.37h9.228Z" transform="translate(62.779 93.407)" fill="#fb9f60"/>
    <path id="Path_1174" data-name="Path 1174" d="M1835.1,685.458h10.367a.732.732,0,0,1,.736.631l1.182,8.2a1.483,1.483,0,0,1-1.48,1.642c-3.614-.062-5.357-.274-9.916-.274-2.8,0-10.86.292-14.734.292-3.788,0-4.079-3.831-2.466-4.177,7.231-1.557,12.332-3.7,14.768-5.747A2.406,2.406,0,0,1,1835.1,685.458Z" transform="translate(58.213 98.878)" fill="#0c1631"/>
    <g id="Group_1105" data-name="Group 1105" transform="translate(1881.185 519.304)">
      <path id="Path_1175" data-name="Path 1175" d="M1822.693,494.534s-4.4,1.548,4.41,55.7h37.478c-.629-15.253-.646-24.66,6.644-55.962a110.614,110.614,0,0,0-15.915-2.1,119.323,119.323,0,0,0-17.018,0C1830.982,492.838,1822.693,494.534,1822.693,494.534Z" transform="translate(-1821.595 -491.862)" fill="#0c1631"/>
    </g>
    <path id="Path_1176" data-name="Path 1176" d="M1849.533,478.09c-1.073,5.475-2.144,15.508,1.687,19.162,0,0-1.5,5.554-11.671,5.554-11.189,0-5.347-5.554-5.347-5.554,6.106-1.458,5.948-5.988,4.884-10.243Z" transform="translate(63.679 22.36)" fill="#a87362"/>
    <path id="Path_1177" data-name="Path 1177" d="M1851.37,492.176a117.125,117.125,0,0,0-17.015,0l-1.109.107c-1.359,2.575-1.706,6.534,1.55,12.342,0,0,14.929-6.01,18.815-12.306C1852.872,492.259,1852.12,492.211,1851.37,492.176Z" transform="translate(63.525 27.442)" fill="#a87362"/>
    <path id="Path_1178" data-name="Path 1178" d="M1856.668,475.334c-2.088,8.916-2.781,12.736-8.12,16.585-8.031,5.792-18.527,1.279-19.146-8.083-.557-8.426,2.95-21.593,12.383-23.678A12.491,12.491,0,0,1,1856.668,475.334Z" transform="translate(62.45 15.627)" fill="#a87362"/>
    <g id="Group_1106" data-name="Group 1106" transform="translate(1879.983 577.671)">
      <path id="Path_1179" data-name="Path 1179" d="M1827.427,534.5s-7.279,71.084-6.674,99.224c.63,29.271,11.356,96.027,11.356,96.027h12.477s-1.974-65.047-.872-93.793c1.2-31.338,11.157-101.458,11.157-101.458Z" transform="translate(-1820.717 -534.497)" fill="#8ebe39"/>
      <path id="Path_1180" data-name="Path 1180" d="M1827.427,534.5s-7.279,71.084-6.674,99.224c.63,29.271,11.356,96.027,11.356,96.027h12.477s-1.974-65.047-.872-93.793c1.2-31.338,11.157-101.458,11.157-101.458Z" transform="translate(-1820.717 -534.497)" fill="#8ebe39" opacity="0.3"/>
    </g>
    <path id="Path_1181" data-name="Path 1181" d="M1843.178,678.86h-14.641l-1.074-4.67,16.4-.571Z" transform="translate(61.755 94.51)" fill="#4d762c"/>
    <path id="Path_1182" data-name="Path 1182" d="M1872.334,692h-9.228l-3.389-21.37h9.228Z" transform="translate(73.656 93.407)" fill="#fb9f60"/>
    <path id="Path_1183" data-name="Path 1183" d="M1866.24,685.458h10.367a.858.858,0,0,1,.817.631l2.247,8.2a1.284,1.284,0,0,1-1.266,1.642c-3.624-.062-5.392-.274-9.951-.274-2.805,0-10.823.292-14.7.292-3.788,0-4.577-3.831-3.009-4.177,7.03-1.557,11.852-3.7,14.023-5.747A2.127,2.127,0,0,1,1866.24,685.458Z" transform="translate(70.067 98.878)" fill="#0c1631"/>
    <g id="Group_1107" data-name="Group 1107" transform="translate(1897.06 577.671)">
      <path id="Path_1184" data-name="Path 1184" d="M1833.191,534.5s7.751,71.084,12.008,99.224c4.427,29.271,23.816,96.027,23.816,96.027h12.478s-10.417-65.047-13.044-93.793c-2.865-31.338-7.814-101.458-7.814-101.458Z" transform="translate(-1833.191 -534.497)" fill="#8ebe39"/>
      <path id="Path_1185" data-name="Path 1185" d="M1833.191,534.5s7.751,71.084,12.008,99.224c4.427,29.271,23.816,96.027,23.816,96.027h12.478s-10.417-65.047-13.044-93.793c-2.865-31.338-7.814-101.458-7.814-101.458Z" transform="translate(-1833.191 -534.497)" fill="#8ebe39" opacity="0.3"/>
    </g>
    <path id="Path_1186" data-name="Path 1186" d="M1873.705,678.86h-14.641l-1.68-4.67,16.321-.571Z" transform="translate(72.796 94.51)" fill="#4d762c"/>
    <path id="Path_1187" data-name="Path 1187" d="M1860.249,687.266a3.805,3.805,0,0,1-2.312-.568,1.389,1.389,0,0,1-.532-1.065.6.6,0,0,1,.3-.58c1.05-.62,4.974,1.258,5.416,1.474a.255.255,0,0,1,.145.226.187.187,0,0,1-.151.184A15.1,15.1,0,0,1,1860.249,687.266Zm-1.892-1.91a.793.793,0,0,0-.4.079.232.232,0,0,0-.115.237.9.9,0,0,0,.342.7c.626.5,2.155.591,4.156.252A13.282,13.282,0,0,0,1858.357,685.357Z" transform="translate(72.803 98.683)" fill="#0c1631"/>
    <path id="Path_1188" data-name="Path 1188" d="M1862.528,687.524a.246.246,0,0,1-.093-.019c-1.164-.5-3.6-2.487-3.563-3.533.008-.248.144-.556.74-.617a1.756,1.756,0,0,1,1.26.378c1.286.967,1.821,3.45,1.843,3.555a.194.194,0,0,1-.066.2A.2.2,0,0,1,1862.528,687.524Zm-2.684-3.742c-.042,0-.086,0-.13.007-.394.041-.4.2-.4.253-.021.627,1.659,2.192,2.868,2.872a5.859,5.859,0,0,0-1.546-2.848A1.3,1.3,0,0,0,1859.843,683.783Z" transform="translate(73.344 98.099)" fill="#0c1631"/>
    <path id="Path_1189" data-name="Path 1189" d="M1860.18,464.912a9.366,9.366,0,0,0-3.531-1.511c-1.025-8.79-8.07-14.38-15.92-12.614-8.908,2.006-12.01,13.057-6.02,16.821a26.331,26.331,0,0,0,11.614,3.774c.149,7.288,4.694,13.537,7.887,13.858C1863.321,481.614,1865.671,468.773,1860.18,464.912Z" transform="translate(63.289 12.165)" fill="#ffaf00"/>
    <path id="Path_1190" data-name="Path 1190" d="M1851.933,478.757a6.7,6.7,0,0,1-4.065,3.1c-2.274.583-3.361-1.462-2.687-3.581.607-1.908,2.519-4.511,4.781-4.155A3.006,3.006,0,0,1,1851.933,478.757Z" transform="translate(68.22 20.883)" fill="#a87362"/>
    <path id="Path_1191" data-name="Path 1191" d="M1864.457,501.468c1.08,5.3,1.867,10.53,2.5,15.856a149.916,149.916,0,0,1,1.154,16.128c.013.271.006.831-.015,1.332-.036.461-.081.9-.141,1.321-.126.819-.278,1.581-.464,2.3-.366,1.444-.791,2.791-1.247,4.106-.9,2.626-1.966,5.113-3.047,7.575a157.44,157.44,0,0,1-7.34,14.254l-4.237-1.971,2.508-7.413c.85-2.463,1.661-4.932,2.413-7.4.783-2.455,1.492-4.922,2.114-7.33.307-1.2.568-2.4.75-3.524.089-.563.161-1.1.2-1.584.018-.235.019-.449.022-.642l-.05-.641c-.2-2.522-.5-5.065-.8-7.612l-1.056-7.66c-.783-5.1-1.65-10.259-2.522-15.292Z" transform="translate(70.669 30.986)" fill="#a87362"/>
    <g id="Group_1108" data-name="Group 1108" transform="translate(1920.484 521.502)">
      <path id="Path_1192" data-name="Path 1192" d="M1860.632,493.675c3.755,1.142,8.264,14.071,8.264,14.071l-14.567,10.415s-5.312-10.793-3.735-15.648C1852.237,497.46,1856.346,492.371,1860.632,493.675Z" transform="translate(-1850.301 -493.468)" fill="#0c1631"/>
    </g>
    <path id="Path_1193" data-name="Path 1193" d="M1828.636,687.266a3.471,3.471,0,0,1-2.238-.568,1.219,1.219,0,0,1-.394-1.065.7.7,0,0,1,.371-.58c1.13-.62,4.809,1.258,5.224,1.474a.219.219,0,0,1-.057.409A15.823,15.823,0,0,1,1828.636,687.266Zm-1.644-1.91a.862.862,0,0,0-.408.079.267.267,0,0,0-.144.237.781.781,0,0,0,.25.7c.56.5,2.078.591,4.123.252A11.869,11.869,0,0,0,1826.992,685.357Z" transform="translate(61.214 98.683)" fill="#0c1631"/>
    <path id="Path_1194" data-name="Path 1194" d="M1830.88,687.524a.228.228,0,0,1-.09-.019c-1.1-.5-3.276-2.487-3.1-3.533.04-.248.215-.556.821-.617a1.587,1.587,0,0,1,1.21.378c1.159.967,1.373,3.45,1.381,3.555a.218.218,0,0,1-.218.237Zm-2.2-3.742c-.044,0-.088,0-.131.007-.4.041-.426.2-.434.253-.1.627,1.375,2.192,2.5,2.872a5.072,5.072,0,0,0-1.176-2.848A1.151,1.151,0,0,0,1828.681,683.783Z" transform="translate(61.833 98.099)" fill="#0c1631"/>
    <path id="Path_1195" data-name="Path 1195" d="M1863.971,532.966l.958,3.355c.131.26-.177.526-.61.526h-38.572c-.338,0-.618-.166-.639-.379l-.338-3.354c-.024-.233.27-.43.639-.43h37.951A.682.682,0,0,1,1863.971,532.966Z" transform="translate(60.761 42.505)" fill="#4d762c"/>
    <path id="Path_1196" data-name="Path 1196" d="M1853.658,545.418l-7.153,6.944,9.337.936s3.361-4.88,1.6-8.291Z" transform="translate(68.782 47.052)" fill="#a87362"/>
    <path id="Path_1197" data-name="Path 1197" d="M1845.735,558.065l7.86.361,2.532-7.111-9.337-.937Z" transform="translate(68.497 49.034)" fill="#a87362"/>
    <path id="Path_1198" data-name="Path 1198" d="M1713.169,687.792a3.688,3.688,0,0,0,2.524-.623.767.767,0,0,0,.109-.857.793.793,0,0,0-.554-.459c-1.321-.375-4.459,1.273-4.592,1.344a.232.232,0,0,0-.126.2.162.162,0,0,0,.133.16A13.91,13.91,0,0,0,1713.169,687.792Zm1.548-1.606a1.424,1.424,0,0,1,.374.045.489.489,0,0,1,.344.275c.1.244.034.364-.026.433-.464.535-2.559.548-4.066.33A10.083,10.083,0,0,1,1714.717,686.187Z" transform="translate(18.607 99.004)" fill="#ffaf00"/>
    <path id="Path_1199" data-name="Path 1199" d="M1710.7,688.1a.231.231,0,0,0,.083-.016c1.065-.449,3.307-2.24,3.294-3.176,0-.219-.119-.493-.649-.548a1.611,1.611,0,0,0-1.138.335,6.556,6.556,0,0,0-1.754,3.19.169.169,0,0,0,.055.178A.17.17,0,0,0,1710.7,688.1Zm2.513-3.357a1.142,1.142,0,0,1,.118.007c.348.036.349.175.35.22.008.561-1.544,1.969-2.655,2.582A5.458,5.458,0,0,1,1712.5,685,1.192,1.192,0,0,1,1713.214,684.742Z" transform="translate(18.607 98.47)" fill="#ffaf00"/>
    <path id="Path_1200" data-name="Path 1200" d="M1704.026,692.113h8.28l3.645-19.175h-8.28Z" transform="translate(16.207 94.259)" fill="#a87362"/>
    <path id="Path_1201" data-name="Path 1201" d="M1713.541,686.245H1704.5a.868.868,0,0,0-.788.565l-2.718,7.36a1.036,1.036,0,0,0,.975,1.473c3.269-.056,8.011-.246,12.11-.246,4.794,0,4.356.261,9.977.261,3.4,0,4.849-3.438,3.472-3.748-6.269-1.417-7-1.569-12.085-5.02A3.373,3.373,0,0,0,1713.541,686.245Z" transform="translate(15.057 99.169)" fill="#ffaf00"/>
    <path id="Path_1202" data-name="Path 1202" d="M1714.533,536.047l5.418,5.694-8.742,3.05s-3.182-4.645-.735-7.823Z" transform="translate(18.245 43.746)" fill="#a87362"/>
    <path id="Path_1203" data-name="Path 1203" d="M1721.133,548.162l-8.66,1.26-1.711-6.166,8.743-3.05Z" transform="translate(18.692 45.281)" fill="#a87362"/>
    <path id="Path_1204" data-name="Path 1204" d="M1729.309,491.95c-.553,1.083-1.2,2.408-1.792,3.643-.6,1.257-1.184,2.53-1.751,3.807-1.139,2.555-2.23,5.126-3.22,7.713s-1.87,5.182-2.672,7.764c-.375,1.29-.749,2.581-1.039,3.855q-.255.965-.422,1.907l-.188.947a8.155,8.155,0,0,0-.149.869,15.235,15.235,0,0,0-.159,1.611c-.029.616-.088,1.214-.088,1.9-.047,1.312-.023,2.706-.011,4.092.067,2.808.227,5.668.4,8.545.334,5.754.816,11.6,1.266,17.373l-10.332,1.67c-1.385-5.869-2.494-11.694-3.488-17.646-.47-2.979-.875-5.982-1.22-9.052-.151-1.554-.309-3.1-.4-4.733-.064-.786-.076-1.659-.082-2.516-.032-.81.036-1.828.1-2.8.023-.519.081-.91.133-1.321l.156-1.235q.144-1.247.37-2.438c.259-1.618.6-3.186.945-4.752.723-3.108,1.567-6.152,2.558-9.111s2.04-5.88,3.205-8.747c.589-1.432,1.192-2.854,1.823-4.273.635-1.444,1.26-2.775,2.036-4.32Z" transform="translate(16.181 24.802)" fill="#ffaf00"/>
    <path id="Path_1205" data-name="Path 1205" d="M1752.034,533.1s-7.965,61.908-12.578,87.159c-4.8,26.263-21.853,112.259-21.853,112.259h-14.026s7.138-84.462,10.307-110.255c3.455-28.119,9.038-89.163,9.038-89.163Z" transform="translate(16.041 42.658)" fill="#4d762c"/>
    <path id="Path_1206" data-name="Path 1206" d="M1721.437,674.683c.066,0-1.647,5.822-1.647,5.822h-17.063l.3-5.2Z" transform="translate(15.727 94.903)" fill="#4d762c"/>
    <path id="Path_1207" data-name="Path 1207" d="M1728.22,463.656c1.187,6.058,2.372,17.156-1.866,21.2,0,0,1.656,6.144,12.912,6.144,12.376,0,5.914-6.144,5.914-6.144-6.754-1.613-6.581-6.625-5.4-11.331Z" transform="translate(24.446 17.034)" fill="#a87362"/>
    <path id="Path_1208" data-name="Path 1208" d="M1717.613,481.146c-7.25,3.288-11.761,28.241-11.761,28.241l14.211,4.51a151.413,151.413,0,0,0,6.951-20.3C1729.594,483.19,1725.028,477.784,1717.613,481.146Z" transform="translate(16.88 23.12)" fill="#ffaf00"/>
    <path id="Path_1209" data-name="Path 1209" d="M1779.608,526.012l8.737.018-1.529,10.466s-6.852-.253-9.958-5.421Z" transform="translate(43.082 40.043)" fill="#a87362"/>
    <path id="Path_1210" data-name="Path 1210" d="M1793.941,529.643l-4.4,8.081-5.412-1.234,1.529-10.466Z" transform="translate(45.766 40.048)" fill="#a87362"/>
    <path id="Path_1211" data-name="Path 1211" d="M1726.855,460.321c.53,8.611.4,13.679,4.75,18.1,6.542,6.649,17.173,2.705,19.228-5.891,1.849-7.738.673-20.521-7.756-23.948A11.768,11.768,0,0,0,1726.855,460.321Z" transform="translate(24.621 11.136)" fill="#a87362"/>
    <path id="Path_1212" data-name="Path 1212" d="M1727.838,473.07s-7.807-11.7-6.115-19.329c1.551-6.986,17.295-9.472,23.833-8.768,6.935.748,9.647,3.737,5.833,9.754a32.055,32.055,0,0,1-7.045,2.386s3.874,4.748,3.9,7.861c-1.084.591-4.6,1.986-4.6,1.986s-4.94,12.176-5.088,12.158c-1.906-.23-6.311-.3-7.88.3A41.516,41.516,0,0,1,1727.838,473.07Z" transform="translate(22.648 10.097)" fill="#0c1631"/>
    <path id="Path_1213" data-name="Path 1213" d="M1735.21,461.19a9.839,9.839,0,0,0,3.5,5.168c2.253,1.695,3.93.086,3.766-2.441-.148-2.274-1.5-5.9-3.982-6.608C1736.047,456.608,1734.56,458.713,1735.21,461.19Z" transform="translate(27.657 14.641)" fill="#a87362"/>
    <path id="Path_1214" data-name="Path 1214" d="M1743.169,687.792c1.062,0,2.089-.146,2.433-.623a.744.744,0,0,0-.016-.857.975.975,0,0,0-.621-.459c-1.377-.375-4.273,1.273-4.395,1.344a.2.2,0,0,0,.059.362A14.537,14.537,0,0,0,1743.169,687.792Zm1.313-1.606a1.5,1.5,0,0,1,.379.045.591.591,0,0,1,.383.275c.14.244.089.364.038.433-.385.535-2.478.548-4.018.33A8.863,8.863,0,0,1,1744.482,686.187Z" transform="translate(29.655 99.004)" fill="#ffaf00"/>
    <path id="Path_1215" data-name="Path 1215" d="M1740.667,688.1a.207.207,0,0,0,.081-.016c1-.449,2.979-2.24,2.827-3.176-.036-.219-.19-.493-.73-.548a1.433,1.433,0,0,0-1.087.335c-1.054.865-1.277,3.1-1.285,3.19a.2.2,0,0,0,.194.215Zm2.021-3.357a1.158,1.158,0,0,1,.118.007c.353.036.375.175.383.22.09.561-1.255,1.969-2.275,2.582a4.605,4.605,0,0,1,1.094-2.553A1.041,1.041,0,0,1,1742.687,684.742Z" transform="translate(29.655 98.47)" fill="#ffaf00"/>
    <path id="Path_1216" data-name="Path 1216" d="M1733.964,692.113h8.28l.825-19.175h-8.28Z" transform="translate(27.254 94.259)" fill="#a87362"/>
    <path id="Path_1217" data-name="Path 1217" d="M1743.048,686.245h-9.042a.722.722,0,0,0-.7.565l-1.636,7.36a1.206,1.206,0,0,0,1.191,1.473c3.262-.056,7.976-.246,12.076-.246,4.793,0,8.933.261,14.555.261,3.4,0,4.342-3.438,2.92-3.748-6.478-1.417-11.767-1.569-17.365-5.02A3.831,3.831,0,0,0,1743.048,686.245Z" transform="translate(26.395 99.169)" fill="#ffaf00"/>
    <path id="Path_1218" data-name="Path 1218" d="M1757.613,533.1s1.14,61.908.241,87.159c-.938,26.263-10.112,112.259-10.112,112.259h-14.027s-.515-84.462-1.138-110.255c-.68-28.119-4.075-89.163-4.075-89.163Z" transform="translate(25.239 42.658)" fill="#4d762c"/>
    <path id="Path_1219" data-name="Path 1219" d="M1749.466,674.683c.064,0-.791,5.822-.791,5.822h-17.063l-.462-5.2Z" transform="translate(26.216 94.903)" fill="#4d762c"/>
    <path id="Path_1220" data-name="Path 1220" d="M1761.912,481.514s9.935,15.148,1.613,76.761h-46.78c-.305-6.8,5.338-45.156-1.22-77.188a115.383,115.383,0,0,1,14.825-1.871,162.231,162.231,0,0,1,18.826,0A83.031,83.031,0,0,1,1761.912,481.514Z" transform="translate(20.45 22.673)" fill="#ffaf00"/>
    <path id="Path_1221" data-name="Path 1221" d="M1760.112,489.482c1.614,5.143,3.4,10.422,5.194,15.579,1.829,5.162,3.709,10.295,5.784,15.218l.79,1.829c.176.418.156.333.174.418.016.067.116.2.157.308a12.633,12.633,0,0,0,1.745,2.051,44.131,44.131,0,0,0,5.7,4.523c2.123,1.466,4.368,2.889,6.678,4.234,2.285,1.343,4.7,2.715,6.982,3.892l-4.39,10.239a115.835,115.835,0,0,1-16.106-7.35,57.413,57.413,0,0,1-7.9-5.284,25.1,25.1,0,0,1-4.007-4.041c-.338-.479-.664-.9-.99-1.447s-.693-1.217-.8-1.442l-.991-1.971c-2.579-5.257-4.893-10.507-7.017-15.812-2.163-5.312-4.12-10.584-6.023-16.064Z" transform="translate(31.365 26.564)" fill="#ffaf00"/>
    <path id="Path_1222" data-name="Path 1222" d="M1741.425,484.7c-2.891,7.369,14.722,37.045,14.722,37.045l11.459-10.957s-2.5-9.33-5.842-20.549C1758.481,479.2,1744.189,477.656,1741.425,484.7Z" transform="translate(29.888 23.223)" fill="#ffaf00"/>
    <path id="Path_1223" data-name="Path 1223" d="M1837.174,477.989a3.061,3.061,0,0,1-5.853-1.725Z" transform="translate(63.162 21.686)" fill="#fff"/>
  </g>
</svg>
